<?xml version="1.0" encoding="utf-8"?>
<!-- Generator: Adobe Illustrator 25.4.1, SVG Export Plug-In . SVG Version: 6.00 Build 0)  -->
<svg version="1.1" id="Layer_1" xmlns="http://www.w3.org/2000/svg" xmlns:xlink="http://www.w3.org/1999/xlink" x="0px" y="0px"
	 viewBox="0 0 200 100" style="enable-background:new 0 0 200 100;" xml:space="preserve">
<style type="text/css">
	.st0{opacity:0.33;enable-background:new    ;}
	.st1{fill:#5C6A75;}
	.st2{fill:url(#SVGID_1_);}
	.st3{fill:url(#SVGID_00000011023543495649769290000008085361984772145026_);}
	.st4{fill:url(#SVGID_00000114070426059434660740000008603930896777667740_);}
	.st5{fill:url(#SVGID_00000060010243958513906020000015027686997877039032_);}
	.st6{fill:url(#SVGID_00000149383112593571002200000008331994573104733582_);}
	.st7{fill:#FFFFFF;}
	.st8{opacity:0.33;fill:#5C6A75;enable-background:new    ;}
	.st9{fill:url(#SVGID_00000144299519319966854460000016800962344468952966_);}
	.st10{opacity:0.44;fill:#FFFFFF;enable-background:new    ;}
	.st11{fill:#D9AF28;}
	.st12{fill:#BB6C28;}
	.st13{opacity:0.33;fill:#FFFFFF;enable-background:new    ;}
</style>
<g>
	<g class="st0">
		<path class="st1" d="M77.581,48.27l0.256,2.962c1.741-2.285,4.142-3.427,7.205-3.427c2.627,0,4.589,0.786,5.888,2.355
			c1.298,1.571,1.97,3.932,2.017,7.088V73.5h-7.88V57.575c0-1.274-0.256-2.211-0.769-2.809s-1.446-0.898-2.798-0.898
			c-1.539,0-2.681,0.606-3.427,1.819v17.814h-7.858V48.27H77.581z"/>
		<path class="st1" d="M108.785,66.41c0-0.667-0.35-1.204-1.049-1.608c-0.699-0.404-2.029-0.823-3.986-1.259
			c-1.959-0.435-3.575-1.006-4.85-1.714c-1.275-0.707-2.246-1.565-2.914-2.576c-0.668-1.01-1.002-2.168-1.002-3.474
			c0-2.316,0.956-4.224,2.868-5.725c1.912-1.5,4.415-2.25,7.508-2.25c3.326,0,6,0.754,8.021,2.261
			c2.02,1.508,3.031,3.49,3.031,5.946h-7.881c0-2.02-1.065-3.031-3.194-3.031c-0.824,0-1.516,0.23-2.076,0.688
			s-0.84,1.03-0.84,1.714c0,0.699,0.342,1.267,1.026,1.702c0.684,0.435,1.776,0.793,3.277,1.073c1.5,0.28,2.817,0.614,3.952,1.002
			c3.792,1.306,5.689,3.645,5.689,7.018c0,2.301-1.023,4.174-3.066,5.619c-2.044,1.446-4.691,2.168-7.94,2.168
			c-2.161,0-4.088-0.388-5.783-1.165s-3.016-1.833-3.964-3.171c-0.949-1.337-1.422-2.743-1.422-4.22h7.345
			c0.031,1.166,0.42,2.017,1.165,2.553c0.746,0.536,1.702,0.804,2.868,0.804c1.073,0,1.877-0.217,2.413-0.652
			C108.516,67.678,108.785,67.109,108.785,66.41z"/>
		<path class="st1" d="M118.257,41.741c0-1.126,0.404-2.048,1.213-2.768c0.808-0.719,1.857-1.079,3.148-1.079
			c1.29,0,2.339,0.36,3.148,1.079c0.808,0.719,1.212,1.642,1.212,2.768s-0.405,2.049-1.212,2.768
			c-0.808,0.719-1.858,1.079-3.148,1.079c-1.291,0-2.34-0.36-3.148-1.079C118.662,43.791,118.257,42.868,118.257,41.741z
			 M126.605,73.499h-7.881V48.27h7.881V73.499z"/>
		<path class="st1" d="M138.875,41.998v6.272h4.15v5.456h-4.15v11.542c0,0.949,0.171,1.609,0.513,1.981
			c0.342,0.372,1.018,0.56,2.029,0.56c0.777,0,1.43-0.047,1.959-0.14v5.619c-1.415,0.451-2.891,0.676-4.43,0.676
			c-2.704,0-4.702-0.638-5.992-1.912c-1.291-1.274-1.935-3.209-1.935-5.806v-12.52h-3.218V48.27h3.218v-6.272H138.875z"/>
		<path class="st1" d="M156.603,73.965c-3.871,0-7.003-1.154-9.396-3.462c-2.394-2.308-3.591-5.312-3.591-9.012v-0.652
			c0-2.581,0.478-4.858,1.434-6.832c0.956-1.974,2.351-3.501,4.185-4.582c1.833-1.08,4.01-1.62,6.529-1.62
			c3.544,0,6.342,1.1,8.394,3.299s3.078,5.266,3.078,9.198v3.055h-15.622c0.28,1.415,0.893,2.526,1.842,3.334
			c0.948,0.808,2.176,1.213,3.684,1.213c2.487,0,4.43-0.87,5.83-2.611l3.591,4.244c-0.98,1.353-2.366,2.429-4.162,3.229
			C160.601,73.565,158.669,73.965,156.603,73.965z M155.716,53.866c-2.301,0-3.669,1.524-4.104,4.57h7.928V57.83
			c0.031-1.259-0.288-2.234-0.956-2.926C157.916,54.212,156.96,53.866,155.716,53.866z"/>
	</g>
	<g>
		
			<linearGradient id="SVGID_1_" gradientUnits="userSpaceOnUse" x1="81.301" y1="79.3702" x2="81.301" y2="105.0652" gradientTransform="matrix(1 0 0 1 0 -32)">
			<stop  offset="0" style="stop-color:#FFFFFF"/>
			<stop  offset="0.5072" style="stop-color:#D3D4D4"/>
			<stop  offset="0.7205" style="stop-color:#D1D2D2"/>
			<stop  offset="0.8722" style="stop-color:#C7C8C7"/>
			<stop  offset="1" style="stop-color:#B8BABA"/>
		</linearGradient>
		<path class="st2" d="M77.301,47.835l0.256,2.962c1.741-2.285,4.142-3.427,7.205-3.427c2.627,0,4.589,0.786,5.888,2.355
			c1.298,1.571,1.97,3.932,2.017,7.088v16.252h-7.88V57.138c0-1.274-0.256-2.211-0.769-2.809s-1.446-0.898-2.798-0.898
			c-1.539,0-2.681,0.606-3.427,1.819v17.814h-7.858V47.835H77.301z"/>
		
			<linearGradient id="SVGID_00000111892472863880254920000012403197818355901873_" gradientUnits="userSpaceOnUse" x1="105.0205" y1="79.3692" x2="105.0205" y2="105.5292" gradientTransform="matrix(1 0 0 1 0 -32)">
			<stop  offset="0" style="stop-color:#FFFFFF"/>
			<stop  offset="0.5072" style="stop-color:#D3D4D4"/>
			<stop  offset="0.7205" style="stop-color:#D1D2D2"/>
			<stop  offset="0.8722" style="stop-color:#C7C8C7"/>
			<stop  offset="1" style="stop-color:#B8BABA"/>
		</linearGradient>
		<path style="fill:url(#SVGID_00000111892472863880254920000012403197818355901873_);" d="M108.505,65.975
			c0-0.667-0.35-1.204-1.049-1.608c-0.699-0.404-2.029-0.823-3.986-1.259c-1.959-0.435-3.575-1.006-4.85-1.714
			c-1.275-0.707-2.246-1.565-2.914-2.576c-0.668-1.01-1.002-2.168-1.002-3.474c0-2.316,0.956-4.224,2.868-5.725
			c1.912-1.5,4.415-2.25,7.508-2.25c3.326,0,6,0.754,8.021,2.261c2.02,1.508,3.031,3.49,3.031,5.946h-7.882
			c0-2.02-1.065-3.031-3.194-3.031c-0.824,0-1.516,0.23-2.076,0.688s-0.84,1.03-0.84,1.714c0,0.699,0.342,1.267,1.026,1.702
			c0.684,0.435,1.776,0.793,3.277,1.073c1.5,0.28,2.817,0.614,3.952,1.002c3.793,1.306,5.689,3.645,5.689,7.018
			c0,2.301-1.023,4.174-3.066,5.619c-2.044,1.446-4.691,2.168-7.94,2.168c-2.161,0-4.088-0.388-5.783-1.165
			s-3.016-1.833-3.964-3.171c-0.949-1.337-1.422-2.743-1.422-4.22h7.345c0.031,1.166,0.419,2.017,1.165,2.553
			s1.702,0.804,2.868,0.804c1.073,0,1.877-0.217,2.413-0.652C108.236,67.243,108.505,66.674,108.505,65.975z"/>
		
			<linearGradient id="SVGID_00000000182035185679470740000012540937458755966648_" gradientUnits="userSpaceOnUse" x1="122.338" y1="69.4592" x2="122.338" y2="105.0632" gradientTransform="matrix(1 0 0 1 0 -32)">
			<stop  offset="0" style="stop-color:#FFFFFF"/>
			<stop  offset="0.5072" style="stop-color:#D3D4D4"/>
			<stop  offset="0.7205" style="stop-color:#D1D2D2"/>
			<stop  offset="0.8722" style="stop-color:#C7C8C7"/>
			<stop  offset="1" style="stop-color:#B8BABA"/>
		</linearGradient>
		<path style="fill:url(#SVGID_00000000182035185679470740000012540937458755966648_);" d="M117.978,41.306
			c0-1.126,0.404-2.048,1.213-2.768c0.808-0.719,1.857-1.079,3.147-1.079s2.339,0.36,3.148,1.079
			c0.808,0.719,1.212,1.642,1.212,2.768s-0.405,2.049-1.212,2.768c-0.808,0.719-1.858,1.079-3.148,1.079
			c-1.291,0-2.34-0.36-3.147-1.079C118.381,43.355,117.978,42.433,117.978,41.306z M126.325,73.063h-7.881V47.835h7.881V73.063z"/>
		
			<linearGradient id="SVGID_00000062186276865022741290000013646524609625090981_" gradientUnits="userSpaceOnUse" x1="135.3085" y1="73.5632" x2="135.3085" y2="105.5292" gradientTransform="matrix(1 0 0 1 0 -32)">
			<stop  offset="0" style="stop-color:#FFFFFF"/>
			<stop  offset="0.5072" style="stop-color:#D3D4D4"/>
			<stop  offset="0.7205" style="stop-color:#D1D2D2"/>
			<stop  offset="0.8722" style="stop-color:#C7C8C7"/>
			<stop  offset="1" style="stop-color:#B8BABA"/>
		</linearGradient>
		<path style="fill:url(#SVGID_00000062186276865022741290000013646524609625090981_);" d="M138.595,41.563v6.272h4.15v5.456h-4.15
			v11.542c0,0.949,0.171,1.609,0.513,1.981c0.342,0.373,1.018,0.56,2.029,0.56c0.777,0,1.43-0.047,1.959-0.14v5.619
			c-1.415,0.451-2.891,0.676-4.43,0.676c-2.704,0-4.702-0.638-5.992-1.912c-1.291-1.274-1.935-3.209-1.935-5.806v-12.52h-3.218
			v-5.456h3.218v-6.272H138.595z"/>
		
			<linearGradient id="SVGID_00000107554627624379587170000013311596385141783212_" gradientUnits="userSpaceOnUse" x1="155.145" y1="79.3702" x2="155.145" y2="105.5302" gradientTransform="matrix(1 0 0 1 0 -32)">
			<stop  offset="0" style="stop-color:#FFFFFF"/>
			<stop  offset="0.5072" style="stop-color:#D3D4D4"/>
			<stop  offset="0.7205" style="stop-color:#D1D2D2"/>
			<stop  offset="0.8722" style="stop-color:#C7C8C7"/>
			<stop  offset="1" style="stop-color:#B8BABA"/>
		</linearGradient>
		<path style="fill:url(#SVGID_00000107554627624379587170000013311596385141783212_);" d="M156.322,73.53
			c-3.871,0-7.003-1.154-9.396-3.462c-2.394-2.308-3.591-5.312-3.591-9.012v-0.652c0-2.581,0.478-4.858,1.434-6.832
			c0.956-1.974,2.351-3.501,4.185-4.582c1.833-1.08,4.01-1.62,6.529-1.62c3.544,0,6.342,1.1,8.394,3.299
			c2.052,2.199,3.078,5.266,3.078,9.198v3.055h-15.622c0.28,1.415,0.893,2.526,1.842,3.334c0.948,0.808,2.176,1.213,3.684,1.213
			c2.487,0,4.43-0.87,5.83-2.611l3.591,4.244c-0.98,1.353-2.366,2.429-4.162,3.229C160.322,73.13,158.389,73.53,156.322,73.53z
			 M155.436,53.431c-2.301,0-3.669,1.524-4.104,4.57h7.928v-0.606c0.031-1.259-0.288-2.234-0.956-2.926
			S156.68,53.431,155.436,53.431z"/>
	</g>
	<g>
		<path class="st7" d="M62.165,85.441c0,0.569-0.099,1.069-0.295,1.499c-0.197,0.43-0.478,0.762-0.843,0.994
			c-0.365,0.232-0.788,0.348-1.266,0.348c-0.721,0-1.306-0.258-1.75-0.775s-0.667-1.215-0.667-2.092v-0.638
			c0-0.563,0.1-1.063,0.299-1.497c0.199-0.434,0.482-0.769,0.848-1.002c0.365-0.233,0.786-0.351,1.261-0.351
			c0.475,0,0.895,0.115,1.258,0.344c0.363,0.229,0.645,0.553,0.843,0.972c0.198,0.419,0.301,0.904,0.31,1.457L62.165,85.441
			L62.165,85.441z M61.643,84.77c0-0.745-0.169-1.328-0.506-1.75c-0.337-0.422-0.798-0.632-1.385-0.632
			c-0.575,0-1.032,0.212-1.374,0.635c-0.341,0.423-0.512,1.014-0.512,1.772v0.645c0,0.734,0.17,1.315,0.51,1.744
			s0.801,0.643,1.385,0.643c0.592,0,1.053-0.212,1.385-0.635c0.331-0.423,0.497-1.013,0.497-1.769L61.643,84.77L61.643,84.77z"/>
		<path class="st7" d="M67.867,88.198h-0.523l-3.555-5.291v5.291h-0.527v-6.184h0.527l3.558,5.296v-5.296h0.518L67.867,88.198
			L67.867,88.198z"/>
		<path class="st7" d="M72.721,86.677c0-0.343-0.12-0.614-0.362-0.813c-0.24-0.199-0.681-0.389-1.321-0.569
			c-0.64-0.179-1.107-0.376-1.402-0.588c-0.419-0.301-0.628-0.693-0.628-1.18c0-0.473,0.195-0.858,0.584-1.153
			c0.39-0.296,0.887-0.444,1.493-0.444c0.41,0,0.778,0.08,1.102,0.238c0.324,0.159,0.576,0.379,0.754,0.662
			c0.179,0.283,0.267,0.599,0.267,0.947h-0.527c0-0.423-0.144-0.763-0.433-1.021c-0.289-0.257-0.677-0.385-1.163-0.385
			c-0.473,0-0.849,0.105-1.13,0.317c-0.28,0.212-0.421,0.487-0.421,0.828c0,0.315,0.126,0.571,0.378,0.77
			c0.252,0.199,0.656,0.374,1.21,0.526c0.555,0.152,0.975,0.309,1.261,0.471s0.501,0.358,0.645,0.584
			c0.144,0.227,0.216,0.494,0.216,0.803c0,0.487-0.195,0.877-0.584,1.172c-0.39,0.294-0.902,0.441-1.539,0.441
			c-0.436,0-0.836-0.078-1.199-0.234c-0.364-0.155-0.64-0.374-0.828-0.654s-0.283-0.602-0.283-0.964h0.523
			c0,0.436,0.162,0.78,0.488,1.032c0.326,0.252,0.759,0.378,1.3,0.378c0.482,0,0.867-0.106,1.16-0.318
			C72.575,87.31,72.721,87.028,72.721,86.677z"/>
		<path class="st7" d="M74.792,88.198H74.27v-6.184h0.522V88.198z"/>
		<path class="st7" d="M80.326,82.456h-2.12v5.742h-0.522v-5.742h-2.115v-0.441h4.757C80.326,82.015,80.326,82.456,80.326,82.456z"
			/>
		<path class="st7" d="M84.52,85.234h-2.892v2.522h3.325v0.441h-3.847v-6.183h3.827v0.441h-3.304v2.336h2.892L84.52,85.234
			L84.52,85.234z"/>
		<path class="st7" d="M88.255,85.68v2.519h-0.523v-6.184h2.106c0.642,0,1.15,0.164,1.522,0.493c0.373,0.329,0.558,0.78,0.558,1.355
			c0,0.58-0.179,1.028-0.537,1.345c-0.358,0.316-0.877,0.474-1.556,0.474h-1.571L88.255,85.68L88.255,85.68z M88.255,85.237h1.584
			c0.506,0,0.893-0.12,1.16-0.362c0.266-0.241,0.399-0.577,0.399-1.008c0-0.428-0.132-0.769-0.397-1.023s-0.64-0.384-1.128-0.389
			h-1.618C88.255,82.455,88.255,85.237,88.255,85.237z"/>
		<path class="st7" d="M95.182,85.62h-1.796v2.578h-0.527v-6.184h2.009c0.66,0,1.174,0.16,1.546,0.479
			c0.371,0.319,0.556,0.766,0.556,1.341c0,0.396-0.116,0.745-0.348,1.048s-0.543,0.512-0.935,0.628l1.546,2.633v0.056h-0.556
			L95.182,85.62z M93.384,85.178h1.601c0.439,0,0.791-0.125,1.058-0.375c0.266-0.249,0.399-0.573,0.399-0.97
			c0-0.437-0.139-0.776-0.416-1.016c-0.277-0.241-0.667-0.362-1.168-0.362h-1.474V85.178L93.384,85.178z"/>
		<path class="st7" d="M102.743,85.441c0,0.569-0.099,1.069-0.295,1.499c-0.197,0.43-0.478,0.762-0.843,0.994
			c-0.365,0.232-0.788,0.348-1.266,0.348c-0.721,0-1.306-0.258-1.75-0.775c-0.444-0.517-0.667-1.215-0.667-2.092v-0.638
			c0-0.563,0.1-1.063,0.299-1.497c0.199-0.434,0.482-0.769,0.848-1.002c0.365-0.233,0.786-0.351,1.261-0.351
			s0.895,0.115,1.258,0.344c0.363,0.229,0.645,0.553,0.843,0.972c0.198,0.419,0.301,0.904,0.31,1.457L102.743,85.441L102.743,85.441
			z M102.221,84.77c0-0.745-0.169-1.328-0.506-1.75c-0.337-0.422-0.798-0.632-1.385-0.632c-0.575,0-1.032,0.212-1.374,0.635
			c-0.341,0.423-0.512,1.014-0.512,1.772v0.645c0,0.734,0.17,1.315,0.51,1.744c0.34,0.429,0.801,0.643,1.385,0.643
			c0.592,0,1.053-0.212,1.385-0.635c0.331-0.423,0.497-1.013,0.497-1.769L102.221,84.77L102.221,84.77z"/>
		<path class="st7" d="M107.249,85.306h-2.884v2.892h-0.523v-6.184h3.831v0.441h-3.309v2.408h2.884L107.249,85.306L107.249,85.306z"
			/>
		<path class="st7" d="M111.932,85.234h-2.892v2.522h3.325v0.441h-3.847v-6.183h3.827v0.441h-3.304v2.336h2.892L111.932,85.234
			L111.932,85.234z"/>
		<path class="st7" d="M116.747,86.677c0-0.343-0.12-0.614-0.361-0.813c-0.24-0.199-0.681-0.389-1.321-0.569
			c-0.64-0.179-1.107-0.376-1.402-0.588c-0.419-0.301-0.628-0.693-0.628-1.18c0-0.473,0.195-0.858,0.584-1.153
			c0.39-0.296,0.887-0.444,1.493-0.444c0.41,0,0.778,0.08,1.102,0.238c0.324,0.159,0.576,0.379,0.754,0.662
			c0.179,0.283,0.267,0.599,0.267,0.947h-0.527c0-0.423-0.144-0.763-0.433-1.021c-0.289-0.257-0.677-0.385-1.163-0.385
			c-0.473,0-0.849,0.105-1.13,0.317c-0.28,0.212-0.421,0.487-0.421,0.828c0,0.315,0.126,0.571,0.378,0.77
			c0.252,0.199,0.656,0.374,1.21,0.526c0.555,0.152,0.975,0.309,1.261,0.471s0.501,0.358,0.645,0.584
			c0.144,0.227,0.216,0.494,0.216,0.803c0,0.487-0.195,0.877-0.584,1.172c-0.39,0.294-0.902,0.441-1.539,0.441
			c-0.436,0-0.836-0.078-1.199-0.234c-0.364-0.155-0.64-0.374-0.828-0.654s-0.283-0.602-0.283-0.964h0.523
			c0,0.436,0.162,0.78,0.488,1.032c0.326,0.252,0.759,0.378,1.3,0.378c0.482,0,0.867-0.106,1.16-0.318
			C116.601,87.31,116.747,87.028,116.747,86.677z"/>
		<path class="st7" d="M121.681,86.677c0-0.343-0.12-0.614-0.362-0.813c-0.24-0.199-0.681-0.389-1.321-0.569
			c-0.64-0.179-1.107-0.376-1.402-0.588c-0.419-0.301-0.628-0.693-0.628-1.18c0-0.473,0.195-0.858,0.584-1.153
			c0.39-0.296,0.887-0.444,1.493-0.444c0.41,0,0.778,0.08,1.102,0.238c0.324,0.159,0.576,0.379,0.753,0.662
			c0.179,0.283,0.267,0.599,0.267,0.947h-0.527c0-0.423-0.144-0.763-0.433-1.021c-0.289-0.257-0.677-0.385-1.163-0.385
			c-0.473,0-0.849,0.105-1.13,0.317c-0.28,0.212-0.421,0.487-0.421,0.828c0,0.315,0.126,0.571,0.378,0.77
			c0.252,0.199,0.656,0.374,1.21,0.526c0.555,0.152,0.975,0.309,1.261,0.471s0.501,0.358,0.645,0.584
			c0.144,0.227,0.217,0.494,0.217,0.803c0,0.487-0.195,0.877-0.584,1.172c-0.39,0.294-0.902,0.441-1.539,0.441
			c-0.436,0-0.836-0.078-1.199-0.234c-0.364-0.155-0.64-0.374-0.828-0.654s-0.283-0.602-0.283-0.964h0.523
			c0,0.436,0.162,0.78,0.488,1.032c0.326,0.252,0.759,0.378,1.3,0.378c0.482,0,0.867-0.106,1.16-0.318
			C121.535,87.31,121.681,87.028,121.681,86.677z"/>
		<path class="st7" d="M123.752,88.198h-0.522v-6.184h0.522V88.198z"/>
		<path class="st7" d="M129.782,85.441c0,0.569-0.099,1.069-0.295,1.499c-0.197,0.43-0.478,0.762-0.843,0.994
			c-0.365,0.232-0.788,0.348-1.266,0.348c-0.721,0-1.306-0.258-1.75-0.775c-0.445-0.517-0.667-1.215-0.667-2.092v-0.638
			c0-0.563,0.1-1.063,0.299-1.497c0.199-0.434,0.482-0.769,0.848-1.002c0.365-0.233,0.786-0.351,1.261-0.351
			s0.895,0.115,1.258,0.344c0.363,0.229,0.645,0.553,0.843,0.972s0.301,0.904,0.31,1.457L129.782,85.441L129.782,85.441z
			 M129.259,84.77c0-0.745-0.169-1.328-0.506-1.75c-0.337-0.422-0.798-0.632-1.385-0.632c-0.575,0-1.032,0.212-1.374,0.635
			c-0.341,0.423-0.512,1.014-0.512,1.772v0.645c0,0.734,0.17,1.315,0.51,1.744c0.34,0.429,0.801,0.643,1.385,0.643
			c0.592,0,1.053-0.212,1.385-0.635c0.331-0.423,0.497-1.013,0.497-1.769V84.77L129.259,84.77z"/>
		<path class="st7" d="M135.484,88.198h-0.523l-3.555-5.291v5.291h-0.527v-6.184h0.527l3.558,5.296v-5.296h0.518L135.484,88.198
			L135.484,88.198z"/>
		<path class="st7" d="M140.252,86.46h-2.807l-0.638,1.737h-0.548l2.34-6.183h0.497l2.34,6.183h-0.544L140.252,86.46z
			 M137.607,86.019h2.48l-1.241-3.368L137.607,86.019z"/>
		<path class="st7" d="M142.655,87.756h3.053v0.441h-3.581v-6.183h0.527L142.655,87.756L142.655,87.756z"/>
		<path class="st7" d="M73.194,96.939v-6.183h1.728c0.506,0,0.962,0.116,1.363,0.346c0.403,0.23,0.716,0.562,0.941,0.991
			c0.225,0.43,0.338,0.92,0.338,1.469v0.569c0,0.553-0.112,1.041-0.335,1.469c-0.224,0.427-0.538,0.758-0.945,0.989
			c-0.406,0.232-0.873,0.348-1.399,0.348L73.194,96.939L73.194,96.939z M73.716,91.198v5.3h1.172c0.651,0,1.173-0.216,1.567-0.649
			c0.393-0.432,0.59-1.016,0.59-1.754v-0.544c0-0.711-0.194-1.281-0.582-1.709s-0.899-0.643-1.534-0.646h-1.214L73.716,91.198
			L73.716,91.198z"/>
		<path class="st7" d="M82.085,93.976h-2.892v2.522h3.325v0.441h-3.847v-6.183h3.827v0.441h-3.304v2.336h2.892L82.085,93.976
			L82.085,93.976z"/>
		<path class="st7" d="M85.264,96.175l0.034,0.132l0.039-0.132l1.945-5.419h0.573l-2.302,6.183h-0.501l-2.302-6.183h0.569
			L85.264,96.175z"/>
		<path class="st7" d="M91.961,93.976h-2.892v2.522h3.325v0.441h-3.847v-6.183h3.827v0.441H89.07v2.336h2.892L91.961,93.976
			L91.961,93.976z"/>
		<path class="st7" d="M93.804,96.498h3.053v0.441h-3.581v-6.183h0.527L93.804,96.498L93.804,96.498z"/>
		<path class="st7" d="M101.936,94.183c0,0.569-0.099,1.069-0.295,1.499c-0.197,0.43-0.478,0.762-0.843,0.994
			c-0.365,0.232-0.788,0.348-1.266,0.348c-0.721,0-1.306-0.258-1.75-0.775c-0.444-0.517-0.667-1.215-0.667-2.092v-0.638
			c0-0.563,0.1-1.063,0.299-1.497c0.199-0.434,0.482-0.769,0.848-1.002c0.365-0.233,0.786-0.351,1.261-0.351
			s0.895,0.115,1.258,0.344c0.363,0.229,0.645,0.553,0.843,0.972c0.198,0.419,0.301,0.904,0.31,1.457L101.936,94.183L101.936,94.183
			z M101.413,93.512c0-0.745-0.169-1.328-0.506-1.75c-0.337-0.422-0.798-0.632-1.385-0.632c-0.575,0-1.032,0.212-1.374,0.635
			s-0.512,1.014-0.512,1.772v0.645c0,0.734,0.17,1.315,0.51,1.744c0.34,0.429,0.801,0.643,1.385,0.643
			c0.592,0,1.053-0.212,1.385-0.635c0.331-0.423,0.497-1.013,0.497-1.769L101.413,93.512L101.413,93.512z"/>
		<path class="st7" d="M103.557,94.421v2.519h-0.523v-6.183h2.106c0.642,0,1.15,0.164,1.522,0.493
			c0.373,0.329,0.558,0.78,0.558,1.355c0,0.58-0.179,1.028-0.537,1.345c-0.358,0.316-0.877,0.474-1.556,0.474h-1.571L103.557,94.421
			L103.557,94.421z M103.557,93.979h1.584c0.506,0,0.893-0.12,1.16-0.362c0.266-0.241,0.399-0.577,0.399-1.008
			c0-0.428-0.132-0.769-0.397-1.023c-0.265-0.254-0.64-0.384-1.128-0.389h-1.618L103.557,93.979L103.557,93.979z"/>
		<path class="st7" d="M108.864,90.756l2.281,5.457l2.289-5.457h0.697v6.183h-0.523v-2.692l0.042-2.761l-2.302,5.453h-0.404
			l-2.294-5.432l0.042,2.722v2.709h-0.523v-6.183C108.171,90.756,108.864,90.756,108.864,90.756z"/>
		<path class="st7" d="M118.894,93.976h-2.892v2.522h3.325v0.441h-3.847v-6.183h3.827v0.441h-3.304v2.336h2.892L118.894,93.976
			L118.894,93.976z"/>
		<path class="st7" d="M124.813,96.939h-0.523l-3.555-5.291v5.291h-0.527v-6.183h0.527l3.558,5.296v-5.296h0.518L124.813,96.939
			L124.813,96.939z"/>
		<path class="st7" d="M130.24,91.198h-2.12v5.742h-0.522v-5.742h-2.115v-0.441h4.757V91.198L130.24,91.198z"/>
	</g>
	<path class="st8" d="M66.588,51.83c-0.006-0.014-0.014-0.032-0.021-0.047c-0.067-0.163-0.145-0.321-0.216-0.481
		c-0.16-0.362-0.327-0.717-0.507-1.07c-0.102-0.195-0.206-0.388-0.315-0.583c-0.18-0.321-0.37-0.638-0.565-0.947
		c-0.108-0.169-0.21-0.338-0.321-0.504c-0.303-0.446-0.617-0.88-0.956-1.3c-0.091-0.114-0.189-0.219-0.283-0.327
		c-0.268-0.321-0.545-0.632-0.834-0.933c-0.143-0.149-0.286-0.292-0.431-0.434c-0.271-0.266-0.551-0.525-0.837-0.773
		c-0.143-0.123-0.28-0.248-0.422-0.367c-0.419-0.347-0.854-0.682-1.303-0.991c-0.079-0.056-0.166-0.102-0.245-0.157
		c-0.385-0.256-0.781-0.504-1.187-0.732c-0.16-0.091-0.327-0.178-0.49-0.266c-0.355-0.189-0.714-0.364-1.084-0.53
		c-0.16-0.073-0.315-0.149-0.478-0.213c-0.518-0.219-1.047-0.419-1.585-0.588c-0.047-0.014-0.093-0.023-0.14-0.038
		c-0.501-0.155-1.015-0.286-1.53-0.403c-0.172-0.038-0.347-0.07-0.518-0.102c-0.417-0.079-0.84-0.145-1.268-0.195
		c-0.175-0.021-0.347-0.043-0.525-0.061c-0.586-0.056-1.178-0.093-1.778-0.093c-0.606,0-1.206,0.038-1.798,0.093
		c-0.187,0.018-0.367,0.047-0.545,0.067c-0.414,0.049-0.825,0.11-1.23,0.187c-0.195,0.038-0.39,0.075-0.583,0.119
		c-0.417,0.096-0.828,0.205-1.23,0.323c-0.155,0.047-0.312,0.084-0.466,0.137c-0.545,0.175-1.082,0.373-1.603,0.595
		c-0.102,0.043-0.201,0.096-0.301,0.14c-0.422,0.189-0.834,0.39-1.239,0.609c-0.175,0.093-0.344,0.195-0.513,0.292
		c-0.329,0.189-0.653,0.388-0.971,0.597c-0.172,0.114-0.341,0.227-0.51,0.344c-0.335,0.239-0.659,0.486-0.976,0.744
		c-0.123,0.102-0.254,0.195-0.376,0.301c-0.417,0.353-0.819,0.726-1.204,1.113c-0.137,0.134-0.259,0.277-0.39,0.417
		c-0.256,0.271-0.507,0.551-0.746,0.834c-0.149,0.18-0.292,0.362-0.437,0.548c-0.21,0.268-0.411,0.548-0.606,0.828
		c-0.134,0.189-0.268,0.379-0.396,0.577c-0.216,0.332-0.417,0.68-0.612,1.026c-0.108,0.187-0.216,0.373-0.318,0.565
		c-0.227,0.437-0.44,0.889-0.635,1.347c-0.093,0.216-0.175,0.44-0.259,0.662c-0.079,0.205-0.166,0.403-0.239,0.609
		c0.006,0.003,0.008,0.006,0.014,0.008c-0.714,2.05-1.123,4.245-1.123,6.544c0,10.841,8.641,19.63,19.295,19.63
		s19.295-8.786,19.295-19.63C68.046,56.668,67.524,54.138,66.588,51.83C66.585,51.832,66.588,51.832,66.588,51.83z"/>
	
		<linearGradient id="SVGID_00000141456916241112085390000005094891328968114598_" gradientUnits="userSpaceOnUse" x1="48.441" y1="328.8742" x2="48.441" y2="368.1342" gradientTransform="matrix(1 0 0 1 0 -289.8)">
		<stop  offset="0" style="stop-color:#FFFFFF"/>
		<stop  offset="0.3126" style="stop-color:#E1E0DF"/>
		<stop  offset="0.4767" style="stop-color:#DFDFDE"/>
		<stop  offset="0.7198" style="stop-color:#C7C7C7"/>
	</linearGradient>
	<path style="fill:url(#SVGID_00000141456916241112085390000005094891328968114598_);" d="M44.241,48.108
		c1.411,0,15.406,8.086,15.406,10.646c0,2.556-13.616,10.646-15.406,10.646C42.454,69.402,42.833,48.108,44.241,48.108z
		 M48.442,39.074c10.657,0,19.295,8.791,19.295,19.63c0,10.841-8.641,19.63-19.295,19.63s-19.297-8.791-19.297-19.633
		S37.785,39.074,48.442,39.074z"/>
	<path class="st10" d="M48.442,39.074c-8.398,0-15.538,5.459-18.19,13.076c3.332,2.408,7.79,4.116,12.823,4.775
		c0.125-4.65,0.545-8.818,1.166-8.818c1.043,0,8.97,4.428,13.027,7.763c3.553-1.049,6.643-2.659,9.008-4.658
		C63.384,44.087,56.491,39.074,48.442,39.074z"/>
	<path class="st11" d="M44.241,48.108c1.411,0,15.406,8.086,15.406,10.646c0,2.556-13.616,10.646-15.406,10.646
		C42.454,69.402,42.833,48.108,44.241,48.108z"/>
	<g>
		<path class="st12" d="M44.241,48.108c-0.178,0-0.341,0.344-0.484,0.947c1.793,0.262,15.316,8.115,15.316,10.634
			c0,0.096-0.026,0.201-0.061,0.315c0.405-0.49,0.638-0.919,0.638-1.248C59.647,56.194,45.649,48.108,44.241,48.108z"/>
	</g>
	<path class="st13" d="M43.075,56.925c1.486,0.195,3.02,0.297,4.591,0.297c3.422,0,6.67-0.484,9.602-1.35
		c-4.058-3.338-11.984-7.759-13.027-7.759C43.62,48.108,43.202,52.279,43.075,56.925z"/>
	<g>
		<g>
			<path class="st7" d="M167.446,41.923h-0.822v2.289h-0.337v-2.289h-0.822v-0.275h1.984L167.446,41.923L167.446,41.923z"/>
			<path class="st7" d="M168.263,41.646l0.837,2.092l0.84-2.092h0.437v2.564h-0.34v-0.997l0.032-1.08l-0.842,2.077h-0.26
				l-0.84-2.072l0.032,1.075v0.997h-0.337v-2.564H168.263z"/>
		</g>
	</g>
</g>
</svg>
