<?xml version="1.0" encoding="utf-8"?>
<!-- Generator: Adobe Illustrator 25.4.1, SVG Export Plug-In . SVG Version: 6.00 Build 0)  -->
<svg version="1.1" id="Layer_1" xmlns="http://www.w3.org/2000/svg" xmlns:xlink="http://www.w3.org/1999/xlink" x="0px" y="0px"
	 viewBox="0 0 200 100" style="enable-background:new 0 0 200 100;" xml:space="preserve">
<style type="text/css">
	.st0{fill:#FFFFFF;}
	.st1{opacity:0.4;}
	.st2{fill:#310E3F;}
	.st3{fill:#E0BDAE;}
	.st4{fill:#91ABB1;}
	.st5{fill:#8A3E6E;}
	.st6{fill:#FCF065;}
	.st7{fill:#EB519B;}
	.st8{fill:#A9DFF6;}
	.st9{fill:#2F141A;}
	.st10{fill:#D28ABB;}
	.st11{fill:#50B748;}
	.st12{fill:#CBAC94;}
	.st13{fill:#443E39;}
	.st14{fill:#E4A2AC;}
	.st15{fill:#E5B829;}
	.st16{opacity:0.25;}
	.st17{fill:#0B8266;}
</style>
<g>
	<path class="st0" d="M109.558,18.885l-0.011-0.01c-0.764-0.674-1.626-1.195-2.56-1.55c-1.871-0.708-3.814-0.708-5.684,0
		c-0.937,0.355-1.784,0.877-2.521,1.554c-0.769,0.71-1.392,1.608-1.851,2.669c-0.459,1.059-0.692,2.292-0.692,3.665V42.68
		c0,1.435,0.234,2.685,0.694,3.715c0.461,1.031,1.085,1.898,1.844,2.567c0.737,0.711,1.587,1.25,2.526,1.606
		c0.933,0.353,1.89,0.533,2.842,0.533s1.908-0.179,2.843-0.533c0.937-0.355,1.8-0.894,2.566-1.6c0.74-0.68,1.347-1.545,1.806-2.573
		c0.46-1.03,0.694-2.28,0.694-3.715V25.213c0-1.372-0.233-2.605-0.692-3.665C110.902,20.491,110.296,19.595,109.558,18.885z
		 M106.86,25.214V42.68c0,1.041-0.268,1.807-0.795,2.28c-0.545,0.489-1.173,0.727-1.92,0.727s-1.375-0.238-1.92-0.728
		c-0.528-0.471-0.795-1.238-0.795-2.279V25.214c0-1.041,0.268-1.807,0.795-2.279c0.546-0.489,1.173-0.727,1.92-0.727
		s1.374,0.238,1.92,0.726C106.593,23.408,106.86,24.175,106.86,25.214z"/>
	<polygon class="st0" points="111.891,22.209 117.114,22.209 117.114,50.824 122.306,50.824 122.306,22.209 127.528,22.209 
		127.528,17.072 111.891,17.072 	"/>
	<rect x="128.298" y="17.072" class="st0" width="5.191" height="33.752"/>
	<path class="st0" d="M147.155,17.475c-0.971-0.452-2.053-0.682-3.219-0.682c-1.373,0-2.579,0.254-3.582,0.756
		c-1.002,0.502-1.837,1.183-2.479,2.018c-0.676,0.836-1.188,1.845-1.523,2.997c-0.332,1.139-0.5,2.359-0.5,3.625
		c0,2.116,0.346,3.909,1.029,5.327c0.697,1.447,2.073,2.62,4.087,3.485l3.228,1.392c0.543,0.24,0.982,0.467,1.305,0.673
		c0.295,0.188,0.533,0.433,0.7,0.706c0.156,0.302,0.264,0.715,0.319,1.227c0.057,0.545,0.087,1.253,0.087,2.102
		c0,0.726-0.022,1.397-0.066,1.996c-0.041,0.552-0.169,1.03-0.381,1.419c-0.205,0.378-0.486,0.661-0.858,0.863
		c-0.379,0.204-0.927,0.307-1.632,0.307c-1.043,0-1.755-0.295-2.179-0.901c-0.451-0.645-0.669-1.349-0.669-2.152v-1.826h-5.191
		v2.104c0,1.156,0.21,2.24,0.624,3.221c0.413,0.978,0.978,1.849,1.681,2.587c0.709,0.745,1.566,1.334,2.547,1.751
		c0.981,0.418,2.054,0.631,3.187,0.631c1.49,0,2.777-0.262,3.824-0.778c1.049-0.519,1.91-1.242,2.56-2.153
		c0.613-0.867,1.062-1.932,1.338-3.164c0.27-1.214,0.407-2.544,0.407-3.953c0-1.207-0.06-2.307-0.18-3.271
		c-0.123-0.974-0.353-1.857-0.697-2.639c-0.372-0.749-0.891-1.417-1.541-1.986c-0.645-0.564-1.496-1.06-2.526-1.474l-3.452-1.44
		c-0.562-0.236-1.008-0.473-1.325-0.705c-0.295-0.215-0.522-0.473-0.673-0.764c-0.157-0.303-0.256-0.652-0.296-1.041
		c-0.042-0.422-0.065-0.958-0.065-1.592c0-0.536,0.042-1.057,0.129-1.546c0.081-0.469,0.23-0.892,0.437-1.246
		c0.211-0.333,0.482-0.603,0.829-0.827c0.325-0.211,0.77-0.317,1.32-0.317c1.035,0,1.744,0.335,2.168,1.024
		c0.451,0.731,0.681,1.617,0.681,2.632v1.407h5.192v-2.662c0-1.997-0.715-3.794-2.13-5.343
		C148.964,18.527,148.118,17.925,147.155,17.475z"/>
	<path class="st0" d="M98.137,56.543c-0.451,0.475-0.675,1.153-0.675,2.037v1.047h-1.429v0.783h1.429v7.86h0.959v-7.86h2.061v-0.783
		H98.42v-1.074c0-0.603,0.147-1.07,0.439-1.397c0.292-0.328,0.702-0.492,1.23-0.492c0.314,0,0.604,0.032,0.87,0.096l0.072-0.792
		c-0.315-0.089-0.653-0.134-1.014-0.134C99.213,55.833,98.587,56.069,98.137,56.543z"/>
	<path class="st0" d="M105.105,59.467c-0.746,0-1.413,0.185-2.001,0.555c-0.589,0.37-1.043,0.887-1.366,1.554
		c-0.323,0.665-0.483,1.414-0.483,2.245v0.191c0,1.332,0.359,2.4,1.075,3.207c0.716,0.807,1.647,1.211,2.792,1.211
		c0.751,0,1.419-0.181,2.005-0.543c0.586-0.362,1.04-0.877,1.362-1.546c0.322-0.668,0.482-1.421,0.482-2.256v-0.2
		c0-1.331-0.357-2.4-1.07-3.207C107.188,59.871,106.255,59.467,105.105,59.467z M108.021,64.005c0,1.086-0.268,1.961-0.803,2.624
		c-0.535,0.663-1.234,0.995-2.097,0.995c-0.869,0-1.57-0.332-2.104-0.995s-0.803-1.511-0.803-2.544V63.91
		c0-1.081,0.269-1.955,0.807-2.624c0.538-0.669,1.233-1.002,2.085-1.002c0.569,0,1.075,0.15,1.518,0.451
		c0.442,0.301,0.786,0.726,1.031,1.274c0.245,0.548,0.367,1.153,0.367,1.813L108.021,64.005L108.021,64.005z"/>
	<path class="st0" d="M111.486,61.001l-0.016-1.373h-0.935v8.642h0.951v-5.935c0.175-0.634,0.47-1.117,0.882-1.45
		c0.413-0.333,0.917-0.499,1.514-0.499c0.229,0,0.444,0.019,0.646,0.056l0.024-0.87c-0.154-0.069-0.365-0.103-0.631-0.103
		C112.803,59.467,111.992,59.978,111.486,61.001z"/>
	<path class="st0" d="M122.37,59.467c-0.67,0-1.294,0.19-1.869,0.572c-0.575,0.381-1.024,0.904-1.346,1.57s-0.483,1.414-0.483,2.245
		v0.343c0,0.804,0.165,1.529,0.495,2.177c0.331,0.648,0.793,1.151,1.386,1.514c0.594,0.362,1.258,0.543,1.994,0.543
		c1.337,0,2.356-0.509,3.059-1.526l-0.598-0.456c-0.319,0.41-0.675,0.708-1.067,0.895c-0.392,0.186-0.843,0.28-1.353,0.28
		c-0.853,0-1.559-0.326-2.121-0.978c-0.562-0.652-0.843-1.469-0.843-2.448v-0.184h6.166v-0.535c0-1.24-0.307-2.22-0.923-2.936
		C124.252,59.825,123.419,59.467,122.37,59.467z M124.838,63.197h-5.184c0.107-0.889,0.405-1.598,0.899-2.125
		c0.492-0.527,1.099-0.791,1.817-0.791c0.725,0,1.31,0.261,1.758,0.783c0.447,0.522,0.685,1.198,0.711,2.03v0.104L124.838,63.197z"
		/>
	<path class="st0" d="M132.865,60.849c-0.612-0.921-1.501-1.382-2.667-1.382c-1.028,0-1.842,0.398-2.441,1.194
		c-0.599,0.797-0.899,1.866-0.899,3.207v0.112c0,1.364,0.305,2.446,0.915,3.247c0.609,0.802,1.413,1.202,2.408,1.202
		c1.187,0,2.088-0.437,2.7-1.31l0.04,1.15h0.895V56.001h-0.951V60.849L132.865,60.849L132.865,60.849z M132.865,66.041
		c-0.495,1.038-1.331,1.558-2.509,1.558c-0.803,0-1.427-0.319-1.869-0.955c-0.442-0.636-0.663-1.505-0.663-2.608
		c0-1.23,0.223-2.161,0.67-2.793c0.447-0.631,1.074-0.947,1.877-0.947c1.167,0,1.997,0.562,2.492,1.686v4.058h0.001V66.041z"/>
	<path class="st0" d="M141.467,65.882c-0.367,1.145-1.243,1.718-2.627,1.718c-1.332,0-1.997-0.823-1.997-2.468v-5.503h-0.951v5.624
		c0.011,1.049,0.256,1.842,0.734,2.376c0.48,0.536,1.179,0.803,2.1,0.803c1.262,0,2.181-0.418,2.755-1.255l0.016,1.094h0.927v-8.645
		h-0.959v6.255L141.467,65.882L141.467,65.882z"/>
	<path class="st0" d="M145.679,61.216c0.477-0.623,1.146-0.935,2.009-0.935c0.676,0,1.237,0.208,1.682,0.623
		c0.445,0.415,0.689,0.961,0.731,1.638h0.919c-0.042-0.921-0.372-1.664-0.986-2.228c-0.615-0.564-1.397-0.846-2.345-0.846
		c-0.745,0-1.397,0.179-1.953,0.535c-0.557,0.357-0.983,0.863-1.281,1.518c-0.298,0.655-0.447,1.409-0.447,2.261v0.288
		c0,1.332,0.331,2.391,0.995,3.179c0.663,0.788,1.561,1.183,2.696,1.183c0.575,0,1.114-0.123,1.618-0.368
		c0.504-0.245,0.906-0.584,1.211-1.018c0.304-0.434,0.469-0.915,0.495-1.442h-0.919c-0.037,0.597-0.281,1.083-0.731,1.458
		c-0.45,0.375-1.007,0.564-1.674,0.564c-0.868,0-1.54-0.309-2.017-0.927c-0.476-0.618-0.715-1.478-0.715-2.58v-0.28
		C144.964,62.713,145.203,61.839,145.679,61.216z"/>
	<path class="st0" d="M158.733,62.207c-0.016-0.863-0.302-1.535-0.859-2.017c-0.557-0.482-1.316-0.723-2.281-0.723
		c-0.932,0-1.717,0.251-2.356,0.755c-0.639,0.503-0.958,1.099-0.958,1.785l0.958,0.008c0-0.479,0.219-0.889,0.656-1.23
		c0.436-0.341,0.988-0.511,1.654-0.511c0.73,0,1.284,0.177,1.665,0.531c0.38,0.354,0.57,0.84,0.57,1.458v0.983h-1.734
		c-1.25,0-2.227,0.245-2.927,0.735c-0.7,0.49-1.05,1.156-1.05,1.997c0,0.708,0.256,1.294,0.771,1.758
		c0.514,0.462,1.186,0.695,2.017,0.695c0.58,0,1.131-0.119,1.65-0.356c0.52-0.237,0.947-0.574,1.281-1.01
		c0.026,0.533,0.088,0.935,0.184,1.207h1.022v-0.096c-0.175-0.415-0.263-1.041-0.263-1.877v-4.092h0V62.207z M157.783,65.882
		c-0.229,0.516-0.595,0.93-1.099,1.238c-0.503,0.309-1.075,0.463-1.714,0.463c-0.575,0-1.042-0.16-1.402-0.479
		c-0.359-0.319-0.538-0.721-0.538-1.207c0-0.592,0.269-1.055,0.807-1.394c0.538-0.338,1.283-0.512,2.237-0.523h1.71L157.783,65.882
		L157.783,65.882z"/>
	<path class="st0" d="M163.486,67.599c-0.405,0-0.694-0.118-0.867-0.353c-0.174-0.235-0.26-0.592-0.26-1.072v-5.766h1.79v-0.783
		h-1.79v-2.213h-0.958v2.213h-1.589v0.783h1.589v5.767c0,0.74,0.149,1.301,0.447,1.682c0.297,0.381,0.774,0.572,1.429,0.572
		c0.431,0,0.772-0.046,1.023-0.134l-0.04-0.776C163.903,67.572,163.645,67.599,163.486,67.599z"/>
	<path class="st0" d="M168.884,59.467c-0.746,0-1.413,0.185-2.001,0.555c-0.589,0.37-1.043,0.887-1.366,1.554
		c-0.323,0.665-0.483,1.414-0.483,2.245v0.191c0,1.332,0.359,2.4,1.075,3.207c0.716,0.807,1.647,1.211,2.792,1.211
		c0.751,0,1.419-0.181,2.005-0.543c0.586-0.362,1.04-0.877,1.362-1.546c0.322-0.668,0.482-1.421,0.482-2.256v-0.2
		c0-1.331-0.357-2.4-1.07-3.207C170.967,59.871,170.033,59.467,168.884,59.467z M171.8,64.005c0,1.086-0.268,1.961-0.802,2.624
		c-0.535,0.663-1.234,0.995-2.097,0.995c-0.869,0-1.57-0.332-2.104-0.995s-0.803-1.511-0.803-2.544V63.91
		c0-1.081,0.269-1.955,0.807-2.624c0.538-0.669,1.233-1.002,2.085-1.002c0.569,0,1.075,0.15,1.518,0.451
		c0.442,0.301,0.786,0.726,1.031,1.274c0.245,0.548,0.367,1.153,0.367,1.813L171.8,64.005L171.8,64.005z"/>
	<path class="st0" d="M175.264,61.001l-0.016-1.373h-0.935v8.642h0.951v-5.935c0.175-0.634,0.47-1.117,0.882-1.45
		c0.413-0.333,0.917-0.499,1.514-0.499c0.229,0,0.444,0.019,0.646,0.056l0.024-0.87c-0.154-0.069-0.365-0.103-0.631-0.103
		C176.582,59.467,175.77,59.978,175.264,61.001z"/>
	<path class="st0" d="M184.309,64.076c-0.418-0.223-1.046-0.434-1.885-0.631c-0.839-0.196-1.417-0.414-1.734-0.651
		s-0.475-0.572-0.475-1.002c0-0.447,0.19-0.812,0.572-1.091c0.38-0.28,0.885-0.42,1.514-0.42c0.644,0,1.178,0.168,1.601,0.503
		c0.424,0.336,0.634,0.757,0.634,1.262h0.959c0-0.767-0.291-1.388-0.875-1.866c-0.583-0.476-1.356-0.715-2.32-0.715
		c-0.889,0-1.62,0.222-2.189,0.667c-0.569,0.445-0.855,1.007-0.855,1.689c0,0.431,0.102,0.799,0.308,1.102
		c0.205,0.304,0.519,0.561,0.942,0.771c0.424,0.211,1.019,0.397,1.786,0.559c0.767,0.163,1.341,0.388,1.722,0.675
		c0.38,0.288,0.57,0.668,0.57,1.142c0,0.447-0.205,0.818-0.615,1.11c-0.41,0.292-0.948,0.44-1.613,0.44
		c-0.714,0-1.288-0.155-1.722-0.468c-0.434-0.312-0.67-0.747-0.706-1.305h-0.959c0,0.746,0.313,1.362,0.94,1.849
		c0.626,0.487,1.442,0.732,2.448,0.732c0.947,0,1.716-0.219,2.304-0.656c0.588-0.437,0.883-1.019,0.883-1.749
		c0-0.447-0.101-0.828-0.303-1.142C185.037,64.568,184.727,64.299,184.309,64.076z"/>
	<path class="st0" d="M188.398,67.244c-0.119-0.126-0.281-0.189-0.484-0.189s-0.362,0.063-0.479,0.189
		c-0.118,0.126-0.176,0.28-0.176,0.461c0,0.178,0.058,0.326,0.176,0.446c0.117,0.121,0.276,0.181,0.479,0.181
		c0.203,0,0.364-0.06,0.484-0.181c0.119-0.121,0.18-0.269,0.18-0.446C188.577,67.525,188.517,67.371,188.398,67.244z"/>
	<polygon class="st0" points="188.305,65.026 188.362,56.639 187.372,56.639 187.42,65.026 	"/>
	<polygon class="st0" points="190.137,56.057 191.306,56.057 191.306,59.187 191.775,59.187 191.775,56.057 192.949,56.057 
		192.949,55.64 190.137,55.64 	"/>
	<path class="st0" d="M195.197,58.108c-0.085,0.25-0.148,0.439-0.189,0.569c-0.036-0.117-0.093-0.291-0.17-0.526l-0.84-2.512h-0.706
		v3.548h0.452v-3.02l1.026,3.02h0.424l1.031-2.969v2.969h0.452v-3.548h-0.631L195.197,58.108z"/>
	<g>
		<g class="st1">
			<path class="st2" d="M77.326,66.652c0-1.4-16.124-2.535-36.014-2.535S5.298,65.252,5.298,66.652c0,0.834,5.721,1.574,14.55,2.036
				c-0.146,0.077-0.225,0.157-0.225,0.239c0,0.634,4.618,1.147,10.315,1.147c4.896,0,8.991-0.379,10.048-0.888
				c0.441,0.001,0.882,0.002,1.327,0.002c1.322,0,2.628-0.005,3.914-0.015c1.012,0.515,5.137,0.901,10.074,0.901
				c5.697,0,10.315-0.514,10.315-1.147c0-0.129-0.195-0.253-0.549-0.369C72.582,68.093,77.326,67.412,77.326,66.652z"/>
		</g>
		<g>
			<path class="st3" d="M70.173,20.346c0.608,0.264,1.165,0.714,1.827,0.739c0.073,0.003,0.143,0.003,0.211,0.001
				c1.623-0.04,1.535-1.325,2.409-2.333c0.292-0.338,0.679-0.582,1.081-0.777c2.896-1.402,7.578,0.177,7.3,3.862
				c-0.092,1.22-0.629,2.363-1.257,3.412c-1.664,2.775-4.47,3.928-6.535,6.288c-0.488,0.558-1.041,1.054-1.594,1.546
				c-0.58,0.515-0.931,0.98-1.351,1.63c-1.024,1.59-2.23,3.091-3.274,4.685c-0.961,1.468-1.887,2.959-2.776,4.472
				c-0.356,0.607-1.2,2.653-2.188,2.364c-1.105-0.322-0.692-3.535-1.156-4.382c-0.846-1.546-1.575-2.39-1.392-4.288
				c0.101-1.048,0.586-1.897,1.217-2.699c0.398-0.507,0.722-1.096,1.077-1.633c0.202-0.307,0.969-1.118,0.969-1.471
				C65.243,31,65.7,30.16,66.308,29.48c0.734-0.82,1.357-1.751,1.974-2.671c0.303-0.452,0.598-0.93,0.682-1.467
				c0.12-0.766-0.247-1.34-0.427-2.046C68.226,22.075,68.135,19.46,70.173,20.346z"/>
		</g>
		<g>
			<path d="M64.423,46.813c0.42-0.686,0.828-1.379,1.231-2.074c0.407-0.693,0.806-1.39,1.203-2.09
				c0.796-1.397,1.578-2.804,2.417-4.183c0.842-1.376,1.734-2.73,2.728-4.014c0.995-1.283,2.09-2.496,3.288-3.602
				c0.598-0.555,1.22-1.082,1.865-1.582c0.628-0.492,1.239-0.993,1.819-1.527c0.579-0.533,1.126-1.096,1.613-1.698
				c0.249-0.297,0.468-0.611,0.677-0.929c0.199-0.323,0.384-0.652,0.528-0.994c0.289-0.684,0.444-1.406,0.404-2.133
				c-0.033-0.728-0.244-1.451-0.53-2.165c-0.143-0.357-0.307-0.712-0.479-1.067c-0.173-0.355-0.353-0.719-0.533-1.07
				c-0.18-0.353-0.364-0.698-0.562-1.017c-0.198-0.318-0.414-0.611-0.652-0.81c-0.239-0.201-0.484-0.299-0.789-0.309
				c-0.304-0.01-0.652,0.064-1,0.177c-0.088,0.03-0.175,0.058-0.263,0.093l-0.131,0.05c-0.039,0.017-0.079,0.032-0.117,0.05
				c-0.153,0.07-0.295,0.152-0.424,0.249c-0.258,0.193-0.467,0.449-0.641,0.756c-0.345,0.618-0.557,1.382-0.758,2.144
				c-0.053,0.201-0.091,0.358-0.121,0.543c-0.029,0.181-0.049,0.367-0.065,0.56c-0.036,0.387-0.034,0.787-0.125,1.257
				c-0.05,0.232-0.126,0.508-0.345,0.766c-0.109,0.126-0.252,0.232-0.4,0.3c-0.148,0.067-0.295,0.103-0.431,0.119
				c-0.273,0.032-0.511,0.006-0.736-0.03c-0.112-0.019-0.222-0.041-0.328-0.067l-0.16-0.041c-0.068-0.019-0.133-0.04-0.193-0.065
				c-0.242-0.097-0.437-0.222-0.618-0.348c-0.181-0.126-0.346-0.259-0.506-0.389c-0.319-0.262-0.617-0.526-0.918-0.757
				c-0.296-0.228-0.615-0.434-0.874-0.491c-0.129-0.028-0.22-0.02-0.306,0.019c-0.087,0.038-0.185,0.126-0.275,0.25
				c-0.09,0.124-0.168,0.28-0.227,0.424c-0.054,0.148-0.084,0.298-0.091,0.453c-0.018,0.31,0.079,0.649,0.213,1.003
				c0.135,0.356,0.31,0.728,0.445,1.142c0.066,0.208,0.125,0.425,0.158,0.653c0.032,0.228,0.04,0.464,0.02,0.699
				c-0.049,0.471-0.218,0.918-0.452,1.296c-0.059,0.095-0.117,0.19-0.183,0.277c-0.065,0.09-0.129,0.178-0.187,0.254
				c-0.119,0.159-0.24,0.314-0.358,0.477c-0.949,1.288-1.885,2.598-2.821,3.904l-2.815,3.92c-0.471,0.652-0.946,1.303-1.431,1.946
				c-0.487,0.644-0.966,1.288-1.492,1.912L59.4,38.81c0.49-0.623,0.949-1.285,1.411-1.941l1.371-1.981l2.717-3.984
				c0.907-1.329,1.802-2.663,2.738-3.981c0.116-0.165,0.239-0.329,0.358-0.494c0.064-0.085,0.116-0.16,0.167-0.235
				c0.055-0.074,0.1-0.152,0.146-0.229c0.184-0.309,0.295-0.636,0.325-0.966c0.024-0.331-0.037-0.67-0.16-1.018
				c-0.119-0.348-0.292-0.704-0.45-1.096c-0.153-0.391-0.305-0.839-0.291-1.338c0.006-0.246,0.052-0.495,0.134-0.726
				c0.089-0.23,0.189-0.437,0.333-0.641c0.143-0.201,0.338-0.409,0.617-0.542c0.138-0.066,0.292-0.107,0.444-0.119
				c0.151-0.012,0.297,0.002,0.43,0.03c0.267,0.058,0.487,0.165,0.686,0.277c0.199,0.114,0.378,0.239,0.547,0.367
				c0.339,0.255,0.646,0.522,0.951,0.767c0.3,0.242,0.614,0.478,0.884,0.583c0.033,0.013,0.064,0.023,0.093,0.03l0.132,0.031
				c0.09,0.02,0.177,0.036,0.264,0.049c0.172,0.026,0.338,0.034,0.465,0.016c0.064-0.008,0.112-0.025,0.148-0.042
				c0.035-0.018,0.055-0.035,0.077-0.061c0.044-0.049,0.094-0.171,0.122-0.331c0.058-0.321,0.064-0.73,0.096-1.143
				c0.016-0.208,0.036-0.422,0.069-0.638c0.031-0.213,0.086-0.447,0.135-0.635c0.1-0.396,0.206-0.793,0.336-1.193
				c0.131-0.4,0.285-0.804,0.504-1.2c0.219-0.394,0.52-0.78,0.906-1.072c0.191-0.146,0.399-0.267,0.611-0.366
				c0.053-0.025,0.107-0.047,0.16-0.07l0.15-0.059c0.099-0.04,0.203-0.075,0.304-0.111c0.413-0.136,0.861-0.25,1.363-0.233
				c0.249,0.008,0.511,0.057,0.757,0.155c0.246,0.096,0.468,0.238,0.656,0.398c0.378,0.322,0.634,0.693,0.861,1.055
				c0.225,0.365,0.418,0.73,0.603,1.094c0.186,0.366,0.362,0.722,0.54,1.09c0.177,0.368,0.35,0.744,0.506,1.133
				c0.313,0.775,0.552,1.621,0.583,2.504c0.039,0.884-0.165,1.771-0.511,2.561c-0.173,0.397-0.388,0.768-0.615,1.126
				c-0.237,0.35-0.482,0.694-0.754,1.01c-0.537,0.641-1.13,1.218-1.744,1.76c-0.615,0.542-1.26,1.046-1.909,1.532
				c-0.636,0.473-1.249,0.976-1.847,1.498c-2.396,2.085-4.369,4.621-6.133,7.293c-0.887,1.336-1.742,2.697-2.602,4.057
				c-0.43,0.68-0.863,1.358-1.303,2.032C65.338,45.488,64.885,46.154,64.423,46.813z"/>
		</g>
		<g>
			<path class="st3" d="M19.33,63.613c-0.316,0.501-0.58,1.035-0.891,1.533c-0.235,0.377-0.274,0.781-0.661,1.057
				c-0.745,0.533-1.171,0.356-2.013,0.174c-0.798-0.173-1.581-0.406-2.351-0.675c-0.796-0.278-1.671-0.008-2.488,0.112
				c-0.762,0.112-1.496,0.539-2.242,0.736c-1.134,0.3-2.29,0.168-3.388-0.209c-0.726-0.249-2.873-2.054-1.38-2.752
				c0.672-0.314,1.422-0.572,2.117-0.85c0.631-0.252,1.296-0.572,1.926-0.882c0.6-0.296,1.267-0.408,1.778-0.861
				c0.495-0.439,1.043-0.706,1.621-1.04c0.761-0.439,1.498-0.917,2.208-1.433c0.376-0.273,0.793-0.497,1.158-0.783
				c0.293-0.23,0.473-0.52,0.718-0.804c0.704-0.817,1.444-1.621,2.14-2.43c0.754-0.877,1.244-2.235,1.664-3.3
				c0.506-1.281,1.026-2.599,1.2-3.973c0.144-1.143,0.158-2.331,0.543-3.429c0.287-0.819,1.469-1.648,2.362-1.447
				c0.723,0.163,1.397,0.811,2.148,1.043c1.847,0.57,2.538,2.071,2.741,3.867c0.23,2.032-0.81,3.527-1.727,5.248
				c-1.19,2.232-1.8,4.742-3.135,6.9c-0.528,0.853-1.188,1.637-1.996,2.237C20.568,62.255,19.888,62.728,19.33,63.613z"/>
		</g>
		<g>
			<path d="M20.69,41.061c0.123,0.791,0.207,1.591,0.231,2.395c0.021,0.803-0.004,1.61-0.079,2.412
				c-0.148,1.606-0.491,3.202-1.053,4.727c-0.278,0.763-0.605,1.509-0.978,2.232c-0.374,0.723-0.801,1.419-1.266,2.088
				c-0.932,1.337-2.018,2.566-3.24,3.652c-1.227,1.086-2.604,2.002-4.059,2.744c-1.453,0.748-2.999,1.298-4.494,1.835
				c-0.371,0.137-0.739,0.275-1.078,0.43c-0.169,0.078-0.33,0.16-0.47,0.249c-0.136,0.088-0.254,0.186-0.302,0.262
				c-0.052,0.078-0.052,0.106-0.044,0.195c0.018,0.09,0.074,0.223,0.164,0.357c0.086,0.137,0.205,0.272,0.316,0.401
				c0.119,0.123,0.242,0.24,0.378,0.341c0.269,0.202,0.574,0.353,0.905,0.451c0.333,0.097,0.689,0.144,1.056,0.158
				c0.735,0.025,1.505-0.085,2.278-0.221c0.776-0.137,1.561-0.307,2.372-0.434c0.203-0.032,0.407-0.061,0.613-0.085
				c0.105-0.011,0.196-0.027,0.342-0.032c0.13-0.004,0.249,0.003,0.365,0.013c0.457,0.047,0.858,0.146,1.255,0.248
				c0.788,0.205,1.548,0.442,2.29,0.579c0.365,0.066,0.74,0.107,1.024,0.064c0.141-0.021,0.235-0.067,0.275-0.107
				c0.022-0.022,0.037-0.038,0.055-0.081c0.042-0.097,0.084-0.194,0.129-0.288c0.354-0.758,0.774-1.474,1.268-2.149
				c0.497-0.67,1.069-1.304,1.775-1.818c0.353-0.254,0.746-0.473,1.174-0.627c0.432-0.147,0.896-0.227,1.368-0.191
				c0.244,0.017,0.485,0.073,0.705,0.153c0.219,0.078,0.423,0.184,0.58,0.255c0.073,0.035,0.148,0.055,0.126,0.049
				c-0.005,0.001-0.049,0.003-0.076,0.019c-0.03,0.019-0.036,0.025-0.032,0.023c0.011-0.008,0.046-0.073,0.072-0.141
				c0.029-0.069,0.054-0.155,0.079-0.24c0.048-0.17,0.09-0.369,0.124-0.543c0.015-0.071,0.018-0.133,0.016-0.162
				c-0.006-0.032,0.004-0.001,0.022,0.009c0.016,0.008-0.013-0.014-0.076-0.025c-0.061-0.013-0.146-0.019-0.241-0.024
				c-0.095-0.005-0.2-0.007-0.319-0.018c-0.119-0.013-0.256-0.026-0.427-0.102c-0.084-0.039-0.178-0.1-0.255-0.188
				c-0.077-0.088-0.129-0.195-0.154-0.29c-0.049-0.194-0.029-0.342-0.008-0.471c0.024-0.128,0.061-0.245,0.093-0.337l0.097-0.294
				c0.062-0.199,0.136-0.384,0.205-0.575c0.069-0.191,0.14-0.38,0.214-0.567c0.587-1.5,1.214-2.973,1.85-4.446
				c0.637-1.471,1.288-2.935,1.951-4.393c0.33-0.73,0.669-1.457,1.014-2.18c0.348-0.723,0.691-1.445,1.074-2.16l0.343,0.179
				c-0.694,1.427-1.309,2.91-1.944,4.374c-0.628,1.47-1.243,2.947-1.845,4.427c-0.6,1.481-1.192,2.967-1.737,4.461
				c-0.07,0.186-0.137,0.373-0.201,0.559c-0.064,0.187-0.135,0.374-0.189,0.559l-0.087,0.278c-0.032,0.098-0.051,0.173-0.061,0.242
				c-0.011,0.066-0.004,0.124,0,0.124c0.001,0.001-0.004-0.016-0.014-0.028c-0.011-0.013-0.019-0.018-0.012-0.016
				c0.013,0.006,0.078,0.019,0.158,0.022c0.08,0.004,0.175,0.004,0.28,0.004c0.106,0.001,0.221,0.004,0.357,0.023
				c0.133,0.022,0.303,0.059,0.476,0.194c0.085,0.066,0.159,0.158,0.207,0.253c0.049,0.095,0.075,0.189,0.089,0.274
				c0.025,0.17,0.012,0.309-0.006,0.435c-0.039,0.22-0.078,0.413-0.135,0.629c-0.029,0.107-0.059,0.214-0.105,0.331
				c-0.047,0.117-0.094,0.238-0.21,0.385c-0.063,0.073-0.138,0.153-0.261,0.213c-0.116,0.059-0.261,0.084-0.366,0.076
				c-0.223-0.016-0.336-0.078-0.446-0.12c-0.208-0.093-0.362-0.169-0.521-0.223c-0.157-0.054-0.309-0.086-0.466-0.095
				c-0.328-0.02-0.667,0.04-0.99,0.154c-0.324,0.122-0.636,0.297-0.93,0.514c-0.586,0.436-1.097,1.007-1.544,1.626
				c-0.447,0.62-0.838,1.293-1.156,1.986c-0.04,0.087-0.077,0.174-0.114,0.261c-0.057,0.142-0.157,0.296-0.279,0.412
				c-0.251,0.241-0.552,0.335-0.803,0.377c-0.511,0.076-0.943,0.012-1.363-0.056c-0.834-0.148-1.606-0.386-2.369-0.576
				c-0.378-0.093-0.757-0.184-1.098-0.218c-0.084-0.008-0.165-0.012-0.235-0.01c-0.054,0-0.16,0.015-0.255,0.025
				c-0.191,0.022-0.383,0.049-0.576,0.079c-0.771,0.119-1.551,0.287-2.352,0.428c-0.8,0.138-1.626,0.262-2.492,0.233
				c-0.432-0.016-0.875-0.073-1.311-0.2c-0.435-0.129-0.86-0.338-1.23-0.617c-0.186-0.138-0.354-0.297-0.512-0.463
				c-0.076-0.085-0.148-0.172-0.221-0.26c-0.069-0.09-0.136-0.184-0.201-0.283c-0.127-0.201-0.25-0.435-0.306-0.739
				c-0.024-0.154-0.025-0.326,0.013-0.495c0.037-0.17,0.116-0.324,0.205-0.448c0.182-0.254,0.393-0.4,0.591-0.529
				c0.2-0.124,0.397-0.221,0.592-0.309c0.391-0.174,0.774-0.313,1.155-0.45c0.762-0.27,1.511-0.523,2.248-0.807
				c0.737-0.283,1.457-0.593,2.162-0.937c1.408-0.687,2.732-1.534,3.922-2.549c1.187-1.022,2.278-2.168,3.214-3.429
				c0.937-1.262,1.721-2.639,2.323-4.097c0.598-1.459,1.028-2.995,1.26-4.567C20.781,44.261,20.822,42.657,20.69,41.061z"/>
		</g>
		<g>
			<g>
				<path class="st4" d="M23.815,53.098c0.264,1.345,6.328,11.535,13.178,12.815c-0.406-1.108-0.492-1.587-0.492-1.587
					s5.129,2.926,16.527,0.316c-0.793-0.281-1.54-0.779-1.54-0.779s7.752-2.145,10.402-7.446c3.067-6.14-7.781-3.533-7.781-3.533
					l-24.972-1.83L23.815,53.098z"/>
			</g>
			<g>
				<path d="M23.922,53.157c0.022,0,0.03-0.022,0.029-0.02l0.02,0.066c0.016,0.044,0.03,0.088,0.049,0.133
					c0.035,0.089,0.074,0.177,0.114,0.266c0.081,0.177,0.17,0.35,0.261,0.523c0.184,0.346,0.38,0.686,0.584,1.022
					c0.408,0.672,0.844,1.327,1.301,1.967c0.914,1.279,1.911,2.501,2.994,3.637c1.084,1.133,2.258,2.185,3.548,3.06
					c1.288,0.87,2.708,1.568,4.218,1.842l0,0l-0.297,0.35c-0.074-0.271-0.144-0.543-0.207-0.818
					c-0.032-0.137-0.061-0.275-0.088-0.413c-0.027-0.14-0.052-0.275-0.07-0.424v-0.001l-0.045-0.242l0.226,0.114
					c0.603,0.303,1.277,0.515,1.944,0.69c0.672,0.172,1.355,0.304,2.043,0.398c1.377,0.191,2.771,0.244,4.161,0.213
					c1.391-0.034,2.778-0.165,4.157-0.36c1.378-0.196,2.745-0.466,4.1-0.788l0,0l-0.03,0.531c-0.278-0.127-0.539-0.273-0.79-0.43
					c-0.251-0.158-0.491-0.324-0.726-0.507l0,0l-0.211-0.141l0.247-0.079c0.964-0.309,1.915-0.692,2.836-1.123
					c0.921-0.432,1.82-0.912,2.674-1.459c0.853-0.548,1.665-1.158,2.405-1.843c0.738-0.687,1.399-1.455,1.922-2.307
					c0.257-0.427,0.494-0.872,0.663-1.333c0.172-0.457,0.283-0.94,0.232-1.392c-0.026-0.225-0.097-0.437-0.212-0.624
					c-0.116-0.186-0.28-0.344-0.47-0.475c-0.381-0.261-0.858-0.406-1.341-0.497c-0.975-0.173-1.996-0.148-3.002-0.063
					c-1.007,0.092-2.018,0.251-3.002,0.473l-0.036,0.008l-0.033-0.003l-12.483-0.947l-12.481-0.985l0,0l0.053-0.008
					C27.43,51.841,25.683,52.5,23.922,53.157z M23.708,53.039c1.785-0.704,3.585-1.409,5.383-2.099l0.025-0.01l0.028,0.002l0,0
					l12.491,0.846l12.488,0.883l-0.069,0.006c1.016-0.231,2.032-0.393,3.066-0.49c1.031-0.089,2.079-0.121,3.127,0.061
					c0.52,0.097,1.05,0.249,1.52,0.567c0.232,0.159,0.447,0.362,0.603,0.61c0.155,0.249,0.249,0.534,0.282,0.817
					c0.063,0.572-0.071,1.115-0.256,1.613c-0.187,0.501-0.437,0.964-0.711,1.411c-0.555,0.892-1.249,1.686-2.015,2.39
					c-0.765,0.707-1.61,1.318-2.491,1.86c-0.882,0.541-1.801,1.019-2.747,1.43c-0.949,0.408-1.912,0.772-2.912,1.045l0.035-0.22l0,0
					c0.249,0.131,0.511,0.251,0.772,0.356c0.262,0.106,0.528,0.196,0.793,0.264l0.966,0.248l-0.997,0.283l0,0
					c-1.375,0.301-2.762,0.548-4.16,0.721c-1.397,0.172-2.805,0.279-4.213,0.288c-1.409,0.006-2.82-0.073-4.215-0.293
					c-0.697-0.109-1.388-0.255-2.069-0.443c-0.681-0.194-1.349-0.413-1.992-0.752l0.181-0.128l0,0
					c0.037,0.123,0.085,0.255,0.133,0.382c0.049,0.128,0.1,0.255,0.153,0.382c0.106,0.254,0.218,0.504,0.335,0.754l0.194,0.416
					l-0.491-0.066l0,0c-1.606-0.317-3.07-1.072-4.381-1.984c-1.313-0.92-2.489-2.008-3.57-3.173
					c-1.079-1.168-2.067-2.416-2.971-3.721c-0.451-0.653-0.882-1.32-1.284-2.005c-0.201-0.343-0.395-0.689-0.576-1.044
					c-0.09-0.177-0.178-0.357-0.259-0.54c-0.04-0.092-0.081-0.184-0.116-0.28c-0.018-0.047-0.035-0.097-0.052-0.146l-0.023-0.076
					C23.7,53.157,23.697,53.087,23.708,53.039z"/>
			</g>
		</g>
		<g>
			<path class="st5" d="M29.166,49.555c-2.043,3.38,1.626,9.924,5.856,11.487c-0.305-1.018,0.251-2.309,0.251-2.309
				s0.525,5.39,11.162,4.581c-0.651-0.414-1.233-1.54-0.954-1.448c4.15,1.354,8.753-1.315,8.274-1.63
				c-1.232-0.81,1.512-0.433,4.285-3.715c-3.654-1.448-2.757-7.052-2.757-7.052l-5.336-0.55l-16.309-0.095L29.166,49.555z"/>
		</g>
		<g>
			<g>
				<path class="st4" d="M23.887,52.364c-4.976-8.102-4.234-14.888-3.185-19.993c0,0,0.894,0.994,1.962,1.2
					c-0.598-1.847-1.197-3.994-0.199-6.612l1.326,1.114c0,0-0.315-6.52,8.392-10.51l-0.584,2.963c0,0,4.53-7.952,21.571-4.076
					c-1.791,1.098-2.566,2.68-2.566,2.68s9.15-2.906,15.003,9.347c-1.598-0.937-2.963-0.673-2.963-0.673s6.175,6.316,4.321,14.087
					l-1.139-1.262c0,0,1.127,7.314-2.895,12.905c0,0-3.892-3.853-9.851-3.811s-21-0.932-21.918-0.762
					C30.244,49.134,23.887,52.364,23.887,52.364z"/>
			</g>
			<g>
				<path d="M23.853,52.485c-0.266-0.374-0.545-0.815-0.741-1.177c-0.22-0.376-0.42-0.763-0.625-1.147
					c-0.396-0.776-0.758-1.57-1.082-2.381c-0.649-1.621-1.124-3.314-1.409-5.041c-0.284-1.727-0.374-3.487-0.285-5.236
					c0.084-1.75,0.343-3.486,0.679-5.195l0.118-0.6l0.43,0.451l0,0c0.101,0.131,0.232,0.276,0.362,0.404
					c0.131,0.13,0.271,0.253,0.417,0.367c0.292,0.227,0.617,0.414,0.971,0.52l-0.143,0.161l0,0
					c-0.376-1.063-0.714-2.166-0.807-3.322c-0.048-0.576-0.035-1.16,0.042-1.737c0.077-0.577,0.219-1.146,0.41-1.696l0.133-0.384
					l0.33,0.264l0,0l1.217,1.243l-0.206,0.102l0,0c-0.011-0.312,0.011-0.608,0.045-0.907c0.034-0.299,0.087-0.595,0.151-0.887
					c0.129-0.586,0.312-1.161,0.543-1.715c0.23-0.555,0.507-1.091,0.822-1.604c0.317-0.511,0.674-0.997,1.06-1.459
					c0.382-0.466,0.81-0.889,1.248-1.302c0.226-0.198,0.446-0.403,0.685-0.588l0.352-0.283l0.363-0.267
					c0.972-0.708,2.015-1.313,3.098-1.83l0.628-0.3l-0.125,0.697l0,0l-0.814,2.918l-0.23-0.087l0,0
					c0.265-0.433,0.584-0.8,0.924-1.155c0.342-0.351,0.711-0.673,1.097-0.974c0.776-0.595,1.621-1.1,2.509-1.506
					c0.887-0.409,1.812-0.733,2.756-0.983c0.945-0.245,1.907-0.416,2.874-0.538c1.937-0.219,3.895-0.23,5.833-0.068
					c1.939,0.16,3.863,0.471,5.762,0.881l0.775,0.167l-0.673,0.449h-0.001c-0.26,0.146-0.519,0.298-0.761,0.476
					c-0.247,0.173-0.479,0.367-0.702,0.573c-0.224,0.205-0.434,0.427-0.631,0.661c-0.196,0.232-0.383,0.482-0.536,0.737l-0.15-0.174
					h0.001c0.794-0.23,1.6-0.318,2.413-0.336c0.812-0.014,1.626,0.063,2.424,0.223c1.597,0.319,3.12,0.992,4.462,1.917
					c1.344,0.925,2.516,2.086,3.512,3.369c1.002,1.282,1.839,2.684,2.556,4.137l0.49,0.994l-1-0.526l0,0
					c-0.2-0.134-0.406-0.266-0.624-0.372c-0.216-0.114-0.444-0.201-0.677-0.281c-0.234-0.076-0.475-0.133-0.72-0.17
					c-0.242-0.037-0.499-0.054-0.735-0.037l0.066-0.21l0,0c0.894,0.938,1.656,1.976,2.334,3.072
					c0.674,1.098,1.245,2.263,1.678,3.483c0.432,1.22,0.721,2.498,0.822,3.798c0.105,1.3,0.009,2.619-0.276,3.899l0,0l-0.23,0.646
					l-0.348-0.498l-0.982-1.404l0,0l0.216-0.103c0.163,1.131,0.203,2.264,0.174,3.4c-0.035,1.135-0.149,2.269-0.364,3.389
					c-0.214,1.119-0.522,2.224-0.949,3.287c-0.418,1.067-0.97,2.084-1.622,3.033l0,0l-0.208,0.3l-0.272-0.261
					c-0.283-0.272-0.614-0.542-0.942-0.79c-0.332-0.25-0.675-0.487-1.027-0.708c-0.706-0.442-1.445-0.833-2.214-1.154
					c-0.766-0.326-1.563-0.58-2.374-0.771c-0.812-0.184-1.64-0.297-2.472-0.333c-0.208-0.008-0.415-0.009-0.625-0.013l-0.64-0.003
					l-1.277-0.02c-0.851-0.019-1.701-0.047-2.551-0.078c-1.699-0.062-3.397-0.141-5.094-0.223c-3.394-0.163-6.787-0.36-10.179-0.509
					c-0.424-0.018-0.848-0.032-1.27-0.043c-0.211-0.004-0.423-0.008-0.629-0.004c-0.108,0.004-0.193,0.001-0.281,0.027
					c-0.09,0.023-0.189,0.058-0.286,0.093c-0.781,0.297-1.553,0.661-2.321,1.016c-0.768,0.36-1.533,0.728-2.296,1.099l-1.146,0.564
					l-0.571,0.283l-0.285,0.142l-0.143,0.071l-0.071,0.035l-0.035,0.018l-0.02,0.01C23.928,52.484,23.885,52.49,23.853,52.485z
					 M23.921,52.244c-0.02-0.011-0.052-0.011-0.071-0.001l0.016-0.008l0.035-0.018l0.071-0.036l0.142-0.073l0.284-0.145l0.569-0.288
					l1.139-0.572c0.761-0.379,1.523-0.755,2.29-1.123c0.77-0.365,1.533-0.733,2.337-1.048c0.102-0.038,0.203-0.076,0.319-0.106
					c0.117-0.035,0.247-0.035,0.35-0.04c0.219-0.007,0.431-0.004,0.645-0.002c0.427,0.006,0.852,0.018,1.277,0.031
					c3.399,0.117,6.792,0.282,10.186,0.413c1.697,0.066,3.394,0.129,5.091,0.175c0.848,0.023,1.696,0.043,2.544,0.054l1.271,0.008
					l0.634-0.004c0.215,0.002,0.432,0.001,0.649,0.007c0.865,0.03,1.729,0.14,2.575,0.323c0.845,0.19,1.676,0.446,2.475,0.778
					c0.802,0.326,1.573,0.725,2.311,1.178c0.369,0.227,0.728,0.47,1.077,0.728c0.351,0.261,0.683,0.525,1.016,0.838l-0.48,0.04l0,0
					c0.648-0.889,1.207-1.85,1.64-2.87c0.442-1.016,0.773-2.083,1.013-3.17c0.242-1.088,0.385-2.198,0.451-3.315
					c0.061-1.114,0.052-2.243-0.075-3.347l-0.047-0.402l0.263,0.3l0,0l1.297,1.12l-0.578,0.148l0,0
					c0.303-1.205,0.43-2.458,0.364-3.706c-0.063-1.248-0.307-2.489-0.693-3.687c-0.387-1.198-0.914-2.353-1.546-3.45
					c-0.634-1.092-1.365-2.144-2.207-3.079l0,0l-0.178-0.154l0.244-0.056c0.275-0.063,0.536-0.082,0.807-0.085
					c0.269,0,0.54,0.02,0.807,0.064c0.266,0.047,0.534,0.105,0.793,0.194c0.261,0.082,0.513,0.191,0.762,0.309l0,0l-0.509,0.468
					c-0.664-1.434-1.445-2.817-2.385-4.082c-0.935-1.267-2.038-2.415-3.312-3.338c-1.272-0.923-2.72-1.607-4.258-1.955
					c-0.768-0.173-1.556-0.268-2.345-0.273c-0.786-0.004-1.588,0.066-2.339,0.265h-0.001l-0.279,0.108l0.129-0.282
					c0.137-0.3,0.297-0.572,0.475-0.84c0.178-0.266,0.371-0.524,0.583-0.768c0.211-0.244,0.435-0.478,0.678-0.694
					c0.239-0.221,0.499-0.418,0.766-0.61h0.001l0.102,0.617c-1.867-0.439-3.758-0.779-5.663-0.972
					c-1.905-0.195-3.827-0.218-5.731-0.039c-0.95,0.102-1.895,0.252-2.824,0.475c-0.927,0.227-1.836,0.528-2.71,0.911
					c-0.875,0.381-1.706,0.858-2.473,1.423c-0.381,0.285-0.746,0.592-1.084,0.927c-0.333,0.333-0.657,0.697-0.903,1.084l0,0
					l-0.319,0.661l0.088-0.747l0.354-3.009l0,0l0.502,0.396c-1.065,0.466-2.092,1.017-3.052,1.669l-0.359,0.246l-0.348,0.261
					c-0.235,0.17-0.453,0.361-0.678,0.544c-0.434,0.383-0.86,0.778-1.243,1.214c-0.386,0.432-0.745,0.889-1.067,1.371
					c-0.32,0.484-0.603,0.992-0.843,1.52c-0.242,0.528-0.436,1.077-0.58,1.64c-0.143,0.559-0.243,1.146-0.247,1.712l0,0l0.04,0.27
					l-0.244-0.168l-1.434-0.985l0,0l0.463-0.12c-0.203,0.506-0.362,1.029-0.462,1.565s-0.139,1.084-0.122,1.634
					c0.032,1.102,0.304,2.193,0.627,3.269l0,0l0.078,0.189l-0.22-0.028c-0.41-0.051-0.803-0.199-1.163-0.392
					c-0.18-0.098-0.355-0.206-0.522-0.325c-0.17-0.121-0.325-0.24-0.49-0.393l0,0l0.548-0.149c-0.365,1.686-0.649,3.385-0.763,5.098
					c-0.119,1.712-0.062,3.437,0.184,5.136c0.247,1.7,0.682,3.373,1.293,4.984c0.304,0.805,0.647,1.597,1.025,2.372
					c0.196,0.384,0.386,0.771,0.598,1.148c0.102,0.188,0.211,0.386,0.302,0.545C23.746,51.888,23.831,52.061,23.921,52.244z"/>
			</g>
		</g>
		<g>
			
				<ellipse transform="matrix(0.0207 -0.9998 0.9998 0.0207 2.2736 82.7797)" class="st6" cx="43.392" cy="40.229" rx="10.372" ry="5.342"/>
		</g>
		<g>
			<path class="st7" d="M36.627,28.615c-10.036-2.343-11.884,5.677-11.884,5.677s-1.571-1.322-1.424-5.353
				c1.096,2.95,2.041,3.264,2.714,3.452c0.261,0.072,0,0-0.107-0.248c-1.869-4.315,1.349-10.262,4.521-12.283
				c-0.937,3.138-0.504,5.025,0.333,7.235c0.166-0.658-0.507-10.319,18.891-9.916c0,0-2.542,2.564-2.699,4.779
				c3.231-1.818,10.855-0.652,16.365,4.34c0,0-2.662-0.744-3.58,0.627c4.595,2.813,6.946,8.335,6.297,12.18
				c-1.639-2.034-7.11-10.503-9.401-8.336c-3.196-3.611-10.307,0.318-13.021,5.208C43.632,35.975,38.644,29.086,36.627,28.615z"/>
		</g>
		<g>
			<g>
				<path class="st0" d="M40.409,38.953c0.151,5.271-0.523,9.743-4.739,10.322c-3.276,0.451-6.498-3.58-7.349-8.258
					c-0.95-5.224-1.284-9.735,4.661-11.291C38.927,28.172,40.208,31.923,40.409,38.953z"/>
			</g>
			<g>
				<path d="M40.607,38.948c0.039,1.11,0.045,2.223-0.025,3.339c-0.074,1.113-0.22,2.234-0.555,3.321
					c-0.17,0.542-0.388,1.075-0.685,1.572c-0.295,0.497-0.67,0.957-1.126,1.33c-0.454,0.375-0.985,0.654-1.541,0.835
					c-0.278,0.09-0.562,0.158-0.848,0.203c-0.288,0.049-0.592,0.069-0.889,0.052c-0.597-0.028-1.177-0.198-1.704-0.45
					c-0.529-0.251-1.008-0.586-1.438-0.966c-0.858-0.763-1.546-1.684-2.086-2.672c-0.542-0.988-0.952-2.042-1.236-3.123
					c-0.141-0.54-0.25-1.093-0.338-1.64c-0.09-0.547-0.173-1.095-0.244-1.646c-0.143-1.1-0.244-2.211-0.197-3.328
					c0.047-1.111,0.271-2.247,0.841-3.233c0.286-0.489,0.654-0.93,1.079-1.303c0.424-0.377,0.907-0.677,1.411-0.925
					c0.504-0.249,1.034-0.438,1.57-0.589c0.538-0.15,1.082-0.269,1.636-0.345c0.553-0.071,1.115-0.107,1.674-0.055
					c0.557,0.054,1.115,0.194,1.618,0.458c0.503,0.263,0.936,0.651,1.274,1.103c0.34,0.453,0.596,0.959,0.798,1.482
					c0.401,1.05,0.605,2.156,0.75,3.258C40.489,36.729,40.56,37.839,40.607,38.948z M40.21,38.959
					c-0.019-1.103-0.061-2.205-0.173-3.298c-0.115-1.091-0.289-2.184-0.654-3.214c-0.185-0.512-0.417-1.01-0.738-1.447
					c-0.318-0.437-0.723-0.811-1.199-1.068c-0.473-0.261-1.009-0.401-1.551-0.448c-0.543-0.049-1.093-0.016-1.634,0.07
					c-1.081,0.179-2.148,0.495-3.122,0.978c-0.486,0.245-0.942,0.545-1.351,0.899c-0.408,0.355-0.759,0.772-1.034,1.237
					c-0.557,0.93-0.798,2.026-0.854,3.117c-0.032,0.547-0.016,1.098,0.025,1.646c0.042,0.548,0.102,1.096,0.188,1.641
					c0.085,0.545,0.182,1.088,0.287,1.63c0.1,0.543,0.222,1.074,0.385,1.598c0.321,1.046,0.764,2.052,1.325,2.982
					c0.565,0.925,1.238,1.789,2.056,2.475c0.41,0.339,0.851,0.637,1.322,0.859c0.472,0.221,0.976,0.36,1.484,0.393
					c0.256,0.016,0.507,0.004,0.765-0.038c0.26-0.04,0.517-0.095,0.766-0.171c0.498-0.153,0.967-0.389,1.373-0.713
					c0.821-0.644,1.353-1.61,1.683-2.629c0.333-1.026,0.492-2.113,0.58-3.204C40.224,41.162,40.234,40.06,40.21,38.959z"/>
			</g>
		</g>
		<g>
			<path d="M41.948,38.719c0.266,5.3-0.584,9.309-4.807,9.827c-3.118,0.383-6.43-3.085-7.281-7.762
				c-0.95-5.224-1.284-9.735,4.661-11.291C40.465,27.937,41.563,31.058,41.948,38.719z"/>
			<path d="M36.657,48.679c-3.057,0-6.085-3.398-6.9-7.877c-0.966-5.312-1.277-9.836,4.737-11.411
				c2.331-0.61,3.939-0.511,5.062,0.311c1.767,1.294,2.265,4.407,2.497,9.011l0,0c0.152,3.021-0.079,5.166-0.728,6.751
				c-0.774,1.893-2.138,2.935-4.171,3.185C36.988,48.669,36.822,48.679,36.657,48.679z M37.109,29.208
				c-0.733,0-1.58,0.129-2.562,0.386c-5.841,1.529-5.532,5.964-4.585,11.172c0.84,4.615,4.055,8.057,7.165,7.677
				c3.577-0.439,5.031-3.436,4.715-9.718l0,0c-0.228-4.542-0.711-7.608-2.411-8.852C38.827,29.428,38.066,29.208,37.109,29.208z"/>
		</g>
		<g>
			<g>
				<path class="st0" d="M46.654,40.005c0.624,5.27,3.048,10,7.286,9.599c3.294-0.312,5.373-4.85,5.267-9.721
					c-0.11-5.078-0.978-9.771-7.124-9.925C45.937,29.806,45.697,31.94,46.654,40.005z"/>
			</g>
			<g>
				<path d="M46.834,39.983c0.142,1.098,0.361,2.185,0.678,3.241c0.318,1.054,0.732,2.082,1.289,3.019
					c0.556,0.933,1.265,1.784,2.156,2.361c0.887,0.579,1.958,0.823,3.007,0.703c0.512-0.055,1.007-0.231,1.453-0.497
					c0.447-0.266,0.843-0.622,1.195-1.022c0.699-0.806,1.201-1.789,1.564-2.814c0.362-1.029,0.586-2.109,0.698-3.2
					c0.058-0.545,0.088-1.095,0.089-1.644c-0.002-0.55-0.016-1.108-0.042-1.66c-0.057-1.105-0.168-2.208-0.422-3.276
					c-0.255-1.063-0.667-2.1-1.345-2.949c-0.337-0.424-0.741-0.793-1.193-1.093c-0.451-0.302-0.954-0.526-1.474-0.691
					c-0.521-0.165-1.065-0.265-1.612-0.324c-0.547-0.057-1.103-0.066-1.658-0.064c-0.554,0.005-1.108,0.034-1.652,0.114
					c-0.543,0.081-1.082,0.219-1.558,0.477c-0.478,0.254-0.874,0.643-1.124,1.122c-0.254,0.478-0.378,1.019-0.446,1.563
					c-0.131,1.094-0.064,2.209,0.026,3.315C46.556,37.771,46.693,38.878,46.834,39.983z M46.473,40.026
					c-0.119-1.111-0.233-2.222-0.307-3.34c-0.067-1.117-0.112-2.244,0.037-3.368c0.078-0.559,0.22-1.121,0.491-1.632
					c0.266-0.513,0.701-0.939,1.211-1.207c0.509-0.273,1.068-0.413,1.624-0.507c0.558-0.09,1.121-0.125,1.683-0.137
					c0.56-0.009,1.123-0.006,1.686,0.045c0.562,0.054,1.123,0.149,1.668,0.315c0.545,0.163,1.072,0.397,1.556,0.704
					c0.484,0.307,0.921,0.692,1.288,1.134c0.738,0.887,1.19,1.969,1.474,3.062c0.285,1.099,0.42,2.225,0.498,3.346
					c0.037,0.562,0.063,1.119,0.076,1.685c0.009,0.567-0.011,1.133-0.061,1.698c-0.105,1.129-0.326,2.251-0.695,3.332
					c-0.372,1.077-0.887,2.125-1.645,3.016c-0.379,0.444-0.824,0.842-1.338,1.145c-0.511,0.304-1.093,0.509-1.692,0.572
					c-0.586,0.062-1.185,0.032-1.761-0.109c-0.576-0.139-1.123-0.391-1.611-0.715c-0.98-0.656-1.717-1.585-2.28-2.574
					c-0.565-0.994-0.969-2.061-1.274-3.148C46.797,42.256,46.596,41.144,46.473,40.026z"/>
			</g>
		</g>
		<g>
			<g>
				<path d="M48.228,39.357c0.73,5.257,3.312,10.937,7.247,9.31c2.324-0.961,5.165-4.471,5.315-9.222
					c0.211-6.704-0.978-9.771-7.124-9.925S47.144,31.553,48.228,39.357z"/>
			</g>
			<g>
				<path d="M48.425,39.33c0.16,1.085,0.39,2.16,0.7,3.209c0.312,1.048,0.7,2.075,1.208,3.033c0.254,0.478,0.54,0.939,0.867,1.362
					c0.326,0.423,0.698,0.809,1.12,1.113c0.42,0.304,0.896,0.521,1.393,0.591c0.497,0.075,1.008-0.001,1.488-0.179
					c0.482-0.179,0.936-0.458,1.358-0.776c0.425-0.317,0.815-0.687,1.175-1.084c0.362-0.396,0.693-0.823,0.991-1.272
					c0.297-0.451,0.559-0.925,0.795-1.412c0.468-0.977,0.8-2.024,0.981-3.1c0.094-0.538,0.142-1.081,0.161-1.632
					c0.021-0.551,0.035-1.102,0.032-1.653c0-0.551-0.027-1.101-0.075-1.649c-0.05-0.547-0.119-1.094-0.243-1.627
					c-0.122-0.533-0.285-1.058-0.518-1.548c-0.234-0.49-0.535-0.946-0.913-1.329c-0.377-0.384-0.821-0.7-1.307-0.935
					c-0.486-0.237-1.006-0.404-1.536-0.527c-1.065-0.239-2.169-0.307-3.269-0.308c-0.55,0.003-1.101,0.025-1.642,0.107
					c-0.54,0.081-1.078,0.21-1.561,0.454c-0.483,0.241-0.897,0.609-1.169,1.071c-0.276,0.461-0.417,0.994-0.494,1.531
					c-0.076,0.538-0.09,1.087-0.078,1.635c0.013,0.548,0.054,1.096,0.107,1.645C48.103,37.145,48.26,38.238,48.425,39.33z
					 M48.031,39.384c-0.137-1.099-0.266-2.2-0.345-3.308c-0.039-0.554-0.066-1.11-0.064-1.668c0.002-0.557,0.029-1.118,0.122-1.672
					c0.094-0.552,0.255-1.106,0.553-1.595c0.297-0.49,0.748-0.877,1.258-1.122c0.511-0.244,1.06-0.384,1.611-0.466
					c0.552-0.081,1.108-0.117,1.664-0.132c1.108-0.022,2.23,0.012,3.327,0.251c0.547,0.117,1.088,0.29,1.595,0.543
					c0.507,0.25,0.978,0.583,1.37,0.995c0.393,0.411,0.701,0.895,0.936,1.407c0.235,0.512,0.397,1.052,0.515,1.597
					c0.237,1.093,0.311,2.206,0.345,3.315c0.018,0.555,0.019,1.11,0.012,1.664c-0.008,0.555-0.034,1.117-0.104,1.672
					c-0.138,1.113-0.43,2.209-0.872,3.248c-0.439,1.04-1.043,2.013-1.786,2.876c-0.754,0.846-1.653,1.609-2.769,2.022
					c-0.556,0.199-1.176,0.281-1.773,0.181c-0.599-0.095-1.154-0.365-1.621-0.714c-0.469-0.353-0.865-0.778-1.208-1.234
					c-0.343-0.456-0.636-0.943-0.894-1.445c-0.515-1.004-0.899-2.061-1.202-3.136C48.399,41.585,48.179,40.49,48.031,39.384z"/>
			</g>
		</g>
		<g>
			<g>
				<path class="st8" d="M22.682,39.903c2.044-3.664,8.907-13.248,18.386-7.49c0.551-7.54-10.457-9.315-16.016-2.287
					c2.124,0.201,2.347,0.457,2.347,0.457S23.49,31.444,22.682,39.903z"/>
			</g>
			<g>
				<g>
					<path d="M22.718,39.789c-0.001-0.031-0.012-0.061-0.025-0.08c-0.013-0.019-0.024-0.026-0.023-0.035
						c-0.003-0.002,0.02-0.041,0.032-0.064l0.042-0.078l0.172-0.31c0.115-0.206,0.237-0.408,0.36-0.61
						c0.247-0.403,0.504-0.799,0.774-1.188c0.535-0.78,1.125-1.522,1.758-2.229c1.263-1.411,2.728-2.676,4.424-3.58
						c0.848-0.449,1.751-0.804,2.692-1.024c0.94-0.216,1.915-0.3,2.877-0.225c0.964,0.066,1.909,0.292,2.805,0.627
						c0.896,0.336,1.739,0.791,2.526,1.316l0,0l-0.182,0.094c0.025-0.877-0.085-1.756-0.407-2.555
						c-0.159-0.399-0.358-0.78-0.603-1.13s-0.533-0.667-0.85-0.952c-0.636-0.569-1.398-0.99-2.206-1.276
						c-0.81-0.283-1.666-0.442-2.53-0.475c-1.728-0.072-3.471,0.304-5.05,1.034c-1.582,0.728-3,1.816-4.157,3.151l-0.083-0.194
						c0.403,0.015,0.806,0.035,1.212,0.074c0.203,0.02,0.406,0.043,0.612,0.078c0.103,0.017,0.207,0.039,0.313,0.065
						c0.054,0.015,0.107,0.029,0.165,0.049c0.028,0.009,0.059,0.023,0.09,0.036c0.018,0.008,0.032,0.015,0.052,0.027
						c0.025,0.018,0.027,0.008,0.091,0.07l0.001,0.001l0.3,0.331l-0.444,0.105c-0.071,0.017-0.182,0.056-0.274,0.095
						c-0.096,0.04-0.191,0.088-0.285,0.138c-0.188,0.102-0.368,0.223-0.54,0.354c-0.348,0.261-0.658,0.577-0.941,0.916
						c-0.563,0.682-1.007,1.471-1.356,2.299c-0.35,0.829-0.616,1.697-0.815,2.581c-0.1,0.442-0.186,0.888-0.259,1.336l-0.101,0.659
						c-0.013,0.092-0.035,0.173-0.069,0.264C22.785,39.576,22.747,39.679,22.718,39.789z M22.647,40.018
						c-0.004-0.117-0.017-0.241-0.025-0.378c-0.008-0.136-0.006-0.282,0.006-0.418l0.009-0.101l0.011-0.086l0.021-0.171l0.043-0.342
						c0.062-0.456,0.137-0.909,0.227-1.361c0.179-0.904,0.426-1.797,0.764-2.661c0.336-0.864,0.775-1.698,1.356-2.443
						c0.292-0.369,0.617-0.719,0.993-1.018c0.186-0.15,0.384-0.29,0.594-0.412c0.106-0.06,0.213-0.118,0.327-0.169
						c0.117-0.052,0.22-0.096,0.37-0.136l-0.143,0.436l0.001,0.001c0.046,0.045,0.026,0.022,0.03,0.026
						c-0.001-0.002-0.009-0.006-0.013-0.01c-0.014-0.008-0.028-0.017-0.047-0.026c-0.035-0.018-0.077-0.035-0.118-0.052
						c-0.085-0.032-0.175-0.063-0.268-0.09c-0.184-0.056-0.376-0.102-0.569-0.145c-0.386-0.085-0.779-0.154-1.174-0.218
						l-0.201-0.032l0.117-0.162c1.055-1.459,2.47-2.686,4.109-3.494c1.633-0.812,3.475-1.237,5.314-1.15
						c0.917,0.044,1.835,0.211,2.701,0.537c0.865,0.321,1.686,0.797,2.359,1.442c0.68,0.636,1.197,1.446,1.488,2.323
						c0.29,0.879,0.365,1.813,0.259,2.712l-0.022,0.187l-0.16-0.093l0,0c-1.633-0.891-3.412-1.52-5.24-1.611
						c-1.824-0.104-3.654,0.345-5.276,1.203c-0.814,0.424-1.585,0.937-2.307,1.513c-0.723,0.575-1.405,1.207-2.042,1.883
						c-0.639,0.675-1.228,1.397-1.793,2.138c-0.281,0.372-0.55,0.752-0.811,1.139c-0.13,0.194-0.257,0.389-0.383,0.586l-0.186,0.296
						l-0.101,0.164c-0.028,0.042-0.066,0.086-0.109,0.118C22.716,39.977,22.677,39.999,22.647,40.018z"/>
				</g>
			</g>
		</g>
		<g>
			<g>
				<path class="st8" d="M64.588,40.451c-1.89-3.746-8.35-13.605-18.06-8.246c-0.237-7.556,10.835-8.873,16.097-1.621
					c-2.131,0.113-2.364,0.36-2.364,0.36S64.132,31.966,64.588,40.451z"/>
			</g>
			<g>
				<g>
					<path d="M64.618,40.567c-0.029-0.021-0.068-0.044-0.109-0.078c-0.041-0.034-0.078-0.08-0.105-0.123l-0.095-0.168l-0.174-0.304
						c-0.117-0.201-0.237-0.402-0.358-0.601c-0.244-0.398-0.497-0.789-0.763-1.172c-0.533-0.764-1.092-1.51-1.703-2.21
						c-0.608-0.701-1.263-1.361-1.962-1.965c-0.697-0.606-1.446-1.15-2.242-1.608c-1.585-0.925-3.394-1.448-5.221-1.421
						c-1.83,0.016-3.634,0.57-5.302,1.392l0,0l-0.164,0.087l-0.014-0.188c-0.068-0.903,0.045-1.833,0.372-2.699
						c0.326-0.865,0.877-1.653,1.582-2.26c0.699-0.617,1.539-1.058,2.417-1.343c0.879-0.29,1.803-0.418,2.721-0.424
						c1.84-0.011,3.663,0.49,5.262,1.37c1.604,0.875,2.966,2.16,3.961,3.661l0.111,0.167l-0.201,0.023
						c-0.397,0.047-0.793,0.1-1.183,0.168c-0.194,0.035-0.388,0.073-0.574,0.122c-0.093,0.023-0.184,0.05-0.271,0.079
						c-0.042,0.016-0.084,0.03-0.12,0.047c-0.019,0.008-0.034,0.017-0.048,0.024c-0.004,0.004-0.013,0.008-0.014,0.009
						c0.004-0.004-0.017,0.018,0.031-0.025l0.001-0.001l-0.126-0.442c0.148,0.047,0.249,0.095,0.364,0.152
						c0.111,0.056,0.216,0.118,0.32,0.182c0.206,0.131,0.397,0.278,0.576,0.437c0.362,0.314,0.673,0.677,0.949,1.058
						c0.55,0.767,0.953,1.62,1.253,2.497c0.302,0.877,0.511,1.781,0.653,2.691c0.071,0.455,0.127,0.912,0.17,1.369l0.029,0.343
						l0.014,0.172l0.007,0.087l0.005,0.101c0.006,0.136,0.003,0.281-0.011,0.418C64.645,40.327,64.628,40.451,64.618,40.567z
						 M64.557,40.335c-0.025-0.111-0.057-0.216-0.087-0.307c-0.03-0.092-0.048-0.174-0.058-0.266L64.34,39.1
						c-0.055-0.451-0.122-0.9-0.204-1.346c-0.162-0.892-0.392-1.77-0.708-2.612c-0.314-0.842-0.724-1.648-1.259-2.354
						c-0.268-0.35-0.566-0.678-0.902-0.954c-0.167-0.139-0.342-0.267-0.526-0.377c-0.092-0.054-0.185-0.106-0.279-0.15
						c-0.09-0.044-0.199-0.087-0.27-0.107l-0.439-0.123l0.314-0.319l0.001-0.001c0.067-0.059,0.068-0.049,0.094-0.066
						c0.02-0.011,0.035-0.016,0.053-0.025c0.032-0.012,0.063-0.024,0.091-0.032c0.058-0.018,0.112-0.03,0.167-0.042
						c0.107-0.022,0.212-0.039,0.316-0.052c0.208-0.027,0.411-0.042,0.615-0.053c0.407-0.022,0.811-0.026,1.214-0.024l-0.091,0.191
						c-1.101-1.382-2.473-2.527-4.022-3.32c-1.547-0.794-3.273-1.242-5.002-1.242c-0.864-0.001-1.726,0.122-2.547,0.37
						c-0.819,0.252-1.598,0.641-2.257,1.183c-0.328,0.271-0.629,0.576-0.888,0.916c-0.259,0.339-0.474,0.711-0.649,1.103
						c-0.355,0.786-0.501,1.659-0.512,2.536l-0.178-0.102l0,0c0.808-0.492,1.669-0.912,2.578-1.21
						c0.908-0.297,1.863-0.483,2.828-0.51c0.964-0.035,1.935,0.089,2.865,0.344c0.93,0.259,1.818,0.651,2.647,1.135
						c1.658,0.974,3.069,2.298,4.272,3.76c0.603,0.733,1.161,1.499,1.664,2.3c0.253,0.399,0.493,0.807,0.723,1.219
						c0.114,0.207,0.228,0.413,0.334,0.624l0.159,0.316l0.039,0.08c0.011,0.023,0.032,0.063,0.03,0.064
						c0.001,0.009-0.01,0.016-0.024,0.034C64.571,40.274,64.559,40.304,64.557,40.335z"/>
				</g>
			</g>
		</g>
		<g>
			
				<ellipse transform="matrix(0.0207 -0.9998 0.9998 0.0207 2.0179 72.2313)" class="st0" cx="37.88" cy="35.086" rx="2.605" ry="1.826"/>
			<path d="M37.853,37.836c-0.01,0-0.02,0-0.03,0c-1.086-0.023-1.943-1.274-1.912-2.788c0.031-1.515,0.935-2.729,2.026-2.706
				c1.086,0.023,1.943,1.274,1.912,2.788C39.818,36.63,38.925,37.836,37.853,37.836z M37.907,32.627
				c-0.917,0-1.681,1.081-1.709,2.426c-0.028,1.357,0.704,2.477,1.631,2.496c0.008,0,0.016,0,0.024,0
				c0.917,0,1.681-1.081,1.709-2.426c0.028-1.357-0.704-2.477-1.631-2.496C37.924,32.627,37.915,32.627,37.907,32.627z"/>
		</g>
		<g>
			
				<ellipse transform="matrix(0.0207 -0.9998 0.9998 0.0207 -4.5621 74.6637)" class="st0" cx="35.832" cy="39.661" rx="1.303" ry="0.913"/>
			<path d="M35.818,41.036c-0.005,0-0.01,0-0.015,0c-0.543-0.011-0.971-0.637-0.956-1.395c0.008-0.362,0.114-0.702,0.3-0.956
				c0.191-0.261,0.451-0.401,0.713-0.397c0.543,0.011,0.972,0.636,0.956,1.394C36.801,40.434,36.355,41.036,35.818,41.036z
				 M35.845,38.432c-0.215,0-0.422,0.12-0.582,0.339c-0.169,0.23-0.266,0.541-0.273,0.875c-0.014,0.678,0.352,1.238,0.816,1.248
				c0.004,0,0.008,0,0.012,0c0.458,0,0.841-0.54,0.855-1.213l0,0c0.014-0.678-0.352-1.238-0.816-1.248
				C35.854,38.432,35.85,38.432,35.845,38.432z"/>
		</g>
		<g>
			
				<ellipse transform="matrix(0.0207 -0.9998 0.9998 0.0207 19.5916 90.1711)" class="st0" cx="55.824" cy="35.085" rx="2.605" ry="1.826"/>
			<path d="M55.798,37.836c-0.01,0-0.02,0-0.03,0c-1.086-0.023-1.943-1.274-1.912-2.788c0.015-0.725,0.228-1.404,0.6-1.912
				c0.384-0.523,0.897-0.805,1.426-0.795c1.086,0.023,1.943,1.274,1.912,2.788l0,0C57.763,36.63,56.87,37.836,55.798,37.836z
				 M55.852,32.627c-0.431,0-0.843,0.239-1.164,0.677c-0.338,0.461-0.531,1.082-0.545,1.748c-0.028,1.357,0.704,2.477,1.631,2.496
				c0.008,0,0.016,0,0.024,0c0.917,0,1.681-1.081,1.709-2.426c0.028-1.357-0.704-2.477-1.631-2.496
				C55.869,32.627,55.86,32.627,55.852,32.627z"/>
		</g>
		<g>
			
				<ellipse transform="matrix(0.0207 -0.9998 0.9998 0.0207 13.0111 92.6027)" class="st0" cx="53.775" cy="39.66" rx="1.303" ry="0.913"/>
			<path d="M53.763,41.036c-0.005,0-0.01,0-0.015,0c-0.543-0.011-0.972-0.637-0.956-1.395c0.008-0.362,0.114-0.702,0.3-0.956
				c0.191-0.262,0.452-0.401,0.713-0.397c0.543,0.011,0.972,0.636,0.956,1.394c-0.008,0.362-0.114,0.702-0.3,0.956
				C54.273,40.896,54.025,41.036,53.763,41.036z M53.79,38.432c-0.215,0-0.422,0.12-0.582,0.339
				c-0.169,0.23-0.266,0.541-0.273,0.875c-0.014,0.678,0.352,1.238,0.816,1.248c0.22,0.001,0.431-0.116,0.594-0.338
				c0.169-0.23,0.266-0.541,0.273-0.875l0,0c0.014-0.678-0.352-1.238-0.816-1.248C53.799,38.432,53.794,38.432,53.79,38.432z"/>
		</g>
		<g>
			<path class="st9" d="M43.662,56.702c-0.332,0.009-0.663,0.028-0.985,0.038c-0.832,0.028-1.101,0.289-2.143,0.711
				c-0.511,0.208-1.063,0.427-1.334,0.908c-0.858-0.33-1.321-1.185-1.987-1.786c-1.02-0.92-1.029-2.054-1.258-2.606
				c-0.319-0.764,0.206-0.15,0.319-0.893c0.013-0.09,0.035-0.191,0.112-0.237c0.053-0.032,0.119-0.028,0.18-0.021
				c0.922,0.11,1.573,0.92,2.347,1.431c0.253,0.167,0.636-0.155,0.916-0.043c0.3,0.119,0.582-0.17,0.839-0.011
				c0.562,0.348,1.399,0.353,2.037,0.374c0.793,0.027,1.587,0.011,2.379-0.046c0.658-0.048,0.912,0.129,1.476-0.195l3.11-1.405
				c0.34-0.195,0.791-0.214,1.085,0.045c0.002,0.001,0.004,0.004,0.006,0.005c0.062,0.059,0.073,0.153,0.078,0.239
				c0.047,0.959-0.292,1.931-0.926,2.651c-0.409,0.465-0.684,0.983-0.959,1.531c-0.169,0.338-0.781,0.881-1.156,0.576
				c-0.665-0.539-1.432-0.86-2.264-1.098C44.935,56.702,44.296,56.685,43.662,56.702z"/>
		</g>
		<g>
			<path class="st10" d="M43.697,59.584c-0.631-0.03-1.26-0.11-1.878-0.241c-0.593-0.125-1.142-0.335-1.719-0.505
				c-0.369-0.109-1.209-0.271-0.634-0.764c0.434-0.372,0.959-0.637,1.488-0.846c0.553-0.218,1.048-0.249,1.616-0.375
				c0.747-0.166,1.358-0.233,2.113-0.105c0.718,0.122,1.322,0.386,2.013,0.62c0.402,0.136,0.833,0.282,1.082,0.651
				c0.19,0.282-2.07,1.431-2.279,1.483c-0.195,0.049-0.396,0.066-0.597,0.077C44.501,59.602,44.099,59.603,43.697,59.584z"/>
		</g>
		<g>
			<path d="M35.992,53.238c0.227,0.823,0.578,1.599,1.06,2.282c0.476,0.687,1.077,1.277,1.751,1.763
				c0.677,0.48,1.427,0.863,2.217,1.122c0.789,0.263,1.615,0.42,2.446,0.449c0.83,0.036,1.665-0.049,2.463-0.273
				c0.8-0.212,1.556-0.576,2.227-1.06c0.668-0.489,1.244-1.111,1.686-1.83c0.45-0.716,0.759-1.522,0.985-2.362l0.14,0.024
				c-0.088,0.877-0.324,1.751-0.722,2.562c-0.402,0.807-0.975,1.544-1.684,2.126c-0.704,0.591-1.539,1.014-2.412,1.291
				c-0.878,0.268-1.799,0.383-2.712,0.357c-1.825-0.064-3.64-0.672-5.086-1.801c-0.723-0.56-1.345-1.254-1.813-2.037
				c-0.464-0.784-0.773-1.656-0.892-2.545L35.992,53.238z"/>
		</g>
		<g>
			<path d="M39.183,58.357c0.495-0.641,1.197-1.12,1.954-1.431c0.191-0.072,0.385-0.142,0.58-0.206l0.597-0.15l0.608-0.09
				c0.204-0.014,0.409-0.03,0.614-0.039c0.819-0.013,1.642,0.103,2.415,0.37c0.771,0.264,1.505,0.675,2.067,1.255l-0.071,0.086
				c-0.664-0.423-1.384-0.713-2.127-0.899c-0.744-0.182-1.509-0.266-2.272-0.247c-0.19,0.015-0.381,0.02-0.571,0.031l-0.567,0.073
				l-0.561,0.108c-0.184,0.049-0.365,0.105-0.551,0.151c-0.727,0.23-1.421,0.574-2.044,1.058L39.183,58.357z"/>
		</g>
		<g>
			<g>
				<path class="st11" d="M54.478,45.139c-6.032,0.059-9.279,2.054-11.231,2.073c-1.952,0.019-5.238-1.913-11.269-1.854
					c-6.031,0.059-6.773,4.411-14.288,5.822c9.012,5.765,14.084-0.249,18.129,2.092c4.044,2.341,10.977,2.273,14.974-0.146
					s11.549,6.246,18.682-1.651C61.563,50.655,60.509,45.08,54.478,45.139z"/>
			</g>
			<g>
				<path d="M54.48,45.38c-1.593,0.035-3.18,0.225-4.727,0.576c-0.774,0.174-1.541,0.38-2.302,0.612
					c-0.762,0.234-1.516,0.49-2.299,0.723c-0.391,0.117-0.794,0.221-1.219,0.295c-0.214,0.035-0.434,0.062-0.665,0.066
					c-0.23,0.001-0.453-0.02-0.668-0.049c-0.853-0.136-1.62-0.384-2.393-0.6c-1.536-0.45-3.073-0.825-4.643-1.034
					c-0.784-0.106-1.573-0.173-2.364-0.206c-0.396-0.017-0.792-0.023-1.188-0.023l-0.584,0.015
					c-0.193,0.016-0.388,0.023-0.579,0.047c-0.769,0.087-1.528,0.246-2.249,0.527c-0.726,0.271-1.414,0.648-2.088,1.065
					c-0.674,0.418-1.337,0.874-2.021,1.308c-0.683,0.436-1.394,0.839-2.129,1.19c-1.474,0.7-3.05,1.164-4.646,1.42l0,0l0.047-0.239
					c0.967,0.581,1.974,1.092,3.02,1.494c1.046,0.401,2.134,0.682,3.238,0.814c1.103,0.141,2.221,0.131,3.327-0.001
					c1.108-0.127,2.203-0.375,3.313-0.623c1.108-0.238,2.258-0.505,3.481-0.396c0.606,0.055,1.219,0.227,1.765,0.523l0.372,0.201
					c0.118,0.067,0.244,0.122,0.366,0.183c0.122,0.061,0.249,0.114,0.374,0.168c0.125,0.057,0.253,0.106,0.381,0.155
					c1.024,0.397,2.106,0.661,3.203,0.813c1.098,0.157,2.213,0.201,3.322,0.16c1.11-0.045,2.215-0.19,3.292-0.444
					c1.073-0.262,2.125-0.622,3.084-1.147l0.367-0.206c0.139-0.08,0.285-0.148,0.434-0.206c0.299-0.116,0.611-0.185,0.92-0.218
					c0.622-0.066,1.226,0.004,1.801,0.121c1.154,0.239,2.226,0.638,3.3,0.995c1.072,0.362,2.142,0.703,3.235,0.918
					c1.091,0.218,2.205,0.297,3.3,0.167c1.094-0.131,2.16-0.492,3.12-1.052c0.961-0.558,1.826-1.287,2.6-2.102l0,0l0.084,0.218
					c-0.692-0.077-1.38-0.186-2.059-0.344c-0.677-0.165-1.344-0.376-1.991-0.638c-1.299-0.515-2.498-1.254-3.622-2.063
					c-1.127-0.805-2.21-1.669-3.418-2.285c-0.603-0.308-1.235-0.55-1.889-0.699C55.827,45.428,55.154,45.368,54.48,45.38z
					 M54.475,44.898c0.708,0.001,1.419,0.078,2.109,0.249c0.689,0.172,1.351,0.442,1.972,0.774c1.248,0.665,2.313,1.568,3.425,2.374
					c1.105,0.816,2.268,1.553,3.534,2.073c0.632,0.259,1.285,0.468,1.949,0.632c0.666,0.158,1.343,0.267,2.024,0.345l0.261,0.03
					l-0.177,0.189l0,0c-0.75,0.864-1.605,1.654-2.593,2.265c-0.981,0.617-2.097,1.036-3.253,1.213
					c-1.157,0.182-2.338,0.111-3.476-0.091c-1.141-0.201-2.245-0.53-3.33-0.873c-1.084-0.338-2.157-0.709-3.233-0.909
					c-0.536-0.097-1.074-0.15-1.584-0.09c-0.254,0.03-0.499,0.088-0.73,0.179c-0.115,0.045-0.226,0.099-0.333,0.162l-0.372,0.215
					c-1.029,0.576-2.136,0.981-3.266,1.257c-1.132,0.272-2.286,0.429-3.445,0.48c-1.159,0.052-2.321-0.004-3.471-0.172
					c-1.149-0.166-2.287-0.444-3.378-0.877c-0.136-0.054-0.272-0.109-0.405-0.171c-0.134-0.06-0.268-0.118-0.4-0.186
					c-0.131-0.067-0.265-0.129-0.393-0.203l-0.374-0.208c-0.451-0.251-0.95-0.398-1.473-0.454c-0.523-0.057-1.066-0.024-1.612,0.045
					c-0.547,0.068-1.098,0.172-1.652,0.281c-1.109,0.221-2.239,0.451-3.39,0.557c-1.15,0.109-2.319,0.097-3.465-0.079
					c-1.145-0.179-2.26-0.513-3.318-0.964c-1.06-0.447-2.061-1.014-3.008-1.653l-0.271-0.182l0.317-0.057l0,0
					c1.561-0.34,3.081-0.846,4.484-1.585c0.701-0.369,1.373-0.79,2.036-1.233c0.662-0.445,1.311-0.918,1.991-1.366
					c0.68-0.446,1.397-0.867,2.17-1.179c0.769-0.321,1.59-0.526,2.416-0.629c0.206-0.028,0.414-0.039,0.621-0.059l0.621-0.024
					c0.408-0.004,0.815-0.002,1.222,0.011c0.815,0.026,1.629,0.087,2.439,0.188c1.62,0.196,3.219,0.571,4.771,1.008
					c0.774,0.21,1.547,0.445,2.285,0.552c0.37,0.051,0.696,0.046,1.067-0.017c0.367-0.061,0.743-0.16,1.124-0.265
					c1.522-0.442,3.104-0.897,4.708-1.163C51.229,45.02,52.855,44.898,54.475,44.898z"/>
			</g>
		</g>
		<g class="st1">
			<path class="st2" d="M46.4,32.397c1.34-0.365,11.095-3.178,17.478,9.494c0.022-2.862-0.204-3.211-1.498-4.8
				c-1.293-1.588-2.772-4.039-5.476-5.187c-2.704-1.147-4.811-1.469-6.755-1.065C47.465,31.396,46.4,32.397,46.4,32.397z"/>
		</g>
		<g class="st1">
			<path class="st2" d="M41.069,32.413c-1.913-1.137-10.926-2.899-17.885,10.2c-0.076-2.607,0.031-3.832,1.085-5.177
				c1.055-1.346,3.06-3.933,6.207-5.642c2.067-1.123,3.527-1.485,5.895-1.103S41.069,32.413,41.069,32.413z"/>
		</g>
		<g class="st1">
			<path class="st2" d="M24.457,54.557c0.095,0.965,2.806,0.279,3.512,0.249c1.166-0.049,2.341-0.143,3.485-0.381
				c2.588-0.536,3.395-0.358,4.823,0.299c-0.321-0.757-0.003-1.65-0.003-1.65s-1.514-0.602-3.228-0.353
				c-1.714,0.249-3.481,1.145-5.305,1.035c-0.634-0.038-2.817-0.016-3.576-0.074C24.162,53.725,24.453,54.519,24.457,54.557z"/>
		</g>
		<g class="st1">
			<path class="st2" d="M50.699,54.426c1.573-0.427,2.333-0.958,3.526-0.287c2.283,1.286,7.075,2.254,7.663,2.278
				c0.588,0.025,0.498-1.371,0.498-1.371s-2.038-0.21-4.487-0.999c-2.449-0.789-4.819-1.537-5.714-1.348
				c-0.894,0.189-1.393,0.427-1.393,0.427S50.929,53.945,50.699,54.426z"/>
		</g>
		<g class="st1">
			<path class="st2" d="M40.453,58.432c0.511-0.557,5.663-0.697,6.731-0.093c0.697-0.232,0.697-0.232,0.697-0.232
				s-0.65-0.928-2.739-1.114c-2.089-0.186-3.831-0.112-5.675,1.081C39.803,58.386,40.453,58.432,40.453,58.432z"/>
		</g>
		<g>
			<g>
				<path class="st3" d="M39.692,63.772c1.465,1.881-5.188,6.499-8.237,5.235c-2.569-1.065-9.333-5.221-11.937-8.75
					c-3.204-4.339,9.871-16.617,12.173-11.274C34.598,55.733,36.155,59.231,39.692,63.772z"/>
			</g>
			<g>
				<path d="M40.073,63.476c0.151,0.188,0.259,0.429,0.298,0.67c0.041,0.242,0.021,0.477-0.027,0.685
					c-0.099,0.419-0.29,0.757-0.496,1.064c-0.421,0.608-0.925,1.101-1.461,1.547c-0.536,0.446-1.111,0.833-1.715,1.173
					c-0.604,0.341-1.238,0.634-1.909,0.853c-0.671,0.218-1.38,0.371-2.136,0.365c-0.377-0.006-0.768-0.054-1.154-0.18
					c-0.094-0.028-0.199-0.072-0.281-0.106l-0.239-0.105c-0.156-0.073-0.312-0.145-0.464-0.221
					c-1.217-0.603-2.362-1.289-3.486-2.013c-1.123-0.723-2.214-1.493-3.27-2.314c-1.055-0.821-2.078-1.688-3.026-2.647
					c-0.473-0.481-0.928-0.985-1.34-1.532l-0.154-0.206c-0.053-0.073-0.108-0.157-0.156-0.238c-0.097-0.165-0.177-0.341-0.238-0.52
					c-0.124-0.36-0.173-0.734-0.173-1.097c0.002-0.73,0.188-1.416,0.433-2.056c0.249-0.642,0.569-1.244,0.925-1.818
					c0.71-1.15,1.563-2.193,2.495-3.154c0.932-0.96,1.947-1.842,3.059-2.595c0.557-0.375,1.137-0.721,1.752-1.009
					c0.615-0.284,1.267-0.519,1.969-0.597c0.35-0.037,0.715-0.033,1.074,0.055c0.358,0.086,0.708,0.264,0.983,0.521
					c0.277,0.255,0.477,0.579,0.619,0.902l0.402,0.905c0.537,1.206,1.076,2.411,1.631,3.606c0.56,1.192,1.14,2.373,1.762,3.528
					c0.622,1.154,1.286,2.282,2.008,3.37C38.479,61.401,39.257,62.453,40.073,63.476z M39.311,64.069
					c-0.805-1.062-1.573-2.156-2.283-3.287c-0.712-1.13-1.361-2.298-1.957-3.488c-0.597-1.19-1.147-2.398-1.677-3.611
					c-0.533-1.212-1.048-2.43-1.56-3.649l-0.383-0.914c-0.115-0.283-0.273-0.532-0.48-0.728c-0.412-0.399-1.029-0.521-1.64-0.455
					c-0.615,0.066-1.225,0.282-1.806,0.551c-0.582,0.272-1.141,0.604-1.675,0.973c-1.068,0.74-2.052,1.607-2.949,2.552
					c-0.89,0.95-1.7,1.981-2.358,3.092c-0.324,0.557-0.61,1.136-0.822,1.732c-0.21,0.594-0.352,1.213-0.336,1.808
					c0.008,0.297,0.057,0.585,0.156,0.848c0.049,0.131,0.111,0.256,0.184,0.374c0.037,0.059,0.075,0.113,0.12,0.172l0.148,0.187
					c0.399,0.496,0.845,0.963,1.313,1.408c0.94,0.89,1.963,1.702,3.019,2.469c1.058,0.765,2.15,1.486,3.264,2.169
					c0.557,0.34,1.121,0.67,1.691,0.985c0.569,0.316,1.143,0.623,1.722,0.896c0.145,0.069,0.29,0.134,0.434,0.199l0.216,0.091
					c0.071,0.028,0.119,0.047,0.184,0.066c0.243,0.076,0.516,0.108,0.798,0.107c0.567,0.001,1.167-0.128,1.751-0.311
					c1.171-0.378,2.311-0.978,3.309-1.729c0.495-0.377,0.962-0.8,1.308-1.27c0.17-0.232,0.31-0.481,0.37-0.706
					c0.031-0.112,0.039-0.213,0.028-0.297C39.39,64.213,39.363,64.142,39.311,64.069z"/>
			</g>
		</g>
		<g>
			<g>
				<path class="st3" d="M47.322,63.772c-1.465,1.881,5.188,6.499,8.237,5.235c2.569-1.065,9.333-5.221,11.937-8.75
					c3.204-4.339-9.871-16.617-12.173-11.274C52.416,55.733,50.858,59.231,47.322,63.772z"/>
			</g>
			<g>
				<path d="M47.703,64.069c-0.052,0.073-0.078,0.144-0.09,0.23c-0.011,0.085-0.004,0.186,0.028,0.297
					c0.059,0.225,0.2,0.473,0.37,0.706c0.345,0.47,0.812,0.894,1.308,1.27c0.997,0.752,2.138,1.351,3.309,1.729
					c0.585,0.184,1.184,0.312,1.751,0.311c0.283,0.001,0.555-0.031,0.798-0.107c0.065-0.018,0.112-0.038,0.184-0.066l0.216-0.091
					c0.145-0.064,0.289-0.129,0.434-0.199c0.579-0.273,1.154-0.58,1.722-0.896c0.57-0.315,1.134-0.644,1.691-0.985
					c1.113-0.683,2.206-1.403,3.264-2.169c1.055-0.767,2.079-1.579,3.019-2.469c0.468-0.445,0.914-0.912,1.313-1.408l0.148-0.187
					c0.045-0.059,0.083-0.112,0.12-0.172c0.073-0.117,0.135-0.242,0.184-0.374c0.099-0.263,0.148-0.551,0.156-0.848
					c0.016-0.595-0.125-1.214-0.336-1.808c-0.213-0.596-0.498-1.175-0.822-1.732c-0.658-1.111-1.468-2.142-2.358-3.092
					c-0.896-0.945-1.881-1.813-2.949-2.552c-0.533-0.369-1.092-0.701-1.675-0.973c-0.581-0.269-1.191-0.485-1.806-0.551
					c-0.611-0.066-1.227,0.056-1.64,0.455c-0.208,0.196-0.365,0.446-0.48,0.728l-0.383,0.914c-0.512,1.219-1.027,2.436-1.56,3.649
					c-0.531,1.214-1.08,2.422-1.677,3.611c-0.596,1.19-1.245,2.358-1.957,3.488C49.276,61.913,48.508,63.007,47.703,64.069z
					 M46.941,63.476c0.817-1.024,1.594-2.075,2.316-3.164c0.723-1.089,1.387-2.216,2.008-3.37c0.622-1.154,1.202-2.335,1.762-3.528
					c0.555-1.195,1.094-2.4,1.631-3.606l0.402-0.905c0.142-0.324,0.342-0.648,0.619-0.902c0.275-0.258,0.624-0.434,0.983-0.521
					c0.36-0.088,0.725-0.093,1.074-0.055c0.702,0.078,1.354,0.312,1.969,0.597c0.615,0.288,1.195,0.634,1.752,1.009
					c1.112,0.754,2.126,1.635,3.059,2.595c0.932,0.96,1.785,2.003,2.495,3.154c0.355,0.574,0.675,1.176,0.925,1.818
					c0.245,0.641,0.431,1.327,0.433,2.056c0,0.363-0.049,0.738-0.173,1.097c-0.061,0.179-0.141,0.355-0.238,0.52
					c-0.048,0.082-0.103,0.165-0.156,0.238l-0.154,0.206c-0.413,0.547-0.868,1.05-1.34,1.532c-0.948,0.959-1.972,1.826-3.026,2.647
					c-1.055,0.82-2.147,1.591-3.27,2.314c-1.124,0.723-2.268,1.409-3.486,2.013c-0.152,0.076-0.308,0.148-0.464,0.221l-0.239,0.105
					c-0.082,0.034-0.187,0.078-0.281,0.106c-0.386,0.126-0.778,0.174-1.154,0.18c-0.757,0.006-1.465-0.147-2.136-0.365
					c-0.672-0.218-1.305-0.512-1.909-0.853c-0.604-0.34-1.179-0.728-1.715-1.173c-0.535-0.446-1.04-0.939-1.461-1.547
					c-0.206-0.307-0.397-0.644-0.496-1.064c-0.048-0.208-0.069-0.443-0.027-0.685C46.683,63.904,46.79,63.664,46.941,63.476z"/>
			</g>
		</g>
		<g class="st1">
			<path class="st2" d="M70.259,20.52c0.143,0.143,4.205,5.476,3.95,7.182c-0.359,2.406-6.751,10.019-6.751,10.019l-0.494,4.173
				l-1.086-1.156l0.036,3.699c0,0,3.663-6.392,4.309-7.29c0.646-0.898,8.582-8.655,8.582-8.655L70.259,20.52z"/>
		</g>
		<g class="st1">
			<path class="st2" d="M19.39,59.398c-0.948,1.424-1.898,5.12-2.957,5.365c-1.698,0.391-2.896-1.639-5.185-0.665
				c-2.289,0.973-5.813,1.847-6.467,1.8c0.98,0.449,1.666,0.456,1.923,0.504c0.257,0.048,3.974-0.699,5.908-0.846
				c0.999-0.076,4.932,1.05,4.932,1.05s0.72-1.546,1.238-2.172c0.518-0.626,2.248-2.557,2.248-2.557L19.39,59.398z"/>
		</g>
		<g class="st1">
			<path class="st2" d="M24.582,64.366c1.041,0.61,5.495,2.357,7.397,2.477c2.262,0.143,6.033-1.329,7.254-3.447
				c0,0,0.826,0.862,0.574,1.472c-0.251,0.61-1.544,2.442-2.765,3.053s-4.489,1.903-5.674,1.329
				C30.184,68.676,24.582,64.366,24.582,64.366z"/>
		</g>
		<g class="st1">
			<path class="st2" d="M62.611,64.222c-1.041,0.61-5.495,2.357-7.397,2.477c-2.262,0.143-6.033-1.329-7.254-3.447
				c0,0-0.826,0.862-0.574,1.472c0.251,0.61,1.544,2.442,2.765,3.052c1.221,0.61,4.489,1.903,5.674,1.329
				C57.009,68.532,62.611,64.222,62.611,64.222z"/>
		</g>
		<g>
			<g>
				<path class="st12" d="M63.347,14.224c0,0-0.182-4.913-0.3-7.268c-0.096-1.924-0.13-1.888,1.826-1.984
					c1.956-0.096,7.268-0.3,7.268-0.3l6.059,5.71l-8.664,9.477L63.347,14.224z"/>
			</g>
			<g>
				<path d="M63.267,14.26c-0.126-1.477-0.21-2.988-0.282-4.499c-0.04-0.755-0.063-1.514-0.095-2.27L62.843,6.36
					c-0.006-0.19-0.011-0.381,0.005-0.582c0.006-0.051,0.008-0.101,0.016-0.153l0.035-0.159c0.018-0.054,0.042-0.109,0.066-0.164
					c0.035-0.052,0.069-0.107,0.112-0.151c0.092-0.09,0.199-0.148,0.303-0.186c0.052-0.016,0.103-0.033,0.154-0.046l0.15-0.028
					c0.197-0.031,0.388-0.045,0.577-0.056c0.378-0.023,0.751-0.035,1.127-0.047l2.25-0.075c1.5-0.054,3-0.085,4.501-0.129l0,0
					l0.037-0.001l0.027,0.025l6.058,5.71l0.063,0.059l-0.058,0.064l-8.664,9.477l-0.059,0.064l-0.064-0.059L63.267,14.26z
					 M63.426,14.186l6.169,5.608L69.472,19.8l8.664-9.478l0.004,0.123l-6.059-5.71l0.064,0.024l0,0
					c-1.498,0.081-2.996,0.173-4.494,0.242l-2.247,0.111l-1.121,0.059C64.097,5.185,63.913,5.2,63.74,5.228
					c-0.174,0.026-0.332,0.078-0.415,0.162c-0.085,0.08-0.119,0.241-0.129,0.415c-0.013,0.172-0.008,0.357-0.001,0.542l0.052,1.117
					c0.03,0.743,0.069,1.484,0.09,2.227C63.389,11.178,63.429,12.666,63.426,14.186z"/>
			</g>
		</g>
		<g>
			<g>
				<g>
					<path class="st13" d="M64.045,7.962c0.266-0.289-0.052-1.277,0.321-1.688c0.4-0.441,1.397-0.137,1.666-0.428
						c0.12-0.13,0.042-0.543-0.045-0.925c-0.429,0.019-0.81,0.036-1.112,0.051c-1.956,0.096-1.923,0.06-1.826,1.984
						c0.016,0.324,0.034,0.699,0.052,1.101C63.492,8.083,63.92,8.098,64.045,7.962z"/>
				</g>
				<g>
					<path d="M63.98,7.903c0.083-0.101,0.093-0.3,0.097-0.476c0.003-0.182-0.004-0.37,0.009-0.562
						c0.016-0.189,0.039-0.394,0.159-0.575c0.123-0.182,0.328-0.279,0.519-0.318c0.193-0.042,0.384-0.051,0.569-0.059
						c0.184-0.008,0.372-0.012,0.526-0.062c0.035-0.015,0.071-0.03,0.092-0.052c0.016-0.011,0.02-0.018,0.027-0.028
						c0.006-0.011,0.011-0.027,0.016-0.044c0.016-0.072,0.013-0.161,0.005-0.249C65.98,5.301,65.94,5.121,65.9,4.94V4.94
						l0.089,0.069c-0.471,0.036-0.942,0.067-1.414,0.096c-0.235,0.018-0.47,0.028-0.698,0.057c-0.225,0.028-0.456,0.072-0.582,0.195
						c-0.123,0.122-0.148,0.355-0.157,0.579c-0.009,0.228,0.006,0.464,0.011,0.699c0.018,0.472,0.029,0.945,0.037,1.418
						l-0.081-0.083l0,0c0.16,0.011,0.32,0.02,0.476,0.017c0.078-0.001,0.155-0.006,0.228-0.018
						C63.882,7.956,63.954,7.932,63.98,7.903z M64.109,8.021c-0.09,0.087-0.185,0.101-0.27,0.118
						c-0.087,0.014-0.171,0.019-0.254,0.021c-0.167,0.004-0.33-0.006-0.492-0.017l0,0l-0.076-0.003L63.011,8.06
						c-0.037-0.471-0.069-0.942-0.097-1.414c-0.015-0.237-0.027-0.473-0.022-0.718c-0.001-0.06,0.004-0.122,0.01-0.185
						c0.004-0.062,0.012-0.125,0.028-0.19c0.02-0.127,0.084-0.267,0.186-0.375c0.056-0.049,0.113-0.097,0.177-0.124
						c0.062-0.036,0.125-0.053,0.188-0.071c0.125-0.035,0.248-0.054,0.368-0.066c0.242-0.028,0.478-0.038,0.716-0.047
						c0.473-0.018,0.945-0.028,1.419-0.036l0.075-0.001l0.014,0.069v0.001c0.041,0.182,0.081,0.367,0.101,0.559
						c0.008,0.097,0.014,0.196-0.009,0.307c-0.008,0.028-0.016,0.057-0.032,0.087c-0.016,0.03-0.042,0.059-0.064,0.076
						c-0.046,0.043-0.098,0.064-0.148,0.085c-0.203,0.065-0.392,0.062-0.578,0.073c-0.185,0.008-0.367,0.017-0.538,0.054
						c-0.172,0.035-0.324,0.115-0.412,0.244C64.3,6.519,64.274,6.7,64.26,6.877c-0.013,0.179-0.006,0.364-0.009,0.553
						c-0.003,0.095-0.004,0.19-0.02,0.29C64.214,7.818,64.192,7.926,64.109,8.021z"/>
				</g>
			</g>
		</g>
		<g>
			<g>
				<path class="st14" d="M83.824,32.987l-4.43-4.079c-0.715-0.658-0.762-1.782-0.103-2.498l6.387-6.936
					c0.658-0.715,1.782-0.762,2.498-0.103l4.43,4.079c0.715,0.658,0.762,1.782,0.103,2.498l-6.387,6.936
					C85.664,33.6,84.54,33.646,83.824,32.987z"/>
			</g>
			<g>
				<path d="M83.726,33.094l-3.839-3.581l-0.48-0.448c-0.161-0.146-0.328-0.325-0.439-0.526c-0.23-0.403-0.3-0.892-0.196-1.343
					c0.051-0.225,0.145-0.441,0.275-0.632c0.134-0.195,0.292-0.345,0.438-0.507l0.892-0.963l3.565-3.854
					c0.598-0.642,1.178-1.286,1.792-1.926c0.336-0.309,0.791-0.48,1.245-0.479c0.455-0.002,0.909,0.172,1.245,0.481l3.866,3.551
					l0.483,0.444c0.162,0.145,0.329,0.316,0.442,0.516c0.235,0.396,0.307,0.882,0.216,1.335c-0.045,0.227-0.134,0.447-0.261,0.644
					c-0.03,0.05-0.064,0.098-0.102,0.143c-0.037,0.046-0.073,0.093-0.109,0.132l-0.217,0.247l-0.868,0.985
					c-0.584,0.652-1.17,1.301-1.764,1.943c-0.591,0.646-1.185,1.288-1.781,1.928l-0.894,0.961l-0.448,0.48l-0.224,0.24l-0.112,0.12
					l-0.127,0.124c-0.355,0.322-0.831,0.501-1.306,0.496C84.545,33.604,84.073,33.418,83.726,33.094z M83.923,32.881
					c0.298,0.27,0.697,0.42,1.097,0.415c0.4-0.001,0.795-0.157,1.085-0.428l0.106-0.107l0.11-0.122l0.22-0.243l0.441-0.486
					l0.884-0.971c0.588-0.647,1.18-1.292,1.775-1.934c0.591-0.645,1.19-1.283,1.792-1.919l0.911-0.946
					c0.15-0.16,0.313-0.311,0.427-0.472c0.118-0.165,0.206-0.355,0.255-0.554c0.102-0.399,0.041-0.839-0.161-1.202
					c-0.102-0.185-0.237-0.337-0.4-0.484l-0.482-0.445l-3.858-3.56c-0.309-0.285-0.726-0.446-1.146-0.445
					c-0.42-0.002-0.838,0.16-1.146,0.444c-0.593,0.626-1.183,1.284-1.775,1.925l-3.546,3.871l-0.886,0.969
					c-0.146,0.164-0.304,0.319-0.417,0.487c-0.115,0.171-0.197,0.364-0.242,0.565c-0.09,0.403-0.025,0.839,0.182,1.195
					c0.104,0.182,0.238,0.327,0.402,0.473l0.485,0.442L83.923,32.881z"/>
			</g>
		</g>
		<g>
			<path class="st15" d="M72.227,4.831c-1-0.921,1.749,4.13,1.099,4.836c-0.65,0.706-4.02-0.904-4.989,0.164
				c-0.904,0.996,0.818,4.265,0.172,4.966c-0.646,0.701-5.672-1.173-4.973-0.529c0.775,0.713,12.547,11.553,12.547,11.553
				l1.97-2.139l0.105-0.114l4.66-5.061l0.095-0.103l1.861-2.02C84.774,16.384,73.333,5.849,72.227,4.831z"/>
		</g>
		<g class="st16">
			<polygon class="st0" points="84.659,16.466 82.747,18.504 73.463,9.76 72.076,4.665 			"/>
		</g>
		<g>
			<rect x="78.019" y="7.608" transform="matrix(0.6774 -0.7356 0.7356 0.6774 14.8087 62.011)" width="0.175" height="13.026"/>
		</g>
		<g>
			<rect x="73.246" y="12.759" transform="matrix(0.6775 -0.7355 0.7355 0.6775 9.468 60.1556)" width="0.175" height="13.044"/>
		</g>
		<g>
			<g>
				
					<rect x="76.751" y="20.188" transform="matrix(0.6774 -0.7356 0.7356 0.6774 9.4432 68.8667)" class="st17" width="12.977" height="6.958"/>
			</g>
			<g>
				<path d="M81.407,30.879L76.173,26.2L76.05,26.09l0.113-0.123l8.804-9.534l0.1-0.109l0.107,0.1l5.079,4.757l0.064,0.06
					l-0.059,0.064L81.407,30.879z M81.4,30.705l8.729-9.518l0.005,0.124l-5.159-4.67l0.207-0.008l-8.777,9.559l-0.01-0.232
					L81.4,30.705z"/>
			</g>
		</g>
		<g>
			<g>
				<g>
					<polygon class="st17" points="76.438,19.391 77.822,20.665 79.408,20.332 79.609,18.724 78.224,17.45 76.638,17.783 					"/>
				</g>
				<g>
					<path d="M76.508,19.364l1.365,1.245l-0.066-0.018l1.568-0.416l-0.126,0.137l0.285-1.597l0.023,0.064l-1.385-1.274l0.066,0.018
						l-1.566,0.424l0.132-0.143L76.508,19.364z M76.367,19.416l0.105-1.654l0.008-0.125l0.124-0.019l1.605-0.242l0.04-0.006
						l0.026,0.024l1.385,1.274l0.027,0.025l-0.003,0.04l-0.117,1.618l-0.008,0.119l-0.117,0.018l-1.603,0.25l-0.04,0.006
						l-0.026-0.025L76.367,19.416z"/>
				</g>
			</g>
			<g>
				<g>
					<path class="st0" d="M76.905,18.866l0.803-0.872l0.233,0.215l0.152,0.882c0.048,0.227,0.113,0.379,0.195,0.454
						c0.066,0.061,0.128,0.096,0.184,0.105c0.057,0.008,0.105-0.01,0.146-0.054c0.04-0.044,0.05-0.101,0.03-0.171
						c-0.021-0.07-0.066-0.137-0.136-0.201l0.267-0.29c0.095,0.088,0.165,0.187,0.21,0.3c0.045,0.112,0.059,0.223,0.041,0.333
						c-0.018,0.109-0.065,0.207-0.143,0.291c-0.124,0.135-0.259,0.203-0.403,0.206c-0.144,0.002-0.288-0.064-0.433-0.196
						c-0.061-0.056-0.112-0.119-0.153-0.191c-0.041-0.071-0.075-0.155-0.102-0.252c-0.028-0.097-0.055-0.237-0.082-0.42
						l-0.081-0.374l-0.453,0.492L76.905,18.866z"/>
				</g>
			</g>
		</g>
		<g class="st16">
			
				<rect x="85.098" y="16.675" transform="matrix(0.6834 -0.7301 0.7301 0.6834 12.3618 69.2271)" class="st0" width="1.787" height="7.374"/>
		</g>
		<g>
			
				<rect x="75.034" y="21.837" transform="matrix(0.6774 -0.7356 0.7356 0.6774 10.0213 67.1466)" class="st15" width="13.067" height="0.62"/>
			<path d="M77.378,27.224l-0.521-0.48l0.03-0.032l8.881-9.645l0.521,0.48l-0.03,0.032L77.378,27.224z M76.981,26.739l0.392,0.361
				l8.792-9.549l-0.392-0.361L76.981,26.739z"/>
		</g>
		<g>
			
				<rect x="78.369" y="24.908" transform="matrix(0.6774 -0.7356 0.7356 0.6774 8.8379 70.5902)" class="st15" width="13.067" height="0.62"/>
			<path d="M80.713,30.294l-0.521-0.48l0.03-0.032l8.881-9.646l0.521,0.48l-0.03,0.032L80.713,30.294z M80.315,29.81l0.392,0.361
				l8.792-9.549l-0.392-0.361L80.315,29.81z"/>
		</g>
		<g>
			<path d="M85.994,18.597c0.218,0.124,0.418,0.267,0.61,0.418c0.194,0.15,0.378,0.311,0.558,0.475
				c0.178,0.167,0.353,0.337,0.519,0.519c0.166,0.18,0.326,0.367,0.468,0.573c-0.217-0.125-0.416-0.269-0.61-0.42
				c-0.194-0.15-0.378-0.31-0.559-0.474c-0.179-0.166-0.354-0.336-0.519-0.517C86.295,18.991,86.136,18.804,85.994,18.597z"/>
		</g>
		<g>
			<path d="M78.373,26.875c0.218,0.124,0.418,0.267,0.61,0.418c0.194,0.15,0.378,0.311,0.558,0.475
				c0.178,0.167,0.353,0.337,0.519,0.519c0.166,0.18,0.326,0.367,0.468,0.573c-0.217-0.125-0.416-0.269-0.61-0.42
				c-0.194-0.15-0.378-0.31-0.559-0.474c-0.179-0.166-0.354-0.336-0.519-0.517C78.674,27.269,78.514,27.082,78.373,26.875z"/>
		</g>
		<g>
			<path d="M85.041,19.631c0.218,0.124,0.418,0.267,0.61,0.418c0.194,0.15,0.378,0.311,0.558,0.475
				c0.178,0.167,0.353,0.337,0.519,0.519c0.166,0.18,0.326,0.367,0.468,0.573c-0.217-0.125-0.416-0.269-0.61-0.42
				c-0.194-0.15-0.378-0.31-0.559-0.474c-0.179-0.166-0.354-0.336-0.519-0.517C85.342,20.026,85.183,19.838,85.041,19.631z"/>
		</g>
		<g>
			<path d="M84.089,20.666c0.218,0.124,0.418,0.267,0.61,0.418c0.194,0.15,0.378,0.311,0.558,0.475
				c0.178,0.167,0.353,0.337,0.519,0.519c0.166,0.18,0.326,0.367,0.468,0.573c-0.217-0.125-0.416-0.269-0.61-0.42
				c-0.194-0.15-0.378-0.31-0.559-0.474c-0.179-0.166-0.354-0.336-0.519-0.517C84.389,21.061,84.23,20.873,84.089,20.666z"/>
		</g>
		<g>
			<path d="M83.136,21.701c0.218,0.124,0.418,0.267,0.61,0.418c0.194,0.15,0.378,0.311,0.558,0.475
				c0.178,0.167,0.353,0.337,0.519,0.519c0.166,0.18,0.326,0.367,0.468,0.573c-0.217-0.125-0.416-0.269-0.61-0.42
				c-0.194-0.15-0.378-0.31-0.56-0.474c-0.179-0.166-0.354-0.336-0.519-0.517C83.437,22.095,83.277,21.908,83.136,21.701z"/>
		</g>
		<g>
			<path d="M82.183,22.736c0.218,0.124,0.418,0.267,0.61,0.418c0.194,0.15,0.378,0.311,0.558,0.475
				c0.178,0.167,0.353,0.337,0.519,0.519c0.166,0.18,0.326,0.367,0.468,0.573c-0.217-0.125-0.416-0.269-0.61-0.42
				c-0.194-0.15-0.378-0.31-0.56-0.474c-0.179-0.166-0.354-0.336-0.519-0.517C82.484,23.13,82.324,22.943,82.183,22.736z"/>
		</g>
		<g>
			<path d="M81.231,23.77c0.218,0.124,0.418,0.267,0.61,0.418c0.194,0.15,0.378,0.311,0.558,0.475
				c0.178,0.167,0.353,0.337,0.519,0.519c0.166,0.18,0.326,0.367,0.468,0.573c-0.217-0.125-0.416-0.269-0.61-0.42
				c-0.194-0.15-0.378-0.31-0.559-0.474c-0.179-0.166-0.354-0.336-0.519-0.517C81.531,24.165,81.372,23.977,81.231,23.77z"/>
		</g>
		<g>
			<path d="M80.278,24.805c0.218,0.124,0.418,0.267,0.61,0.418c0.194,0.15,0.378,0.311,0.558,0.475
				c0.178,0.167,0.353,0.337,0.519,0.519c0.166,0.18,0.326,0.367,0.468,0.573c-0.217-0.125-0.416-0.269-0.61-0.42
				c-0.194-0.15-0.378-0.31-0.559-0.474c-0.179-0.166-0.354-0.336-0.519-0.517C80.579,25.199,80.419,25.012,80.278,24.805z"/>
		</g>
		<g>
			<path d="M79.325,25.84c0.218,0.124,0.418,0.267,0.61,0.418c0.194,0.15,0.378,0.311,0.558,0.475
				c0.178,0.167,0.353,0.337,0.519,0.519c0.166,0.18,0.326,0.367,0.468,0.573c-0.217-0.125-0.416-0.269-0.61-0.42
				c-0.194-0.15-0.378-0.31-0.559-0.474c-0.179-0.166-0.354-0.336-0.519-0.517C79.626,26.234,79.466,26.047,79.325,25.84z"/>
		</g>
		<g>
			<path d="M81.407,30.879L76.173,26.2L76.05,26.09l0.113-0.123l8.804-9.534l0.1-0.109l0.107,0.1l5.079,4.757l0.061,0.058
				l-0.057,0.066c-0.711,0.822-1.439,1.638-2.172,2.449c-0.73,0.816-1.476,1.614-2.215,2.422c-0.742,0.803-1.49,1.594-2.234,2.384
				l-1.118,1.171L81.407,30.879z M81.4,30.705l1.085-1.237l1.08-1.216c0.721-0.801,1.438-1.601,2.161-2.39
				c0.726-0.783,1.445-1.577,2.18-2.352c0.733-0.779,1.47-1.555,2.224-2.324l0.005,0.124l-5.159-4.67l0.207-0.008l-8.777,9.559
				l-0.01-0.232L81.4,30.705z"/>
		</g>
		<g>
			<path d="M72.147,4.919c-0.033-0.03-0.07-0.059-0.097-0.074c-0.008-0.01-0.031-0.001,0.021-0.006
				c0.03-0.006,0.054-0.037,0.054-0.045c0.004-0.008,0.002-0.006,0.002-0.003c-0.001,0.054,0.027,0.16,0.054,0.247
				c0.055,0.183,0.131,0.365,0.206,0.547c0.148,0.365,0.32,0.724,0.479,1.089c0.161,0.364,0.321,0.73,0.468,1.106
				c0.148,0.377,0.28,0.759,0.358,1.185c0.017,0.108,0.03,0.219,0.031,0.341c-0.001,0.122-0.004,0.254-0.078,0.42
				c-0.09,0.189-0.248,0.281-0.378,0.335c-0.135,0.054-0.259,0.072-0.376,0.083c-0.234,0.02-0.445-0.003-0.651-0.029
				c-0.206-0.026-0.405-0.064-0.602-0.107c-0.393-0.083-0.776-0.174-1.16-0.249c-0.382-0.071-0.767-0.14-1.143-0.127
				c-0.37,0.005-0.75,0.105-0.935,0.375c-0.091,0.134-0.136,0.308-0.155,0.488c-0.016,0.182-0.006,0.371,0.015,0.56
				c0.102,0.762,0.362,1.508,0.555,2.293c0.047,0.198,0.087,0.399,0.114,0.611c0.024,0.213,0.042,0.434-0.022,0.698
				c-0.037,0.132-0.094,0.279-0.249,0.408c-0.152,0.112-0.287,0.138-0.408,0.161c-0.242,0.037-0.455,0.024-0.665,0.003
				c-0.417-0.042-0.81-0.141-1.2-0.237c-0.389-0.099-0.773-0.21-1.154-0.322c-0.382-0.109-0.764-0.215-1.147-0.303
				c-0.095-0.023-0.191-0.042-0.285-0.058c-0.089-0.016-0.199-0.03-0.249-0.024c-0.004,0-0.006,0.002,0.008-0.004
				c0.006-0.003,0.019-0.01,0.033-0.026c0.017-0.017,0.028-0.049,0.029-0.07c0-0.046-0.011-0.05-0.01-0.053
				c-0.001-0.001,0.002,0.004,0.007,0.008c0.017,0.018,0.064,0.06,0.097,0.092l0.219,0.201l1.75,1.612l3.501,3.222l3.517,3.206
				c1.178,1.062,2.352,2.129,3.536,3.185l0.001,0.001l-0.317,0.013l8.676-9.45l0.001-0.001l0.014,0.345
				c-1.022-0.988-2.059-1.96-3.089-2.941l-3.113-2.915c-1.034-0.975-2.085-1.932-3.128-2.898L72.147,4.919z M72.308,4.743
				l3.139,2.885c1.048,0.96,2.089,1.929,3.146,2.879l3.161,2.862c1.062,0.945,2.116,1.898,3.185,2.836l0.179,0.158l-0.165,0.187
				l-0.001,0.001l-8.704,9.425l-0.153,0.165l-0.165-0.152l-0.001-0.001c-1.149-1.094-2.309-2.175-3.465-3.262l-3.484-3.24
				l-3.5-3.224l-1.751-1.611l-0.219-0.201c-0.038-0.037-0.067-0.059-0.118-0.112c-0.012-0.013-0.025-0.028-0.038-0.051
				c-0.012-0.024-0.034-0.052-0.033-0.122c0.001-0.034,0.018-0.077,0.042-0.104c0.023-0.025,0.046-0.04,0.064-0.048
				c0.036-0.017,0.058-0.019,0.079-0.023c0.147-0.013,0.235,0.011,0.341,0.025c0.102,0.018,0.2,0.038,0.299,0.058l1.167,0.252
				c0.774,0.15,1.561,0.299,2.314,0.342c0.185,0.008,0.372,0.008,0.522-0.018c0.073-0.012,0.135-0.04,0.142-0.049
				c-0.003,0.002,0.009-0.011,0.019-0.026c0.011-0.016,0.02-0.042,0.028-0.071c0.036-0.122,0.031-0.305,0.018-0.485
				c-0.014-0.182-0.044-0.372-0.076-0.562c-0.122-0.768-0.324-1.55-0.371-2.371c-0.013-0.206-0.013-0.415,0.015-0.627
				c0.027-0.211,0.082-0.434,0.218-0.628c0.136-0.195,0.336-0.333,0.543-0.409c0.208-0.077,0.42-0.113,0.629-0.131
				c0.834-0.057,1.632,0.095,2.411,0.189c0.385,0.044,0.781,0.1,1.111,0.071c0.08-0.008,0.154-0.023,0.203-0.044
				c0.051-0.02,0.07-0.048,0.065-0.041c0.011-0.016,0.026-0.086,0.026-0.161c0.001-0.077-0.006-0.164-0.018-0.252
				c-0.047-0.358-0.152-0.736-0.254-1.111c-0.107-0.376-0.228-0.752-0.353-1.127c-0.127-0.375-0.25-0.752-0.382-1.129
				c-0.065-0.189-0.126-0.379-0.184-0.576c-0.025-0.104-0.058-0.191-0.056-0.336c0.002-0.021,0.005-0.044,0.018-0.075
				c0.011-0.03,0.052-0.082,0.107-0.094c0.052-0.012,0.083-0.001,0.106,0.006c0.024,0.008,0.04,0.017,0.056,0.026
				C72.229,4.671,72.268,4.707,72.308,4.743z"/>
		</g>
		<g class="st1">
			<path class="st2" d="M90.549,21.561l-0.355-0.316l-6.72,7.338c-4.394-4.067-10.264-9.367-14.902-13.737
				c-0.061-0.057-1.254,0.106-1.254,0.106l-2.386-0.543l-1.593-0.268l20.818,19.162l1.4,0.143l1.616-1.436
				c0,0-1.342-1.246-3.338-3.094L90.549,21.561z"/>
		</g>
		<g class="st16">
			<path class="st0" d="M65.436,5.989L62.994,5.39c0,0-0.048-0.215,0.359-0.239c0.407-0.024,2.754,0.263,2.754,0.263l-0.048,0.479
				L65.436,5.989z"/>
		</g>
		<g>
			<g>
				<path d="M63.98,7.903c0.083-0.101,0.093-0.3,0.097-0.476c0.003-0.182-0.004-0.37,0.009-0.562
					c0.016-0.189,0.039-0.394,0.159-0.575c0.123-0.182,0.328-0.279,0.519-0.318c0.193-0.042,0.384-0.051,0.569-0.059
					c0.184-0.008,0.372-0.012,0.526-0.062c0.035-0.015,0.071-0.03,0.092-0.052c0.016-0.011,0.02-0.018,0.027-0.028
					c0.006-0.011,0.011-0.027,0.016-0.044c0.016-0.072,0.013-0.161,0.005-0.249C65.98,5.301,65.94,5.121,65.9,4.94V4.94l0.089,0.069
					c-0.471,0.036-0.942,0.067-1.414,0.096c-0.235,0.018-0.47,0.028-0.698,0.057c-0.225,0.028-0.456,0.072-0.582,0.195
					c-0.123,0.122-0.148,0.355-0.157,0.579c-0.009,0.228,0.006,0.464,0.011,0.699c0.018,0.472,0.029,0.945,0.037,1.418l-0.081-0.083
					l0,0c0.16,0.011,0.32,0.02,0.476,0.017c0.078-0.001,0.155-0.006,0.228-0.018C63.882,7.956,63.954,7.932,63.98,7.903z
					 M64.109,8.021c-0.09,0.087-0.185,0.101-0.27,0.118c-0.087,0.014-0.171,0.019-0.254,0.021c-0.167,0.004-0.33-0.006-0.492-0.017
					l0,0l-0.076-0.003L63.011,8.06c-0.037-0.471-0.069-0.942-0.097-1.414c-0.015-0.237-0.027-0.473-0.022-0.718
					c-0.001-0.06,0.004-0.122,0.01-0.185c0.004-0.062,0.012-0.125,0.028-0.19c0.02-0.127,0.084-0.267,0.186-0.375
					c0.056-0.049,0.113-0.097,0.177-0.124c0.062-0.036,0.125-0.053,0.188-0.071c0.125-0.035,0.248-0.054,0.368-0.066
					c0.242-0.028,0.478-0.038,0.716-0.047c0.473-0.018,0.945-0.028,1.419-0.036l0.075-0.001l0.014,0.069v0.001
					c0.041,0.182,0.081,0.367,0.101,0.559c0.008,0.097,0.014,0.196-0.009,0.307c-0.008,0.028-0.016,0.057-0.032,0.087
					c-0.016,0.03-0.042,0.059-0.064,0.076c-0.046,0.043-0.098,0.064-0.148,0.085c-0.203,0.065-0.392,0.062-0.578,0.073
					c-0.185,0.008-0.367,0.017-0.538,0.054c-0.172,0.035-0.324,0.115-0.412,0.244C64.3,6.519,64.274,6.7,64.26,6.877
					c-0.013,0.179-0.006,0.364-0.009,0.553c-0.003,0.095-0.004,0.19-0.02,0.29C64.214,7.818,64.192,7.926,64.109,8.021z"/>
			</g>
		</g>
		<g>
			<path class="st17" d="M74.235,15.882c0.044-0.025,0.113-0.003,0.171-0.004c0.04-0.001,0.081-0.005,0.121-0.008
				c-0.009-0.04-0.008-0.086-0.03-0.117c-0.045-0.061-0.099-0.118-0.155-0.169c-0.125-0.112-0.254-0.22-0.406-0.35
				c-0.009,0.067-0.025,0.103-0.014,0.118c0.064,0.081,0.01,0.13-0.047,0.17c-0.16,0.116-0.452,0.123-0.613-0.009
				c-0.117-0.097-0.118-0.205,0.001-0.302c0.089-0.072,0.187-0.136,0.286-0.193c0.246-0.14,0.499-0.227,0.793-0.148
				c0.318,0.086,0.449,0.401,0.232,0.697c0.078,0.035,0.15,0.097,0.209,0.087c0.141-0.026,0.276-0.085,0.412-0.133
				c0.071-0.025,0.06-0.07,0.013-0.102c-0.028-0.019-0.074-0.025-0.108-0.018c-0.114,0.023-0.159-0.029-0.167-0.134
				c-0.002-0.03-0.003-0.06-0.013-0.088c-0.143-0.416-0.722-0.769-1.164-0.721c-0.291,0.032-0.54,0.136-0.746,0.35
				c-0.174,0.182-0.232,0.523-0.093,0.726c0.152,0.22,0.375,0.354,0.622,0.423C73.771,16.024,74.012,16.007,74.235,15.882z"/>
			<path class="st17" d="M69.217,11.074c0.276-0.096,0.421-0.33,0.391-0.616c-0.008-0.073-0.032-0.162-0.081-0.21
				c-0.203-0.197-0.413-0.382-0.612-0.562c-0.213,0.055-0.403,0.151-0.516,0.316c-0.082,0.119-0.122,0.273-0.145,0.432
				c0.192-0.089,0.384-0.179,0.576-0.268c0.085-0.04,0.167-0.089,0.257-0.107c0.052-0.011,0.119,0.023,0.172,0.052
				c0.04,0.021,0.065,0.066,0.099,0.1c0.063,0.062,0.063,0.116,0.004,0.188c-0.211,0.259-0.491,0.386-0.81,0.445
				c-0.097-0.019-0.201,0.004-0.299-0.013c0.004,0.074-0.003,0.146,0.006,0.221c0.003,0.023,0.009,0.046,0.013,0.069
				c0.094,0.069,0.234,0.117,0.345,0.106C68.82,11.206,69.022,11.142,69.217,11.074z"/>
			<path class="st17" d="M73.358,13.656c-0.199-0.271-0.468-0.417-0.811-0.413c-0.261,0.002-0.615,0.09-0.798,0.234
				c-0.312,0.243-0.389,0.628-0.119,0.923c0.428,0.469,1.305,0.34,1.652-0.014C73.488,14.175,73.532,13.894,73.358,13.656z
				 M73.183,13.873c-0.138,0.211-0.35,0.321-0.576,0.403c-0.147,0.053-0.303,0.081-0.43,0.113c-0.105-0.02-0.182-0.028-0.254-0.052
				c-0.149-0.048-0.187-0.192-0.081-0.318c0.153-0.181,0.355-0.294,0.572-0.377c0.11-0.042,0.232-0.052,0.346-0.086
				c0.143-0.042,0.261,0.014,0.375,0.085C73.244,13.709,73.252,13.766,73.183,13.873z"/>
			<path class="st17" d="M72.127,13.068c0.116-0.059,0.155-0.299,0.064-0.386c-0.235-0.224-0.473-0.444-0.712-0.663
				c-0.04-0.037-0.09-0.062-0.136-0.093c-0.006,0.007-0.012,0.014-0.018,0.021c0.013,0.037,0.027,0.073,0.047,0.131
				c-0.106,0.047-0.206,0.092-0.305,0.137c-0.241,0.109-0.478,0.226-0.723,0.322c-0.126,0.049-0.261,0.153-0.417,0.027
				c0.14,0.227,0.34,0.381,0.513,0.561c0.014-0.004,0.029-0.009,0.043-0.013c-0.004-0.064-0.007-0.128-0.011-0.191
				c-0.008-0.013-0.015-0.026-0.023-0.04c0.172-0.066,0.344-0.134,0.517-0.199c0.097-0.036,0.123,0.011,0.094,0.094
				c-0.035,0.1-0.082,0.197-0.122,0.295c-0.074,0.179-0.147,0.359-0.221,0.541c0.167,0.063,0.312,0.124,0.462,0.17
				c0.049,0.015,0.11-0.011,0.166-0.018c-0.018-0.044-0.025-0.098-0.057-0.131c-0.075-0.078-0.073-0.154-0.03-0.246
				c0.039-0.081,0.064-0.167,0.097-0.251c0.018-0.045,0.041-0.088,0.062-0.131c0.091,0.036,0.167,0.063,0.242,0.095
				C71.823,13.173,71.978,13.143,72.127,13.068z M71.277,12.65c-0.076-0.042-0.054-0.104,0.011-0.137
				c0.102-0.052,0.207-0.095,0.314-0.137c0.15-0.059,0.218,0.055,0.286,0.15c0.026,0.036,0.051,0.119,0.035,0.133
				c-0.078,0.066-0.169,0.116-0.256,0.172C71.52,12.764,71.394,12.715,71.277,12.65z"/>
			<path class="st17" d="M70.102,12.216c-0.151-0.031-0.313,0.092-0.458-0.022c-0.128-0.1-0.255-0.199-0.4-0.312
				c0.061-0.059,0.101-0.11,0.153-0.143c0.09-0.056,0.194-0.091,0.281-0.15c0.09-0.062,0.162-0.044,0.23,0.023
				c0.062,0.062,0.116,0.133,0.179,0.208c-0.037,0.032-0.068,0.055-0.091,0.084c-0.019,0.023-0.029,0.054-0.042,0.081
				c0.03,0.011,0.068,0.039,0.088,0.03c0.155-0.073,0.306-0.155,0.458-0.233c-0.004-0.016-0.006-0.032-0.01-0.049
				c-0.039-0.003-0.082-0.017-0.117-0.006c-0.126,0.041-0.322-0.066-0.347-0.201c-0.004-0.022,0.015-0.062,0.035-0.072
				c0.125-0.064,0.25-0.129,0.381-0.179c0.035-0.013,0.094,0.013,0.131,0.037c0.046,0.03,0.082,0.075,0.121,0.114
				c0.2,0.202,0.199,0.202,0.007,0.41c-0.008,0.009-0.013,0.021-0.032,0.053c0.043,0.021,0.098,0.069,0.122,0.057
				c0.148-0.076,0.29-0.165,0.451-0.26c-0.088-0.032-0.157-0.038-0.2-0.075c-0.203-0.176-0.401-0.36-0.598-0.543
				c-0.121-0.112-0.238-0.227-0.357-0.341c-0.013,0.004-0.028,0.008-0.041,0.013c0.074,0.129,0.016,0.188-0.091,0.24
				c-0.267,0.131-0.534,0.264-0.791,0.413c-0.147,0.085-0.269,0.105-0.405-0.009c-0.023-0.019-0.076-0.003-0.153-0.003
				c0.069,0.084,0.103,0.138,0.148,0.181c0.153,0.143,0.309,0.283,0.465,0.423c0.143,0.129,0.283,0.261,0.429,0.386
				c0.029,0.025,0.083,0.052,0.111,0.042c0.122-0.046,0.238-0.106,0.357-0.16C70.111,12.241,70.107,12.229,70.102,12.216z"/>
			<path class="st17" d="M75.671,15.904c-0.04,0.031-0.081,0.086-0.132,0.098c-0.173,0.042-0.349,0.071-0.525,0.102
				c-0.239,0.041-0.477,0.089-0.717,0.114c-0.125,0.013-0.256,0.093-0.383-0.004c-0.02-0.016-0.055-0.014-0.083-0.02
				c0.005,0.031-0.002,0.074,0.016,0.092c0.139,0.138,0.282,0.273,0.428,0.405c0.023,0.02,0.066,0.019,0.101,0.028
				c-0.003-0.035-0.006-0.069-0.008-0.103c-0.004-0.054-0.03-0.143-0.009-0.155c0.076-0.046,0.181-0.109,0.251-0.088
				c0.114,0.035,0.213,0.126,0.312,0.202c0.107,0.081,0.113,0.128,0.012,0.214c-0.055,0.047-0.134,0.066-0.205,0.09
				c-0.038,0.012-0.082,0.006-0.142,0.008c0.013,0.04,0.013,0.061,0.023,0.071c0.151,0.15,0.302,0.302,0.459,0.447
				c0.025,0.023,0.083,0.011,0.126,0.016c-0.005-0.038,0.004-0.089-0.018-0.113c-0.09-0.1-0.049-0.179,0.028-0.254
				c0.143-0.141,0.292-0.274,0.43-0.42c0.151-0.16,0.292-0.331,0.426-0.485C75.957,16.082,75.81,15.991,75.671,15.904z
				 M75.358,16.395c-0.069,0.064-0.146,0.119-0.223,0.17c-0.016,0.01-0.056-0.004-0.077-0.019c-0.039-0.026-0.076-0.058-0.105-0.094
				c-0.025-0.03-0.062-0.078-0.053-0.103c0.013-0.036,0.06-0.073,0.099-0.083c0.09-0.022,0.186-0.028,0.305-0.044
				c0.02,0.013,0.071,0.03,0.089,0.066C75.405,16.312,75.383,16.372,75.358,16.395z"/>
		</g>
	</g>
</g>
</svg>
