<?xml version="1.0" encoding="utf-8"?>
<!-- Generator: Adobe Illustrator 25.4.1, SVG Export Plug-In . SVG Version: 6.00 Build 0)  -->
<svg version="1.1" id="Layer_1" xmlns="http://www.w3.org/2000/svg" xmlns:xlink="http://www.w3.org/1999/xlink" x="0px" y="0px"
	 viewBox="0 0 1366 76.218" style="enable-background:new 0 0 1366 76.218;" xml:space="preserve">
<g>
	<path fill="#FFFFFF" d="M0,44.202c1.274-0.733,2.127-1.557,2.846-2.844c0.237,0,0.474,0,0.711,0c-0.237-0.711-0.474-1.422-0.711-2.133
		c1.186,0,2.372,0,3.557,0c0-0.237,0-0.474,0-0.711c0.237,0,0.474,0,0.711,0c0-0.711,0-1.422,0-2.133c0.474,0,0.949,0,1.423,0
		c0.237-0.474,0.474-0.948,0.711-1.422c1.897,0.237,3.795,0.474,5.692,0.711c0-0.237,0-0.474,0-0.711c1.897,0,3.795,0,5.692,0
		c0-0.237,0-0.474,0-0.711c1.423,0.237,2.846,0.474,4.269,0.711c0.237-0.474,0.474-0.948,0.711-1.422
		c0.949-0.237,1.897-0.474,2.846-0.711c0,0.711,0,1.422,0,2.133c1.423,0.474,2.846,0.948,4.269,1.422c0-0.237,0-0.474,0-0.711
		c1.66-0.237,3.32-0.474,4.98-0.711c0.706,0.294,0.912,2.691,2.846,2.133c0.474-0.711,0.949-1.422,1.423-2.133
		c1.897,0,3.795,0,5.692,0c0-0.711,0-1.422,0-2.133c-0.237,0-0.474,0-0.711,0c1.533-1.36,4.204,0.254,6.403-0.711
		c0.237-0.474,0.474-0.948,0.711-1.422c0.474,0,0.949,0,1.423,0c0-0.237,0-0.474,0-0.711c2.134,0.474,4.269,0.948,6.403,1.422
		c0-0.237,0-0.474,0-0.711c0.711-0.237,1.423-0.474,2.134-0.711c0-0.237,0-0.474,0-0.711c2.906-0.871,4.304,2.356,7.826,1.422
		c0-0.237,0-0.474,0-0.711c1.897,0,3.795,0,5.692,0c0.237-0.474,0.474-0.948,0.711-1.422c1.66,0,3.32,0,4.98,0
		c-0.237-0.948-0.474-1.896-0.711-2.844c3.32,0,6.641,0,9.96,0c0-0.237,0-0.474,0-0.711c0.949-0.237,1.897-0.474,2.846-0.711
		c0-0.474,0-0.948,0-1.422c3.32-0.711,6.641-1.422,9.96-2.133c0-0.237,0-0.474,0-0.711c3.557-0.237,7.115-0.474,10.672-0.711
		c0.474-0.711,0.949-1.422,1.423-2.133c1.186,0.474,2.372,0.948,3.557,1.422c0-0.237,0-0.474,0-0.711c0.474,0,0.949,0,1.423,0
		c0-0.237,0-0.474,0-0.711c2.134,0,4.269,0,6.403,0c0-0.237,0-0.474,0-0.711c0.237,0,0.474,0,0.711,0c0,0.237,0,0.474,0,0.711
		c1.66,0,3.32,0,4.98,0c0,0.237,0,0.474,0,0.711c0.711,0,1.423,0,2.134,0c0,0.237,0,0.474,0,0.711c0.711,0,1.423,0,2.134,0
		c0,0.237,0,0.474,0,0.711c0.711,0,1.423,0,2.134,0c0,0.237,0,0.474,0,0.711c0.711,0,1.423,0,2.134,0c0,0.237,0,0.474,0,0.711
		c1.186,0,2.372,0,3.557,0c0,0.237,0,0.474,0,0.711c1.423,0.474,2.846,0.948,4.269,1.422c0,0.474,0,0.948,0,1.422
		c5.622,0.378,7.032,3.358,12.806,3.555c-0.237,0.711-0.474,1.422-0.711,2.133c2.171,0.488,2.46,1.196,4.98,1.422
		c0,0.711,0,1.422,0,2.133c5.726,1.192,10.021,4.472,14.941,6.399c1.897,0.237,3.795,0.474,5.692,0.711
		c0.237,0.474,0.474,0.948,0.711,1.422c0.711,0,1.423,0,2.134,0c0,0.237,0,0.474,0,0.711c1.936,0.542,1.62,0.169,2.134,2.133
		c3.16,0.098,4.478,0.208,6.403,1.422c0.237,0.474,0.474,0.948,0.711,1.422c4.506,0.711,9.012,1.422,13.518,2.133
		c0,0.474,0,0.948,0,1.422c3.609,0.84,4.581,3.183,8.537,3.555c0,0.474,0,0.948,0,1.422c1.66-0.237,3.32-0.474,4.98-0.711
		c0,0.474,0,0.948,0,1.422c4.764,0.119,5.093,0.713,9.249,0c0-0.474,0-0.948,0-1.422c1.062,0.205,4.062,1.444,5.692,0.711
		c0.474-0.711,0.949-1.422,1.423-2.133c0.474,0,0.949,0,1.423,0c0-0.237,0-0.474,0-0.711c2.906-1.085,4.121,0.856,5.692-1.422
		c2.719,0.07,2.97-0.142,3.557,2.133c1.186,0,2.372,0,3.557,0c0,0.474,0,0.948,0,1.422c0.474,0,0.949,0,1.423,0
		c0,0.474,0,0.948,0,1.422c2.41-0.549,3.267-1.647,5.692-2.133c0,0.474,0,0.948,0,1.422c0.474,0,0.949,0,1.423,0
		c0,0.237,0,0.474,0,0.711c1.745,0.53,1.447-1.035,2.134-1.422c0.474,0,0.949,0,1.423,0c0-0.237,0-0.474,0-0.711
		c0.474,0,0.949,0,1.423,0c0.237-0.474,0.474-0.948,0.712-1.422c1.423-0.237,2.846-0.474,4.269-0.711c0-0.237,0-0.474,0-0.711
		c0.474,0,0.949,0,1.423,0c0-0.237,0-0.474,0-0.711c0.711,0,1.423,0,2.134,0c0-0.237,0-0.474,0-0.711
		c2.134-0.474,4.269-0.948,6.403-1.422c0-0.474,0-0.948,0-1.422c1.897,0.237,3.795,0.474,5.692,0.711
		c0.237,0.474,0.474,0.948,0.711,1.422c0.474,0,0.949,0,1.423,0c0,0.237,0,0.474,0,0.711c1.186,0,2.372,0,3.557,0
		c1.458,0.559,2.827,3.004,5.692,2.133c0-0.237,0-0.474,0-0.711c0.949-0.237,1.897-0.474,2.846-0.711c0-0.474,0-0.948,0-1.422
		c1.66,0,3.32,0,4.98,0c0,0.237,0,0.474,0,0.711c2.718-0.07,2.97,0.142,3.557-2.133c1.186,0.237,2.372,0.474,3.557,0.711
		c0.093-0.016,0.265-1.114,1.423-0.711c-0.237,0.474-0.474,0.948-0.712,1.422c1.186,0,2.372,0,3.557,0
		c-0.237,0.711-0.474,1.422-0.712,2.133c0.949,0,1.897,0,2.846,0c0,0.474,0,0.948,0,1.422c3.687,0.071,5.855,0.701,8.537,1.422
		c1.186,0,2.372,0,3.557,0c0-0.237,0-0.474,0-0.711c2.608,0.237,5.218,0.474,7.826,0.711c0.428,1.419-0.099,0.612,0.711,1.422
		c0,0.237,0,0.474,0,0.711c0.949,0,1.897,0,2.846,0c0,0.237,0,0.474,0,0.711c0.949,0,1.897,0,2.846,0
		c0.237,0.474,0.474,0.948,0.712,1.422c1.897-0.237,3.795-0.474,5.692-0.711c1.897,0.237,3.795,0.474,5.692,0.711
		c1.186-0.237,2.372-0.474,3.557-0.711c0-0.237,0-0.474,0-0.711c0.106-0.018,1.673,0.676,2.846,0.711c0-0.711,0-1.422,0-2.133
		c0.237,0,0.474,0,0.711,0c0.493-0.309,0.025-1.027,1.423-0.711c0.237,0.474,0.474,0.948,0.712,1.422c1.423,0,2.846,0,4.269,0
		c0,0.237,0,0.474,0,0.711c0.948,0.237,1.897,0.474,2.846,0.711c0,0.237,0,0.474,0,0.711c2.371,0.237,4.743,0.474,7.115,0.711
		c1.92,0.651,3.006,1.863,5.692,2.133c0,0.474,0,0.948,0,1.422c3.083,0.474,6.166,0.948,9.249,1.422c0,0.474,0,0.948,0,1.422
		c3.557,0.237,7.115,0.474,10.672,0.711c0,0.237,0,0.474,0,0.711c0.237,0,0.474,0,0.711,0c0.411-0.142,1.205-2.013,1.423-2.844
		c1.662-0.199,1.774-0.218,2.846-0.711c0-0.237,0-0.474,0-0.711l0.711,0.711c1.186,0,2.372,0,3.557,0c0-0.474,0-0.948,0-1.422
		c1.897,0,3.795,0,5.692,0c0-0.237,0-0.474,0-0.711c0.474,0,0.949,0,1.423,0c0-0.237,0-0.474,0-0.711c1.186,0,2.372,0,3.557,0
		c0-0.237,0-0.474,0-0.711c0.711,0.237,1.423,0.474,2.134,0.711c2.134,0,4.269,0,6.403,0c0-0.237,0-0.474,0-0.711
		c0.474,0.237,0.949,0.474,1.423,0.711c0-0.237,0-0.474,0-0.711c1.66,0.237,3.32,0.474,4.98,0.711c0-0.237,0-0.474,0-0.711
		c0.474,0,0.949,0,1.423,0c0-0.237,0-0.474,0-0.711c1.897-0.237,3.795-0.474,5.692-0.711c0,0.474,0,0.948,0,1.422
		c5.627,0.129,11.456,0.673,13.518-2.844c0.237,0,0.474,0,0.711,0c-0.237,0.711-0.474,1.422-0.711,2.133
		c1.423-0.237,2.846-0.474,4.269-0.711c0.237-0.711,0.474-1.422,0.712-2.133c0.237,0,0.474,0,0.711,0c0,0.474,0,0.948,0,1.422
		c0.474,0,0.949,0,1.423,0c0-0.948,0-1.896,0-2.844c0.237,0,0.474,0,0.711,0c0-0.237,0-0.474,0-0.711
		c1.6-0.618,2.336,1.554,3.557,1.422c0-0.237,0-0.474,0-0.711c1.423-0.237,2.846-0.474,4.269-0.711c0-0.237,0-0.474,0-0.711
		c0.474,0,0.949,0,1.423,0c0-0.237,0-0.474,0-0.711c2.608,0,5.218,0,7.826,0c0-0.237,0-0.474,0-0.711c0.237,0,0.474,0,0.712,0
		c0,0.237,0,0.474,0,0.711c0.711,0,1.423,0,2.134,0c0.237,0.474,0.474,0.948,0.711,1.422c1.423-0.237,2.846-0.474,4.269-0.711
		c1.903,0.519,3.708,1.274,6.403,1.422c-0.678,1.276-1.015,1.106-1.423,2.844c0.711,0,1.423,0,2.134,0
		c-0.237,0.711-0.474,1.422-0.711,2.133c3.616,0.106,6.831,0.879,9.96,1.422c0-0.711,0-1.422,0-2.133
		c1.086,0.416,1.158,0.568,2.846,0.711c-0.523,1.035-1.66,1.204-1.423,2.844l0.711,0.711c-0.237,0-0.474,0-0.711,0
		c0,0.237,0,0.474,0,0.711c0.474,0,0.949,0,1.423,0c-0.237,0.711-0.474,1.422-0.711,2.133c0,0,0.457,0.053,0.711,1.422
		c0.474,0,0.949,0,1.423,0c0,0.474,0,0.948,0,1.422c2.371,0.474,4.743,0.948,7.115,1.422c0-0.474,0-0.948,0-1.422
		c1.619-0.222,1.834-0.098,2.846-0.711c0-0.237,0-0.474,0-0.711c0.711,0,1.423,0,2.134,0c0-0.237,0-0.474,0-0.711
		c0.711,0,1.423,0,2.134,0c0-0.237,0-0.474,0-0.711c0.474,0,0.949,0,1.423,0c0-0.237,0-0.474,0-0.711
		c0.711-0.237,1.423-0.474,2.134-0.711c0-0.474,0-0.948,0-1.422c3.493-0.748,5.409-2.539,9.249-2.844c0-0.474,0-0.948,0-1.422
		c1.423-0.237,2.846-0.474,4.269-0.711c0-0.237,0-0.474,0-0.711c0.711,0.237,1.423,0.474,2.134,0.711
		c0.237-0.474,0.474-0.948,0.711-1.422c2.608,0.237,5.218,0.474,7.826,0.711c0-0.237,0-0.474,0-0.711c0.711,0,1.423,0,2.134,0
		c0-0.237,0-0.474,0-0.711c1.66,0.237,3.32,0.474,4.98,0.711c0-0.237,0-0.474,0-0.711c1.186,0.237,2.372,0.474,3.557,0.711
		c0.237-0.474,0.474-0.948,0.711-1.422c1.66,0.237,3.32,0.474,4.98,0.711c0-0.474,0-0.948,0-1.422c2.24-0.462,3.3-1.145,4.269-2.844
		c0.237,0,0.474,0,0.711,0c-0.678,1.276-1.015,1.106-1.423,2.844c1.66-0.237,3.32-0.474,4.98-0.711c0-0.237,0-0.474,0-0.711
		c1.423,0,2.846,0,4.269,0c0-0.237,0-0.474,0-0.711c0.711,0,1.423,0,2.134,0c0-0.237,0-0.474,0-0.711c0.948,0,1.897,0,2.846,0
		c0-0.237,0-0.474,0-0.711c0.237,0,0.474,0,0.711,0c0,0.237,0,0.474,0,0.711c1.186,0,2.372,0,3.557,0
		c-0.237-0.711-0.474-1.422-0.711-2.133c1.186,0.237,2.372,0.474,3.557,0.711c0,0.237,0,0.474,0,0.711
		c0.949-0.237,1.897-0.474,2.846-0.711c0-0.237,0-0.474,0-0.711c0.711,0,1.423,0,2.134,0c0.338-0.161,0.26-1.199,1.423-1.422
		c0,0.237,0,0.474,0,0.711c3.337,0.123,5.276-2.799,8.537-2.133c0,0.237,0,0.474,0,0.711c1.186-0.237,2.372-0.474,3.557-0.711
		c0,0.237,0,0.474,0,0.711c0.711-0.237,1.423-0.474,2.134-0.711c2.608,0,5.218,0,7.826,0c0,0.237,0,0.474,0,0.711
		c1.054,0.222,1.423-0.711,1.423-0.711c0.237,0,0.474,0,0.711,0c0,0.237,0,0.474,0,0.711c0.949-0.237,1.897-0.474,2.846-0.711
		c0,0.474,0,0.948,0,1.422c0.711,0.237,1.423,0.474,2.134,0.711l0.711-0.711c0,0.474,0,0.948,0,1.422
		c1.902-0.024,3.358,0.453,4.269-0.711c0.237,0,0.474,0,0.711,0c0.857,0.577-0.773,1.322,2.134,2.133c0-0.711,0-1.422,0-2.133
		c0.237,0,0.474,0,0.711,0c0-0.237,0-0.474,0-0.711c0.237,0,0.474,0,0.711,0c-0.237,0.474-0.474,0.948-0.711,1.422
		c5.307,0.113,13.417,1.936,16.364-1.422c0,0,2.767,0.1,1.423,0.711c-0.237,0-0.474,0-0.711,0c0,0.237,0,0.474,0,0.711
		c1.186,0,2.372,0,3.557,0c0,0.474,0,0.948,0,1.422c4.421,0.49,7.103,2.492,11.383,2.844c0,0.474,0,0.948,0,1.422
		c1.196-0.052,2.683-0.734,2.846-0.711c0,0.474,0,0.948,0,1.422c0.237,0,0.474,0,0.711,0c0-0.474,0-0.948,0-1.422
		c0.711,0.237,1.423,0.474,2.134,0.711c0,0.237,0,0.474,0,0.711c1.897-0.237,3.795-0.474,5.692-0.711
		c0.237,0.474,0.474,0.948,0.711,1.422c0.949-0.237,1.897-0.474,2.846-0.711c-1.21,1.517-1.473,0.391-2.134,2.844
		c1.594,0.22,1.872,0.056,2.846,0.711c0,0.237,0,0.474,0,0.711c0.474,0,0.949,0,1.423,0c0.237,0.474,0.474,0.948,0.711,1.422
		c0.711,0,1.423,0,2.134,0c0,0.237,0,0.474,0,0.711c0.711,0,1.423,0,2.134,0c0.237,0.474,0.474,0.948,0.711,1.422
		c1.107,0.38,1.407-0.709,1.423-0.711c0.711,0.237,1.423,0.474,2.134,0.711c0-0.474,0-0.948,0-1.422c1.186,0,2.372,0,3.557,0
		c0,0.237,0,0.474,0,0.711c0.711,0,1.423,0,2.134,0c0,0.237,0,0.474,0,0.711c0.237,0,0.474,0,0.711,0
		c0.237-0.474,0.474-0.948,0.711-1.422c0,0,2.767,0.1,1.423,0.711c-0.237,0-0.474,0-0.711,0c0,0.237,0,0.474,0,0.711
		c1.679-0.169,1.759-0.301,2.846-0.711c0,0.474,0,0.948,0,1.422c2.608,0,5.218,0,7.826,0c0,0-0.146,2.601,0.711,1.422
		c0-0.237,0-0.474,0-0.711c0.474,0.237,0.949,0.474,1.423,0.711c0-0.474,0-0.948,0-1.422c0.237,0,0.474,0,0.711,0
		c0,0.237,0,0.474,0,0.711c0.474,0,0.949,0,1.423,0c0,0.237,0,0.474,0,0.711c1.186,0,2.372,0,3.557,0c0,0.237,0,0.474,0,0.711
		c1.186-0.237,2.372-0.474,3.557-0.711c0-0.237,0-0.474,0-0.711c1.66,0,3.32,0,4.98,0c0-0.237,0-0.474,0-0.711
		c1.66-0.237,3.32-0.474,4.98-0.711c0-0.237,0-0.474,0-0.711c2.636-1.005,3.571-1.367,7.115-1.422
		c0.428,1.419-0.099,0.612,0.711,1.422c0,0.237,0,0.474,0,0.711c1.423,0,2.846,0,4.269,0c0.237,0.474,0.474,0.948,0.711,1.422
		c1.423-0.237,2.846-0.474,4.269-0.711c0,0.237,0,0.474,0,0.711c0.237,0,0.474,0,0.712,0c0.649-1.27-0.492-2.224-0.712-2.844
		c2.846,0,5.692,0,8.538,0c0-0.237,0-0.474,0-0.711c1.423-0.237,2.846-0.474,4.269-0.711c0,0.474,0,0.948,0,1.422
		c2.054-0.516,2.359-0.763,2.846-2.844c2.171-0.488,2.46-1.196,4.98-1.422c-0.237-0.711-0.474-1.422-0.711-2.133
		c0.949,0,1.897,0,2.846,0c0.237-0.711,0.474-1.422,0.711-2.133c1.19-0.655,2.134,0.711,2.134,0.711
		c2.134-0.237,4.269-0.474,6.403-0.711c0-0.237,0-0.474,0-0.711c1.423,0,2.846,0,4.269,0c0,0-0.061,0.93,1.423,0.711
		c0,0,0.621-1.046,2.134-0.711c0,0.237,0,0.474,0,0.711c0.948,0,1.897,0,2.846,0c0-0.237,0-0.474,0-0.711
		c0.948,0.237,1.897,0.474,2.846,0.711c2.018-0.492,3.221-1.441,6.403-1.422c0-0.474,0-0.948,0-1.422c0.237,0,0.474,0,0.711,0
		c0,0.474,0,0.948,0,1.422c2.371-0.237,4.743-0.474,7.115-0.711c0-0.237,0-0.474,0-0.711c0.474,0,0.949,0,1.423,0
		c0-0.237,0-0.474,0-0.711c1.423,0.237,2.846,0.474,4.269,0.711c0.237,0.474,0.474,0.948,0.711,1.422c0.948,0,1.897,0,2.846,0
		c0,0.237,0,0.474,0,0.711c2.223,0.581,4.517-1.338,7.826-1.422c0.801,2.101-0.114,0.792,2.134,0.711
		c0.532,2.007,1.272,2.042,2.134,3.555c1.897,0.237,3.795,0.474,5.692,0.711c0-0.474,0-0.948,0-1.422c0.237,0,0.474,0,0.711,0
		c0,0.474,0,0.948,0,1.422c2.134-0.237,4.269-0.474,6.403-0.711c-0.801,2.101,0.114,0.792-2.134,0.711
		c0.237,0.711,0.474,1.422,0.711,2.133c1.423-0.237,2.846-0.474,4.269-0.711c0-0.237,0-0.474,0-0.711c0.237,0,0.474,0,0.711,0
		c0,0.237,0,0.474,0,0.711c0.711,0,1.423,0,2.134,0c0,0.237,0,0.474,0,0.711c2.846-0.237,5.692-0.474,8.538-0.711
		c0,0.237,0,0.474,0,0.711c0.948,0,1.897,0,2.846,0c0.237,0.474,0.474,0.948,0.711,1.422c0.711-0.474,1.423-0.948,2.134-1.422
		c0,0.474,0,0.948,0,1.422c0.474,0.237,0.949,0.474,1.423,0.711c0,0.237,0,0.474,0,0.711c3.308,1.573,4.782-2.774,8.537,1.422
		c3.471-0.333,2.441-1.327,4.269-2.844c0.474,0,0.949,0,1.423,0c-1.337-1.663,0.316-0.532,0-2.133l-0.711-0.711
		c2.218,0.281,1.971,1.013,3.557-0.711c0.237,0,0.474,0,0.711,0c-0.237-0.711-0.474-1.422-0.711-2.133
		c0.474-0.237,0.949-0.474,1.423-0.711c1.056-1.943,0.211-2.609,0-4.977c0.474,0,0.949,0,1.423,0
		c0.058-2.367,0.396-3.216,0.711-4.977c1.42,0.428,0.612-0.099,1.423,0.711c0.951-0.819,1.123-1.295,1.423-2.844
		c2.719-0.07,2.97,0.142,3.557-2.133c0.474,0,0.949,0,1.423,0c0-0.474,0-0.948,0-1.422c1.423-0.237,2.846-0.474,4.269-0.711
		c0.472-1.778,0.372-1.16,1.423-2.133c0-0.237,0-0.474,0-0.711c0.474,0,0.949,0,1.423,0c0.474-0.711,0.949-1.422,1.423-2.133
		c0.474,0,0.949,0,1.423,0c0-0.237,0-0.474,0-0.711c0.711,0,1.423,0,2.134,0c0-0.237,0-0.474,0-0.711
		c1.186-0.237,2.372-0.474,3.557-0.711c0,0.237,0,0.474,0,0.711c2.789,0.568,0.209-1.069,2.846,0c0,0.237,0,0.474,0,0.711
		c0.981,0.225-0.276-0.516,0.711-0.711c1.423,0,2.846,0,4.269,0c0.197,0.045,0.208,0.969,1.423,0.711
		c0.366-0.078,4.424-2.21,4.98-2.133c0,0.237,0,0.474,0,0.711c0.474,0,0.949,0,1.423,0c0,0.237,0,0.474,0,0.711
		c1.994,0.676,3.477-0.221,4.98,0.711c0.474,0.711,0.949,1.422,1.423,2.133c1.186,0.237,2.372,0.474,3.557,0.711
		c0.898-0.453-0.283-0.866,0.711-0.711c0,0.237,0,0.474,0,0.711c0.711,0.237,1.423,0.474,2.134,0.711c0-0.474,0-0.948,0-1.422
		c1.423,0.237,2.846,0.474,4.269,0.711c0,0.237,0,0.474,0,0.711c3.794-0.237,7.589-0.474,11.383-0.711c0-0.711,0-1.422,0-2.133
		c2.371,0.711,4.743,1.422,7.115,2.133c0.428,1.419-0.099,0.612,0.711,1.422c0.543,1.934,0.169,1.619,2.134,2.133
		c0,0.711,0,1.422,0,2.133c0.948,0.237,1.897,0.474,2.846,0.711c-0.459,1.683-0.2,1.332-1.423,2.133c0,0.237,0,0.474,0,0.711
		c2.474,0.463,6.443,2.712,9.96,1.422c0-0.237,0-0.474,0-0.711c0.474,0,0.949,0,1.423,0c0.237-0.474,0.474-0.948,0.711-1.422
		c2.134-0.237,4.269-0.474,6.403-0.711c0,0.237,0,0.474,0,0.711c1.423-0.237,2.846-0.474,4.269-0.711c0,0.474,0,0.948,0,1.422
		c1.6,0.234,1.856,0.066,2.846,0.711c0,0.237,0,0.474,0,0.711c0.474,0,0.949,0,1.423,0c0,0.237,0,0.474,0,0.711
		c1.423,0.237,2.846,0.474,4.269,0.711c0.237,0.474,0.474,0.948,0.711,1.422c0.949,0,1.897,0,2.846,0c0,0.237,0,0.474,0,0.711
		c0.711,0,1.423,0,2.134,0c0.237,0.474,0.474,0.948,0.711,1.422c1.423,0,2.846,0,4.269,0c0.237,0.711,0.474,1.422,0.711,2.133
		c2.444-0.138,2.643-0.898,4.98,0c0,0.237,0,0.474,0,0.711c0.474,0,0.949,0,1.423,0c0,0.237,0,0.474,0,0.711l0.711-0.711
		c0.474,0,0.949,0,1.423,0c0,0.237,0,0.474,0,0.711c0.237,0,0.474,0,0.712,0c0-0.237,0-0.474,0-0.711c0.711,0,1.423,0,2.134,0
		c0-0.237,0-0.474,0-0.711c1.673-0.483,3.899,0.319,4.98,0.711c0,0.237,0,0.474,0,0.711c1.186-0.237,2.372-0.474,3.557-0.711
		c0.237-1.422,0.474-2.844,0.711-4.266c0.237,0,0.474,0,0.711,0c0-0.237,0-0.474,0-0.711c1.186-0.237,2.372-0.474,3.557-0.711
		c0-0.474,0-0.948,0-1.422c1.42-0.428,0.612,0.099,1.423-0.711c1.936-0.542,1.62-0.169,2.134-2.133c0,0,2.734,0.035,1.423,0.711
		c-0.237,0-0.474,0-0.712,0c0,0.711,0,1.422,0,2.133c0.237,0,0.474,0,0.712,0c0-0.474,0-0.948,0-1.422
		c2.906-0.446,1.803-0.265,4.98,0c0-1.185,0-2.37,0-3.555c1.423,0.474,2.846,0.948,4.269,1.422c0.711-0.948,1.423-1.896,2.134-2.844
		c0.237,0,0.474,0,0.712,0c0,0-0.886-0.211,0-2.844c0.711-0.237,1.423-0.474,2.134-0.711c0,0.474,0,0.948,0,1.422
		c0.474,0,0.949,0,1.423,0c0-0.948,0-1.896,0-2.844c0.948,0,1.897,0,2.846,0c0-0.237,0-0.474,0-0.711c0.474,0,0.949,0,1.423,0
		c-0.585-0.921-0.488-0.847-1.423-1.422c0.608-0.801-0.096-0.111,0.711-0.711c0-0.237,0-0.474,0-0.711
		c0.474,0.237,0.949,0.474,1.423,0.711c0-0.474,0-0.948,0-1.422c0,0,2.767-0.1,1.423-0.711c-0.237,0-0.474,0-0.712,0
		c0-0.237,0-0.474,0-0.711c0.711,0,1.423,0,2.134,0c0-0.474,0-0.948,0-1.422c2.134-0.237,4.269-0.474,6.403-0.711
		c-0.578-2.392-1.493-3.309-4.269-3.555c0-0.237,0-0.474,0-0.711c2.089-0.937,2.366,1.163,2.846,1.422c0.474,0,0.949,0,1.423,0
		c0,0.237,0,0.474,0,0.711c0.711,0,1.423,0,2.134,0c0-0.711,0-1.422,0-2.133c0.237,0,0.474,0,0.712,0c0-0.237,0-0.474,0-0.711
		c1.423,0.237,2.846,0.474,4.269,0.711c0,0.237,0,0.474,0,0.711c1.186-0.237,2.372-0.474,3.557-0.711c0.237,0,0.474,0,0.712,0
		c0,0.237,0,0.474,0,0.711c0.711,0,1.423,0,2.134,0c0,0.237,0,0.474,0,0.711c-0.237,0-0.474,0-0.711,0c0,0.237,0,0.474,0,0.711
		c0.237,0,0.474,0,0.711,0c0,0.237,0,0.474,0,0.711c1.186-0.237,2.372-0.474,3.557-0.711c0.237-0.474,0.474-0.948,0.711-1.422
		c0.948,0,1.897,0,2.846,0c-0.237-0.474-0.474-0.948-0.711-1.422c1.466-0.796,0.823,0.8,2.134-0.711
		c0.445-0.902,0.872,0.281,0.711-0.711c-0.237,0-0.474,0-0.711,0c0-0.237,0-0.474,0-0.711c0.572,0.313,1.417,1.419,1.423,1.422
		c2.371,0.237,4.743,0.474,7.115,0.711c0.237,0.474,0.474,0.948,0.711,1.422c1.615,0.519,1.661-0.319,2.134-0.711
		c1.506,0.055,2.919-0.156,3.557,0.711c0,0.711,0,1.422,0,2.133c0.237,0,0.474,0,0.711,0c0.237,0.711,0.474,1.422,0.712,2.133
		c1.423-0.237,2.846-0.474,4.269-0.711c0-0.237,0-0.474,0-0.711c1.018-0.218,1.423,0.711,1.423,0.711s5.589-0.545,6.403-0.711
		c0.146-0.03,0.23-1.06,1.423-0.711c0.237,0.474,0.474,0.948,0.711,1.422c1.897,0.237,3.795,0.474,5.692,0.711
		c0,0.474,0,0.948,0,1.422c0.711-0.237,1.423-0.474,2.134-0.711c0.237,0.474,0.474,0.948,0.711,1.422
		c3.221,1.218,1.621-2.71,4.269,0.711c1.962,0.094,6.357,0.491,7.115-0.711c-0.237-0.474-0.474-0.948-0.712-1.422
		c1.186,0.237,2.372,0.474,3.557,0.711c0,0.237,0,0.474,0,0.711c1.2,0.268,1.251-0.674,1.423-0.711
		c3.794-0.237,7.589-0.474,11.383-0.711c0-0.474,0-0.948,0-1.422c3.326-0.559,4.516-0.533,7.826,0.711c0,0.237,0,0.474,0,0.711
		c0.949,0,1.897,0,2.846,0c0,0.237,0,0.474,0,0.711c2.205,0.564,3.831-0.725,4.98-1.422c0-0.237,0-0.474,0-0.711
		c1.423,0,2.846,0,4.269,0c0-0.237,0-0.474,0-0.711c1.66,0,3.32,0,4.98,0c0.237,0.474,0.474,0.948,0.711,1.422
		c2.134-0.237,4.269-0.474,6.403-0.711c0.992,0.167-0.242,0.389,0.712,0.711c0.711,0,1.423,0,2.134,0c0,0.237,0,0.474,0,0.711
		c1.423-0.237,2.846-0.474,4.269-0.711c0.428-1.419-0.099-0.612,0.711-1.422c1.069-1.02,4.882-1.456,7.115-1.422
		c0.428-1.419-0.099-0.612,0.712-1.422c0-0.237,0-0.474,0-0.711c1.423,0,2.846,0,4.269,0c0.237-0.711,0.474-1.422,0.711-2.133
		c2.195-0.198,1.374-0.752,3.557,0c0,0.237,0,0.474,0,0.711c1.423-0.237,2.846-0.474,4.269-0.711c0,0.474,0,0.948,0,1.422
		c0.474,0,0.949,0,1.423,0c0,0.474,0,0.948,0,1.422c2.2-0.418,4.75-0.753,7.826-0.711c0-0.474,0-0.948,0-1.422
		c3.083-0.237,6.166-0.474,9.249-0.711c1.66,0.237,3.32,0.474,4.98,0.711c0-0.237,0-0.474,0-0.711c0.948,0,1.897,0,2.846,0
		c0-0.237,0-0.474,0-0.711c2.846,0.237,5.692,0.474,8.537,0.711c0-0.474,0-0.948,0-1.422c5.089,2.119,11.051,3.009,18.498,2.844
		c0,0.237,0,0.474,0,0.711c-1.423,0-2.846,0-4.269,0c0,0.474,0,0.948,0,1.422c1.423,0,2.846,0,4.269,0c0,0.474,0,0.948,0,1.422
		c1.897,0.237,3.795,0.474,5.692,0.711c0,0.237,0,0.474,0,0.711c0.711,0,1.423,0,2.134,0c0,0.237,0,0.474,0,0.711
		c0.948-0.237,1.897-0.474,2.846-0.711c0-0.474,0-0.948,0-1.422c-0.474,0-0.949,0-1.423,0c0-0.237,0-0.474,0-0.711
		c1.423,0.237,2.846,0.474,4.269,0.711c0.237-0.474,0.474-0.948,0.712-1.422c0,0,1.312,0.624,3.557,0.711
		c0.428-1.419-0.099-0.612,0.711-1.422c0-0.237,0-0.474,0-0.711c1.66,0.474,3.32,0.948,4.98,1.422c0-0.237,0-0.474,0-0.711
		c1.423,0,2.846,0,4.269,0c0.237,0.474,0.474,0.948,0.712,1.422c0.474,0,0.949,0,1.423,0c0,0.237,0,0.474,0,0.711
		c1.461,0.441,2.134-0.711,2.134-0.711c2.371,0.237,4.743,0.474,7.115,0.711c0-0.237,0-0.474,0-0.711
		c1.035-0.567,1.203-0.52,2.846-0.711c0.428-1.419-0.099-0.612,0.711-1.422c-0.807-0.796,0.007-0.303-1.423-0.711
		c0-0.474,0-0.948,0-1.422c1.276,0.678,1.107,1.014,2.846,1.422c0.237-1.896,0.474-3.792,0.711-5.688c0.474,0,0.949,0,1.423,0
		c0.237-0.474,0.474-0.948,0.711-1.422c0.948,0,1.897,0,2.846,0c0-0.237,0-0.474,0-0.711c3.32-0.237,6.641-0.474,9.96-0.711
		c0-0.237,0-0.474,0-0.711c0.474,0,0.949,0,1.423,0c0-0.237,0-0.474,0-0.711c1.66-0.237,3.32-0.474,4.98-0.711
		c0-0.237,0-0.474,0-0.711c2.371,0.237,4.743,0.474,7.115,0.711c0,0.237,0,0.474,0,0.711c0.711,0,1.423,0,2.134,0
		c0,0.237,0,0.474,0,0.711c1.186-0.237,2.372-0.474,3.557-0.711c0-0.237,0-0.474,0-0.711c1.186,0,2.372,0,3.557,0
		c0-4.069,0-8.139,0-12.209H0C0,14.733,0,29.469,0,44.202z M1284.182,23.584c1.244-0.607,1.784,0.407,2.134,0.711
		c-0.711,0-1.423,0-2.134,0C1284.182,24.058,1284.182,23.821,1284.182,23.584z"/>
</g>
</svg>
