<svg version="1.1" id="Layer_1" xmlns="http://www.w3.org/2000/svg" xmlns:xlink="http://www.w3.org/1999/xlink" x="0px" y="0px"
	 viewBox="0 0 1366 76.218" style="enable-background:new 0 0 1366 76.218;" xml:space="preserve">
<path fill="#048145" d="M565.629,22.062c0,0,0.061-0.93-1.423-0.711c0,0-0.621,1.046-2.134,0.711c0-0.237,0-0.474,0-0.711
	c-0.948,0-1.897,0-2.846,0c0,0.237,0,0.474,0,0.711c-0.948-0.237-1.897-0.474-2.846-0.711c-2.018,0.492-3.221,1.441-6.403,1.422
	c0,0.474,0,0.948,0,1.422c-0.237,0-0.474,0-0.711,0c0-0.474,0-0.948,0-1.422c-2.371,0.237-4.743,0.474-7.115,0.711
	c0,0.237,0,0.474,0,0.711c-0.474,0-0.949,0-1.423,0c0,0.237,0,0.474,0,0.711c-1.423-0.237-2.846-0.474-4.269-0.711
	c-0.237-0.474-0.474-0.948-0.711-1.422c-0.948,0-1.897,0-2.846,0c0-0.237,0-0.474,0-0.711c-2.223-0.581-4.517,1.338-7.826,1.422
	c-0.801-2.101,0.114-0.792-2.134-0.711c-0.532-2.007-1.272-2.042-2.134-3.555c-1.897-0.237-3.795-0.474-5.692-0.711
	c0,0.474,0,0.948,0,1.422c-0.237,0-0.474,0-0.711,0c0-0.474,0-0.948,0-1.422c-2.134,0.237-4.269,0.474-6.403,0.711
	c0.801-2.101-0.114-0.792,2.134-0.711c-0.237-0.711-0.474-1.422-0.711-2.133c-1.423,0.237-2.846,0.474-4.269,0.711
	c0,0.237,0,0.474,0,0.711c-0.237,0-0.474,0-0.711,0c0-0.237,0-0.474,0-0.711c-0.711,0-1.423,0-2.134,0c0-0.237,0-0.474,0-0.711
	c-2.846,0.237-5.692,0.474-8.538,0.711c0-0.237,0-0.474,0-0.711c-0.948,0-1.897,0-2.846,0c-0.237-0.474-0.474-0.948-0.711-1.422
	c-0.711,0.474-1.423,0.948-2.134,1.422c0-0.474,0-0.948,0-1.422c-0.474-0.237-0.949-0.474-1.423-0.711c0-0.237,0-0.474,0-0.711
	c-3.308-1.573-4.782,2.774-8.538-1.422c-3.471,0.333-2.441,1.327-4.269,2.844c-0.474,0-0.949,0-1.423,0
	c1.337,1.663-0.316,0.532,0,2.133l0.711,0.711c-2.218-0.281-1.971-1.013-3.557,0.711c-0.237,0-0.474,0-0.711,0
	c0.237,0.711,0.474,1.422,0.711,2.133c-0.474,0.237-0.949,0.474-1.423,0.711c-1.056,1.943-0.211,2.609,0,4.977
	c-0.474,0-0.949,0-1.423,0c-0.058,2.367-0.396,3.216-0.711,4.977c-1.42-0.428-0.612,0.099-1.423-0.711
	c-0.951,0.819-1.123,1.295-1.423,2.844c-2.719,0.07-2.97-0.142-3.557,2.133c-0.474,0-0.949,0-1.423,0c0,0.474,0,0.948,0,1.422
	c-1.423,0.237-2.846,0.474-4.269,0.711c-0.472,1.778-0.372,1.16-1.423,2.133c0,0.237,0,0.474,0,0.711c-0.474,0-0.949,0-1.423,0
	c-0.474,0.711-0.949,1.422-1.423,2.133c-0.474,0-0.949,0-1.423,0c0,0.237,0,0.474,0,0.711c-0.711,0-1.423,0-2.134,0
	c0,0.237,0,0.474,0,0.711c-1.186,0.237-2.372,0.474-3.557,0.711c0-0.237,0-0.474,0-0.711c-2.789-0.568-0.209,1.069-2.846,0
	c0-0.237,0-0.474,0-0.711c-0.981-0.225,0.276,0.516-0.711,0.711c-1.423,0-2.846,0-4.269,0c-0.197-0.045-0.208-0.969-1.423-0.711
	c-0.366,0.078-4.424,2.21-4.98,2.133c0-0.237,0-0.474,0-0.711c-0.474,0-0.949,0-1.423,0c0-0.237,0-0.474,0-0.711
	c-1.994-0.676-3.477,0.221-4.98-0.711c-0.474-0.711-0.949-1.422-1.423-2.133c-1.186-0.237-2.372-0.474-3.557-0.711
	c-0.898,0.453,0.283,0.866-0.711,0.711c0-0.237,0-0.474,0-0.711c-0.711-0.237-1.423-0.474-2.134-0.711c0,0.474,0,0.948,0,1.422
	c-1.423-0.237-2.846-0.474-4.269-0.711c0-0.237,0-0.474,0-0.711c-3.794,0.237-7.589,0.474-11.383,0.711c0,0.711,0,1.422,0,2.133
	c-2.371-0.711-4.743-1.422-7.115-2.133c-0.428-1.419,0.099-0.612-0.711-1.422c-0.543-1.934-0.169-1.619-2.134-2.133
	c0-0.711,0-1.422,0-2.133c-0.948-0.237-1.897-0.474-2.846-0.711c0.459-1.683,0.2-1.332,1.423-2.133c0-0.237,0-0.474,0-0.711
	c-2.474-0.463-6.443-2.712-9.96-1.422c0,0.237,0,0.474,0,0.711c-0.474,0-0.949,0-1.423,0c-0.237,0.474-0.474,0.948-0.711,1.422
	c-2.134,0.237-4.269,0.474-6.403,0.711c0-0.237,0-0.474,0-0.711c-1.423,0.237-2.846,0.474-4.269,0.711c0-0.474,0-0.948,0-1.422
	c-1.6-0.234-1.856-0.066-2.846-0.711c0-0.237,0-0.474,0-0.711c-0.474,0-0.949,0-1.423,0c0-0.237,0-0.474,0-0.711
	c-1.423-0.237-2.846-0.474-4.269-0.711c-0.237-0.474-0.474-0.948-0.711-1.422c-0.948,0-1.897,0-2.846,0c0-0.237,0-0.474,0-0.711
	c-0.711,0-1.423,0-2.134,0c-0.237-0.474-0.474-0.948-0.711-1.422c-1.423,0-2.846,0-4.269,0c-0.237-0.711-0.474-1.422-0.711-2.133
	c-2.444,0.138-2.643,0.898-4.98,0c0-0.237,0-0.474,0-0.711c-0.474,0-0.949,0-1.423,0c0-0.237,0-0.474,0-0.711l-0.711,0.711
	c-0.474,0-0.949,0-1.423,0c0-0.237,0-0.474,0-0.711c-0.237,0-0.474,0-0.711,0c0,0.237,0,0.474,0,0.711c-0.711,0-1.423,0-2.134,0
	c0,0.237,0,0.474,0,0.711c-1.673,0.483-3.899-0.319-4.98-0.711c0-0.237,0-0.474,0-0.711c-1.186,0.237-2.372,0.474-3.557,0.711
	c-0.237,1.422-0.474,2.844-0.711,4.266c-0.237,0-0.474,0-0.711,0c0,0.237,0,0.474,0,0.711c-1.186,0.237-2.372,0.474-3.557,0.711
	c0,0.474,0,0.948,0,1.422c-1.42,0.428-0.612-0.099-1.423,0.711c-1.936,0.542-1.62,0.169-2.134,2.133c0,0-2.734-0.035-1.423-0.711
	c0.237,0,0.474,0,0.711,0c0-0.711,0-1.422,0-2.133c-0.237,0-0.474,0-0.711,0c0,0.474,0,0.948,0,1.422
	c-2.906,0.446-1.803,0.265-4.98,0c0,1.185,0,2.37,0,3.555c-1.423-0.474-2.846-0.948-4.269-1.422
	c-0.711,0.948-1.423,1.896-2.134,2.844c-0.237,0-0.474,0-0.712,0c0,0,0.886,0.211,0,2.844c-0.711,0.237-1.423,0.474-2.134,0.711
	c0-0.474,0-0.948,0-1.422c-0.474,0-0.949,0-1.423,0c0,0.948,0,1.896,0,2.844c-0.948,0-1.897,0-2.846,0c0,0.237,0,0.474,0,0.711
	c-0.474,0-0.949,0-1.423,0c0.585,0.921,0.488,0.847,1.423,1.422c-0.608,0.801,0.096,0.111-0.711,0.711c0,0.237,0,0.474,0,0.711
	c-0.474-0.237-0.949-0.474-1.423-0.711c0,0.474,0,0.948,0,1.422c0,0-2.767,0.1-1.423,0.711c0.237,0,0.474,0,0.711,0
	c0,0.237,0,0.474,0,0.711c-0.711,0-1.423,0-2.134,0c0,0.474,0,0.948,0,1.422c-2.134,0.237-4.269,0.474-6.403,0.711
	c0.577,2.392,1.493,3.309,4.269,3.555c0,0.237,0,0.474,0,0.711c-2.089,0.937-2.366-1.163-2.846-1.422c-0.474,0-0.949,0-1.423,0
	c0-0.237,0-0.474,0-0.711c-0.711,0-1.423,0-2.134,0c0,0.711,0,1.422,0,2.133c-0.237,0-0.474,0-0.712,0c0,0.237,0,0.474,0,0.711
	c-1.423-0.237-2.846-0.474-4.269-0.711c0-0.237,0-0.474,0-0.711c-1.186,0.237-2.372,0.474-3.557,0.711c-0.237,0-0.474,0-0.712,0
	c0-0.237,0-0.474,0-0.711c-0.711,0-1.423,0-2.134,0c0-0.237,0-0.474,0-0.711c0.237,0,0.474,0,0.711,0c0-0.237,0-0.474,0-0.711
	c-0.237,0-0.474,0-0.711,0c0-0.237,0-0.474,0-0.711c-1.186,0.237-2.372,0.474-3.557,0.711c-0.237,0.474-0.474,0.948-0.711,1.422
	c-0.948,0-1.897,0-2.846,0c0.237,0.474,0.474,0.948,0.712,1.422c-1.466,0.796-0.823-0.8-2.134,0.711
	c-0.445,0.902-0.872-0.281-0.711,0.711c0.237,0,0.474,0,0.711,0c0,0.237,0,0.474,0,0.711c-0.572-0.313-1.417-1.419-1.423-1.422
	c-2.371-0.237-4.743-0.474-7.115-0.711c-0.237-0.474-0.474-0.948-0.711-1.422c-1.615-0.519-1.66,0.319-2.134,0.711
	c-1.506-0.055-2.919,0.156-3.557-0.711c0-0.711,0-1.422,0-2.133c-0.237,0-0.474,0-0.711,0c-0.237-0.711-0.474-1.422-0.712-2.133
	c-1.423,0.237-2.846,0.474-4.269,0.711c0,0.237,0,0.474,0,0.711c-1.018,0.218-1.423-0.711-1.423-0.711s-5.589,0.545-6.403,0.711
	c-0.146,0.03-0.23,1.06-1.423,0.711c-0.237-0.474-0.474-0.948-0.712-1.422c-1.897-0.237-3.795-0.474-5.692-0.711
	c0-0.474,0-0.948,0-1.422c-0.711,0.237-1.423,0.474-2.134,0.711c-0.237-0.474-0.474-0.948-0.711-1.422
	c-3.221-1.218-1.621,2.71-4.269-0.711c-1.962-0.094-6.357-0.491-7.115,0.711c0.237,0.474,0.474,0.948,0.711,1.422
	c-1.186-0.237-2.372-0.474-3.557-0.711c0-0.237,0-0.474,0-0.711c-1.2-0.268-1.251,0.674-1.423,0.711
	c-3.794,0.237-7.589,0.474-11.383,0.711c0,0.474,0,0.948,0,1.422c-3.326,0.559-4.516,0.533-7.826-0.711c0-0.237,0-0.474,0-0.711
	c-0.949,0-1.897,0-2.846,0c0-0.237,0-0.474,0-0.711c-2.205-0.564-3.831,0.725-4.98,1.422c0,0.237,0,0.474,0,0.711
	c-1.423,0-2.846,0-4.269,0c0,0.237,0,0.474,0,0.711c-1.66,0-3.32,0-4.98,0c-0.237-0.474-0.474-0.948-0.711-1.422
	c-2.134,0.237-4.269,0.474-6.403,0.711c-0.992-0.167,0.242-0.389-0.712-0.711c-0.711,0-1.423,0-2.134,0c0-0.237,0-0.474,0-0.711
	c-1.423,0.237-2.846,0.474-4.269,0.711c-0.428,1.419,0.099,0.612-0.711,1.422c-1.069,1.02-4.882,1.456-7.115,1.422
	c-0.428,1.419,0.099,0.612-0.712,1.422c0,0.237,0,0.474,0,0.711c-1.423,0-2.846,0-4.269,0c-0.237,0.711-0.474,1.422-0.711,2.133
	c-2.195,0.198-1.374,0.752-3.557,0c0-0.237,0-0.474,0-0.711c-1.423,0.237-2.846,0.474-4.269,0.711c0-0.474,0-0.948,0-1.422
	c-0.474,0-0.949,0-1.423,0c0-0.474,0-0.948,0-1.422c-2.2,0.418-4.75,0.753-7.826,0.711c0,0.474,0,0.948,0,1.422
	c-3.083,0.237-6.166,0.474-9.249,0.711c-1.66-0.237-3.32-0.474-4.98-0.711c0,0.237,0,0.474,0,0.711c-0.948,0-1.897,0-2.846,0
	c0,0.237,0,0.474,0,0.711c-2.846-0.237-5.692-0.474-8.538-0.711c0,0.474,0,0.948,0,1.422c-5.089-2.119-22.293-6.873-24.19-7.11
	c0-0.237,0-0.474,0-0.711c-0.711,0-1.423,0-2.134,0c0-0.237,0-0.474,0-0.711c-0.948,0.237-1.897,0.474-2.846,0.711
	c0,0.474,0,0.948,0,1.422c0.474,0,0.949,0,1.423,0c0,0.237,0,0.474,0,0.711c-1.423-0.237-2.846-0.474-4.269-0.711
	c-0.237,0.474-0.474,0.948-0.711,1.422c0,0-1.312-0.624-3.557-0.711c-0.428,1.419,0.099,0.612-0.711,1.422c0,0.237,0,0.474,0,0.711
	c-1.66-0.474-3.32-0.948-4.98-1.422c0,0.237,0,0.474,0,0.711c-1.423,0-2.846,0-4.269,0c-0.237-0.474-0.474-0.948-0.712-1.422
	c-0.474,0-0.949,0-1.423,0c0-0.237,0-0.474,0-0.711c-1.461-0.441-2.134,0.711-2.134,0.711c-2.16-0.216-4.321-0.432-6.481-0.648
	c-1.024-0.478-1.74-0.808-1.998-0.921c-0.474-0.767-0.949-1.535-1.423-2.302c-1.934-1.285-2.14,0.513-2.846,0.436
	c-1.66-0.912-3.32-1.824-4.98-2.737c0-0.187,0-0.373,0-0.56c-1.423-0.249-2.846-0.497-4.269-0.746c0,0.56,0,1.12,0,1.68
	c-0.949-0.601-1.897-1.202-2.846-1.804c-0.237-0.477-0.474-0.954-0.711-1.431c-1.423-0.435-2.846-0.871-4.269-1.306
	c0-0.187,0-0.373,0-0.56c-1.897-0.829-3.795-1.659-5.692-2.488c0-0.187,0-0.373,0-0.56c-1.897-0.642-3.795-1.285-5.692-1.928
	c-0.237-0.477-0.474-0.954-0.711-1.431c-0.474-0.207-0.949-0.415-1.423-0.622c0-0.56,0-1.12,0-1.68
	c-0.237-0.104-0.474-0.207-0.711-0.311c0-0.187,0-0.373,0-0.56c-1.185-0.518-2.371-1.036-3.557-1.555
	c0.237-0.456,0.474-0.913,0.711-1.369c-0.237-0.104-0.474-0.207-0.711-0.311c-0.719-1.328-1.572-2.35-2.846-3.484
	c0,8.399-0.01,16.795-0.021,25.191c-0.003-0.001-0.005-0.002-0.008-0.003c0,1.322,0,2.645,0,3.968l-0.029-0.01v11.561
	c0,4.069,0,8.139,0,12.209h1366C1366,61.485,1366,46.749,1366,32.016c-0.146,0.084-0.268,0.175-0.404,0.262l0.404-5.952
	c-4.506,0.711-9.013,1.422-13.518,2.133c-0.237,0.474-0.474,0.948-0.711,1.422c-1.925,1.214-3.243,1.324-6.403,1.422
	c-0.515,1.964-0.199,1.591-2.135,2.133c0,0.237,0,0.474,0,0.711c-0.711,0-1.423,0-2.134,0c-0.237,0.474-0.474,0.948-0.711,1.422
	c-1.897,0.237-3.795,0.474-5.692,0.711c-2.531,0.991-4.898,2.338-7.378,3.576c-0.381-0.558-0.914-1.007-1.871-0.73
	c-0.474,0.711-0.949,1.422-1.423,2.133c-1.897,0-3.795,0-5.692,0c0,0.711,0,1.422,0,2.133c0.237,0,0.474,0,0.711,0
	c-1.533,1.36-4.204-0.254-6.403,0.711c-0.237,0.474-0.474,0.948-0.711,1.422c-0.474,0-0.949,0-1.423,0c0,0.237,0,0.474,0,0.711
	c-2.134-0.474-4.269-0.948-6.403-1.422c0,0.237,0,0.474,0,0.711c-0.711,0.237-1.423,0.474-2.134,0.711c0,0.237,0,0.474,0,0.711
	c-2.906,0.871-4.304-2.356-7.826-1.422c0,0.237,0,0.474,0,0.711c-1.897,0-3.795,0-5.692,0c-0.237,0.474-0.474,0.948-0.711,1.422
	c-1.66,0-3.32,0-4.98,0c0.237,0.948,0.474,1.896,0.711,2.844c-3.32,0-6.641,0-9.96,0c0,0.237,0,0.474,0,0.711
	c-0.948,0.237-1.897,0.474-2.846,0.711c0,0.474,0,0.948,0,1.422c-3.32,0.711-6.641,1.422-9.96,2.133c0,0.237,0,0.474,0,0.711
	c-0.588,0.039-1.176,0.078-1.763,0.117c-0.598-0.04-1.195-0.08-1.793-0.119c0-0.237,0-0.474,0-0.711
	c-3.319-0.711-6.64-1.422-9.96-2.133c0-0.474,0-0.948,0-1.422c-0.949-0.237-1.898-0.474-2.846-0.711c0-0.237,0-0.474,0-0.711
	c-3.319,0-6.64,0-9.96,0c0.237-0.948,0.474-1.896,0.711-2.844c-1.66,0-3.32,0-4.98,0c-0.237-0.474-0.474-0.948-0.711-1.422
	c-1.897,0-3.795,0-5.692,0c0-0.237,0-0.474,0-0.711c-3.522-0.934-4.92,2.293-7.826,1.422c0-0.237,0-0.474,0-0.711
	c-0.711-0.237-1.423-0.474-2.134-0.711c0-0.237,0-0.474,0-0.711c-2.134,0.474-4.269,0.948-6.403,1.422c0-0.237,0-0.474,0-0.711
	c-0.474,0-0.949,0-1.423,0c-0.237-0.474-0.474-0.948-0.711-1.422c-2.199-0.965-4.87,0.649-6.403-0.711c0.237,0,0.474,0,0.711,0
	c0-0.711,0-1.422,0-2.133c-1.897,0-3.795,0-5.692,0c-0.474-0.711-0.949-1.422-1.423-2.133c-0.959-0.277-1.493,0.174-1.874,0.733
	c-2.479-1.238-4.846-2.585-7.375-3.575c-1.897-0.119-3.795-0.238-5.692-0.357c-0.237-0.459-0.474-0.919-0.711-1.378
	c-0.711,0.044-1.423,0.088-2.134,0.133c0-0.237,0-0.474,0-0.711c-1.936-0.422-1.62-0.068-2.135-2
	c-3.16,0.099-4.478,0.07-6.403-1.024c-0.237-0.459-0.474-0.919-0.711-1.378c-4.505-0.431-9.012-0.862-13.518-1.292
	c0-0.474,0-0.948,0-1.422c-3.609-0.616-4.581-2.898-8.537-3.024c0-0.474,0-0.948,0-1.422c-1.66,0.34-3.32,0.68-4.98,1.021
	c0-0.474,0-0.948,0-1.422c-4.763,0.177-5.093-0.396-9.249,0.575c0,0.474,0,0.948,0,1.422c-1.062-0.139-4.062-1.191-5.692-0.357
	c-0.474,0.74-0.949,1.481-1.423,2.221c-0.474,0.029-0.949,0.059-1.423,0.088c0,0.237,0,0.474,0,0.711
	c-2.906,1.266-4.121-0.6-5.692,1.776c-2.719,0.099-2.97,0.327-3.557-1.912c-1.186,0.074-2.372,0.148-3.557,0.221
	c0-0.474,0-0.948,0-1.422c-0.474,0.029-0.949,0.059-1.423,0.088c0-0.474,0-0.948,0-1.422c-2.41,0.699-3.267,1.85-5.692,2.487
	c0-0.474,0-0.948,0-1.422c-0.474,0.029-0.949,0.059-1.423,0.088c0-0.237,0-0.474,0-0.711c-1.745-0.421-1.447,1.125-2.134,1.555
	c-0.474,0.029-0.949,0.059-1.423,0.088c0,0.237,0,0.474,0,0.711c-0.474,0.029-0.949,0.059-1.423,0.088
	c-0.237,0.489-0.474,0.977-0.712,1.466c-1.423,0.325-2.846,0.651-4.269,0.976c0,0.237,0,0.474,0,0.711
	c-0.474,0.029-0.949,0.059-1.423,0.088c0,0.237,0,0.474,0,0.711c-0.711,0.044-1.423,0.088-2.134,0.133c0,0.237,0,0.474,0,0.711
	c-2.134,0.607-4.269,1.213-6.403,1.82c0,0.474,0,0.948,0,1.422c-1.897-0.119-3.795-0.238-5.692-0.357
	c-0.237-0.459-0.474-0.919-0.711-1.378c-0.474,0.029-0.949,0.059-1.423,0.088c0-0.237,0-0.474,0-0.711
	c-1.186,0.074-2.372,0.148-3.557,0.221c-1.458-0.468-2.827-2.828-5.692-1.779c0,0.237,0,0.474,0,0.711
	c-0.949,0.296-1.897,0.592-2.846,0.888c0,0.474,0,0.948,0,1.422c-1.66,0.103-3.32,0.206-4.98,0.31c0-0.237,0-0.474,0-0.711
	c-2.719,0.239-2.97,0.043-3.557,2.354c-1.186-0.163-2.371-0.327-3.557-0.49c-0.093,0.022-0.265,1.13-1.423,0.799
	c0.237-0.489,0.474-0.977,0.712-1.466c-1.186,0.074-2.372,0.148-3.557,0.221c0.237-0.726,0.474-1.451,0.712-2.177
	c-0.949,0.059-1.897,0.118-2.846,0.177c0-0.474,0-0.948,0-1.422c-3.687,0.158-5.855-0.337-8.537-0.891
	c-1.186,0.074-2.372,0.148-3.557,0.221c0,0.237,0,0.474,0,0.711c-2.608-0.075-5.218-0.149-7.826-0.224
	c-0.428-1.392,0.099-0.618-0.711-1.378c0-0.237,0-0.474,0-0.711c-0.949,0.059-1.897,0.118-2.846,0.177c0-0.237,0-0.474,0-0.711
	c-0.949,0.059-1.897,0.118-2.846,0.177c-0.237-0.459-0.474-0.919-0.711-1.378c-1.897,0.355-3.795,0.71-5.692,1.065
	c-1.897-0.119-3.795-0.238-5.692-0.357c-1.186,0.311-2.372,0.622-3.557,0.932c0,0.237,0,0.474,0,0.711
	c-0.106,0.025-1.673-0.572-2.846-0.534c0,0.711,0,1.422,0,2.133c-0.237,0.015-0.474,0.029-0.711,0.044
	c-0.493,0.34-0.025,1.029-1.423,0.799c-0.237-0.459-0.474-0.919-0.711-1.378c-1.423,0.088-2.846,0.177-4.269,0.265
	c0-0.237,0-0.474,0-0.711c-0.948-0.178-1.897-0.356-2.846-0.534c0-0.237,0-0.474,0-0.711c-2.371-0.09-4.743-0.179-7.115-0.269
	c-1.92-0.532-3.006-1.676-5.692-1.779c0-0.474,0-0.948,0-1.422c-3.083-0.282-6.166-0.565-9.249-0.847c0-0.474,0-0.948,0-1.422
	c-3.557-0.016-7.115-0.032-10.672-0.047c0-0.237,0-0.474,0-0.711c-0.237,0.015-0.474,0.029-0.711,0.044
	c-0.411,0.168-1.205,2.088-1.423,2.932c-1.662,0.302-1.774,0.328-2.846,0.888c0,0.237,0,0.474,0,0.711l-0.711-0.667
	c-1.186,0.074-2.372,0.148-3.557,0.221c0,0.474,0,0.948,0,1.422c-1.897,0.118-3.795,0.236-5.692,0.354c0,0.237,0,0.474,0,0.711
	c-0.474,0.029-0.949,0.059-1.423,0.088c0,0.237,0,0.474,0,0.711c-1.186,0.074-2.372,0.148-3.557,0.221c0,0.237,0,0.474,0,0.711
	c-0.711-0.193-1.423-0.386-2.134-0.578c-2.134,0.133-4.269,0.265-6.403,0.398c0,0.237,0,0.474,0,0.711
	c-0.474-0.208-0.949-0.415-1.423-0.623c0,0.237,0,0.474,0,0.711c-1.66-0.134-3.32-0.268-4.98-0.401c0,0.237,0,0.474,0,0.711
	c-0.474,0.029-0.949,0.059-1.423,0.088c0,0.237,0,0.474,0,0.711c-1.897,0.355-3.795,0.71-5.692,1.065c0-0.474,0-0.948,0-1.422
	c-5.627,0.221-11.456,0.039-13.518,3.685c-0.237,0.015-0.474,0.029-0.711,0.044c0.237-0.726,0.474-1.451,0.711-2.177
	c-1.423,0.325-2.846,0.651-4.269,0.976c-0.237,0.726-0.474,1.451-0.711,2.177c-0.237,0.015-0.474,0.029-0.711,0.044
	c0-0.474,0-0.948,0-1.422c-0.474,0.029-0.949,0.059-1.423,0.088c0,0.948,0,1.896,0,2.844c-0.237,0.015-0.474,0.029-0.711,0.044
	c0,0.237,0,0.474,0,0.711c-1.6,0.718-2.336-1.409-3.557-1.201c0,0.237,0,0.474,0,0.711c-1.423,0.325-2.846,0.651-4.269,0.976
	c0,0.237,0,0.474,0,0.711c-0.474,0.029-0.949,0.059-1.423,0.088c0,0.237,0,0.474,0,0.711c-2.608,0.162-5.218,0.325-7.826,0.487
	c0,0.237,0,0.474,0,0.711c-0.237,0.015-0.474,0.029-0.711,0.044c0-0.237,0-0.474,0-0.711c-0.711,0.044-1.423,0.088-2.134,0.133
	c-0.237-0.459-0.474-0.919-0.711-1.378c-1.423,0.325-2.846,0.651-4.269,0.976c-1.903-0.401-3.708-1.043-6.403-1.024
	c0.678-1.318,1.015-1.169,1.423-2.932c-0.711,0.044-1.423,0.088-2.134,0.133c0.237-0.726,0.474-1.451,0.711-2.177
	c-3.616,0.119-6.831-0.454-9.96-0.803c0,0.711,0,1.422,0,2.133c-1.086-0.348-1.158-0.496-2.846-0.534
	c0.523-1.068,1.66-1.307,1.423-2.932l-0.711-0.667c0.237-0.015,0.474-0.029,0.711-0.044c0-0.237,0-0.474,0-0.711
	c-0.474,0.029-0.949,0.059-1.423,0.088c0.237-0.726,0.474-1.451,0.711-2.177c0,0-0.457-0.025-0.711-1.378
	c-0.474,0.029-0.949,0.059-1.423,0.088c0-0.474,0-0.948,0-1.422c-2.371-0.327-4.743-0.653-7.115-0.98c0,0.474,0,0.948,0,1.422
	c-1.619,0.323-1.834,0.212-2.846,0.888c0,0.237,0,0.474,0,0.711c-0.711,0.044-1.423,0.088-2.134,0.133c0,0.237,0,0.474,0,0.711
	c-0.711,0.044-1.423,0.088-2.134,0.133c0,0.237,0,0.474,0,0.711c-0.474,0.029-0.949,0.059-1.423,0.088c0,0.237,0,0.474,0,0.711
	c-0.711,0.281-1.423,0.562-2.134,0.844c0,0.474,0,0.948,0,1.422c-3.493,0.965-5.409,2.875-9.249,3.419c0,0.474,0,0.948,0,1.422
	c-1.423,0.325-2.846,0.651-4.269,0.976c0,0.237,0,0.474,0,0.711c-0.711-0.193-1.423-0.386-2.134-0.578
	c-0.237,0.489-0.474,0.977-0.711,1.466c-2.608-0.075-5.218-0.149-7.826-0.224c0,0.237,0,0.474,0,0.711
	c-0.711,0.044-1.423,0.088-2.134,0.133c0,0.237,0,0.474,0,0.711c-1.66-0.134-3.32-0.268-4.98-0.401
	c-1.423-0.392-2.846-0.785-4.269-1.177c-0.237-0.5-0.474-1-0.711-1.5c-0.948-0.104-1.897-0.207-2.846-0.311c0-0.237,0-0.474,0-0.711
	c-2.223-0.824-4.517,0.845-7.826,0.567c-0.801-2.188,0.114-0.78-2.134-0.944c-0.532-2.065-1.272-2.181-2.134-3.788
	c-1.897-0.444-3.795-0.888-5.692-1.333c0,0.474,0,0.948,0,1.422c-0.237-0.026-0.474-0.052-0.711-0.078c0-0.474,0-0.948,0-1.422
	c-2.134,0.004-4.269,0.008-6.403,0.012c0.801-2.014-0.114-0.804,2.134-0.478c-0.237-0.737-0.474-1.474-0.711-2.211
	c-1.423,0.082-2.846,0.163-4.269,0.245c0,0.237,0,0.474,0,0.711c-0.237-0.026-0.474-0.052-0.711-0.078c0-0.237,0-0.474,0-0.711
	c-0.711-0.078-1.423-0.155-2.134-0.233c0-0.237,0-0.474,0-0.711c-2.846-0.074-5.692-0.148-8.538-0.222c0-0.237,0-0.474,0-0.711
	c-0.948-0.104-1.897-0.207-2.846-0.311c-0.237-0.5-0.474-1-0.711-1.5c-0.711,0.396-1.423,0.793-2.134,1.189c0-0.474,0-0.948,0-1.422
	c-0.474-0.289-0.949-0.578-1.423-0.866c0-0.237,0-0.474,0-0.711c-3.308-1.934-4.782,2.252-8.538-2.355
	c-3.471-0.046-2.441,1.06-4.269,2.378c-0.474-0.052-0.949-0.104-1.423-0.155c1.337,1.809-0.316,0.497,0,2.133l0.711,0.789
	c-2.218-0.523-1.971-1.228-3.557,0.322c-0.237-0.026-0.474-0.052-0.711-0.078c0.237,0.737,0.474,1.474,0.711,2.211
	c-0.474,0.185-0.949,0.37-1.423,0.556c-1.056,1.828-0.211,2.586,0,4.977c-0.474-0.052-0.949-0.104-1.423-0.155
	c-0.058,2.361-0.396,3.173-0.711,4.899c-1.42-0.583-0.612,0.032-1.423-0.866c-0.951,0.715-1.123,1.172-1.423,2.689
	c-2.719-0.227-2.97-0.466-3.557,1.744c-0.474-0.052-0.949-0.104-1.423-0.155c0,0.474,0,0.948,0,1.422
	c-1.423,0.082-2.846,0.163-4.269,0.245c-0.472,1.726-0.372,1.119-1.423,1.978c0,0.237,0,0.474,0,0.711
	c-0.474-0.052-0.949-0.104-1.423-0.155c-0.474,0.659-0.949,1.318-1.423,1.978c-0.474-0.052-0.949-0.104-1.423-0.155
	c0,0.237,0,0.474,0,0.711c-0.711-0.078-1.423-0.155-2.134-0.233c0,0.237,0,0.474,0,0.711c-1.186,0.107-2.372,0.215-3.557,0.322
	c0-0.237,0-0.474,0-0.711c-2.789-0.873-0.209,1.046-2.846-0.311c0-0.237,0-0.474,0-0.711c-0.981-0.332,0.276,0.546-0.711,0.633
	c-1.423-0.155-2.846-0.311-4.269-0.466c-0.197-0.067-0.208-0.992-1.423-0.866c-0.366,0.038-4.424,1.727-4.98,1.589
	c0-0.237,0-0.474,0-0.711c-0.474-0.052-0.949-0.104-1.423-0.155c0-0.237,0-0.474,0-0.711c-1.994-0.894-3.477-0.159-4.98-1.255
	c-0.474-0.763-0.949-1.526-1.423-2.288c-1.186-0.367-2.372-0.733-3.557-1.1c-0.898,0.355,0.283,0.897-0.711,0.633
	c0-0.237,0-0.474,0-0.711c-0.711-0.315-1.423-0.629-2.134-0.944c0,0.474,0,0.948,0,1.422c-1.423-0.392-2.846-0.785-4.269-1.177
	c0-0.237,0-0.474,0-0.711c-3.794-0.177-7.589-0.355-11.383-0.532c0,0.711,0,1.422,0,2.133c-2.371-0.97-4.743-1.94-7.115-2.91
	c-0.428-1.466,0.099-0.601-0.711-1.5c-0.543-1.993-0.169-1.637-2.134-2.366c0-0.711,0-1.422,0-2.133
	c-0.948-0.341-1.897-0.681-2.846-1.022c0.459-1.633,0.2-1.31,1.423-1.978c0-0.237,0-0.474,0-0.711
	c-2.474-0.733-6.443-3.416-9.96-2.51c0,0.237,0,0.474,0,0.711c-0.474-0.052-0.949-0.104-1.423-0.155
	c-0.237,0.448-0.474,0.896-0.711,1.344c-2.134,0.004-4.269,0.008-6.403,0.012c0-0.237,0-0.474,0-0.711
	c-1.423,0.082-2.846,0.163-4.269,0.245c0-0.474,0-0.948,0-1.422c-1.6-0.409-1.856-0.269-2.846-1.022c0-0.237,0-0.474,0-0.711
	c-0.474-0.052-0.949-0.104-1.423-0.155c0-0.237,0-0.474,0-0.711c-1.423-0.392-2.846-0.785-4.269-1.177c-0.237-0.5-0.474-1-0.711-1.5
	c-0.948-0.104-1.897-0.207-2.846-0.311c0-0.237,0-0.474,0-0.711c-0.711-0.078-1.423-0.155-2.134-0.233c-0.237-0.5-0.474-1-0.711-1.5
	c-1.423-0.155-2.846-0.311-4.269-0.466c-0.237-0.737-0.474-1.474-0.711-2.211c-2.444-0.129-2.643,0.609-4.98-0.544
	c0-0.237,0-0.474,0-0.711c-0.474-0.052-0.949-0.104-1.423-0.155c0-0.237,0-0.474,0-0.711l-0.711,0.633
	c-0.474-0.052-0.949-0.104-1.423-0.155c0-0.237,0-0.474,0-0.711c-0.237-0.026-0.474-0.052-0.711-0.078c0,0.237,0,0.474,0,0.711
	c-0.711-0.078-1.423-0.155-2.134-0.233c0,0.237,0,0.474,0,0.711c-1.673,0.3-3.899-0.745-4.98-1.255c0-0.237,0-0.474,0-0.711
	c-1.186,0.107-2.372,0.215-3.557,0.322c-0.237,1.396-0.474,2.792-0.711,4.188c-0.237-0.026-0.474-0.052-0.711-0.078
	c0,0.237,0,0.474,0,0.711c-1.186,0.107-2.372,0.215-3.557,0.322c0,0.474,0,0.948,0,1.422c-1.42,0.273-0.612-0.166-1.423,0.556
	c-1.936,0.331-1.62-0.008-2.134,1.9c0,0-2.734-0.334-1.423-0.866c0.237,0.026,0.474,0.052,0.711,0.078c0-0.711,0-1.422,0-2.133
	c-0.237-0.026-0.474-0.052-0.711-0.078c0,0.474,0,0.948,0,1.422c-2.906,0.129-1.803,0.068-4.98-0.544"/>
</svg>
